;TYPE=PLATED
;Layer: PTH_Through_Via
;EasyEDA Pro v3.2.149.88089769, 2026-08-13 17:22:22
;Gerber Generator version 0.3
M48
METRIC,LZ,0000.00000
;Hole size 1 = 0.30500 METRIC
T01C0.30500
%
G05
G90
T01
X40.01194Y27.686
X50.419Y47.879
X40.767Y22.987
X48.641Y38.354
X22.733Y22.81767
X22.733Y20.32
X22.733Y25.31533
X22.733Y27.813
X25.654Y34.671
X30.226Y35.941
X27.178Y36.195
X33.909Y32.385
X25.0825Y20.32
X27.432Y20.32
X25.146Y27.813
X26.543Y30.734
X25.4Y31.877
X24.13Y33.147
X32.766Y31.242
X32.766Y27.559
X34.417Y27.559
X32.258Y21.72244
X32.258Y24.51644
X28.575Y37.592
X27.40728Y27.813
X34.417Y24.511
X40.259Y19.431
X12.319Y7.366
X41.24993Y19.431
X20.701Y7.366
X42.164Y18.796
X28.956Y7.366
X37.211Y7.366
X45.466Y18.796
X46.228Y18.796
X45.72Y7.366
X47.498Y18.796
X53.848Y7.366
X48.26Y18.796
X62.23Y7.366
X37.465Y24.75018
X14.605Y22.606
X37.465Y27.25005
X40.894Y35.814
X59.69Y38.227
X63.754Y38.227
X39.75006Y22.352
X39.116Y32.639
X65.532Y25.019
X76.962Y43.053
X47.752Y30.21
X65.405Y23.241
X14.351Y35.941
X71.882Y13.97
X71.882Y17.78
X37.211Y38.227
X5.43814Y5.43814
X5.43814Y10.51814
X5.43814Y15.59814
X5.43814Y20.67814
X5.43814Y30.83814
X5.43814Y46.07814
X10.51814Y5.43814
X10.51814Y10.51814
X10.51814Y15.59814
X10.51814Y20.67814
X10.51814Y25.75814
X10.51814Y30.83814
X10.51814Y46.07814
X15.59814Y5.43814
X15.59814Y30.83814
X15.59814Y35.91814
X20.67814Y20.67814
X20.67814Y25.75814
X20.67814Y30.83814
X20.67814Y35.91814
X25.75814Y5.43814
X25.75814Y10.51814
X25.75814Y40.99814
X25.75814Y46.07814
X30.83814Y5.43814
X30.83814Y40.99814
X35.91814Y5.43814
X35.91814Y10.51814
X35.91814Y35.91814
X35.91814Y40.99814
X40.99814Y5.43814
X46.07814Y40.99814
X46.07814Y46.07814
X51.15814Y5.43814
X51.15814Y10.51814
X50.165Y22.479
X51.15814Y46.07814
X56.23814Y5.43814
X56.23814Y20.67814
X56.23814Y30.83814
X56.23814Y46.07814
X61.31814Y5.43814
X61.31814Y10.51814
X66.39814Y5.43814
X66.39814Y20.67814
X66.39814Y30.83814
X66.39814Y35.91814
X66.39814Y40.99814
X71.47814Y30.83814
X76.55814Y5.43814
X76.55814Y15.59814
X76.55814Y46.07814
X44.577Y33.782
X45.72Y27.432
X37.846Y30.607
X42.98812Y19.304
X45.847Y30.21
X34.544Y17.602
X43.82063Y19.67962
X49.403Y19.685
X45.974Y24.384
X45.974Y25.654
X40.259Y25.654
X38.354Y26.035
X38.354Y24.384
X40.259Y24.384
X60.706Y22.987
M30