G04 Layer: TopSilkscreenLayer*
G04 EasyEDA Pro v3.2.149.88089769, 2026-08-13 17:22:21*
G04 Gerber Generator version 0.3*
G04 Scale: 100 percent, Rotated: No, Reflected: No*
G04 Dimensions in millimeters*
G04 Leading zeros omitted, absolute positions, 4 integers and 5 decimals*
G04 Generated by one-click*
G04 Object Configs: Pad,Via,Track,Text,Image,Dimension,BoardOutline,BoardCutout,CopperFilled,SolidRegion,FPCStiffener,Line,PlaneZone,ComponentProperty,ComponentSilkscreen,TearDrop*
G04 Layer Configs: 1,2,3,4,5,6,7,8,9,10,11,13,14,56*
G04 Copper Areas: 0*
%FSLAX45Y45*%
%MOMM*%
%ADD10C,0.1016*%
%ADD11C,0.1524*%
%ADD12C,0.2032*%
%ADD13C,0.254*%
%ADD14C,0.2*%
%ADD15C,0.4*%
%ADD16C,0.15199*%
%ADD17C,0.3040*%
%ADD18C,0.3*%
G75*


G04 Text Start*
G54D10*
G01X6589268Y4624578D02*
G01X6587236Y4628642D01*
G01X6583172Y4632706D01*
G01X6578854Y4634738D01*
G01X6570726Y4634738D01*
G01X6566662Y4632706D01*
G01X6562344Y4628642D01*
G01X6560312Y4624578D01*
G01X6558280Y4618228D01*
G01X6558280Y4608068D01*
G01X6560312Y4601718D01*
G01X6562344Y4597654D01*
G01X6566662Y4593590D01*
G01X6570726Y4591558D01*
G01X6578854Y4591558D01*
G01X6583172Y4593590D01*
G01X6587236Y4597654D01*
G01X6589268Y4601718D01*
G01X6589268Y4608068D01*
G01X6578854Y4608068D02*
G01X6589268Y4608068D01*
G01X6609334Y4634738D02*
G01X6609334Y4591558D01*
G01X6609334Y4634738D02*
G01X6638290Y4591558D01*
G01X6638290Y4634738D02*
G01X6638290Y4591558D01*
G01X6658356Y4634738D02*
G01X6658356Y4591558D01*
G01X6658356Y4634738D02*
G01X6672834Y4634738D01*
G01X6678930Y4632706D01*
G01X6683248Y4628642D01*
G01X6685280Y4624578D01*
G01X6687312Y4618228D01*
G01X6687312Y4608068D01*
G01X6685280Y4601718D01*
G01X6683248Y4597654D01*
G01X6678930Y4593590D01*
G01X6672834Y4591558D01*
G01X6658356Y4591558D01*
G01X6790436Y4628642D02*
G01X6786372Y4632706D01*
G01X6780022Y4634738D01*
G01X6771894Y4634738D01*
G01X6765544Y4632706D01*
G01X6761480Y4628642D01*
G01X6761480Y4624578D01*
G01X6763512Y4620514D01*
G01X6765544Y4618228D01*
G01X6769862Y4616196D01*
G01X6782054Y4612132D01*
G01X6786372Y4610100D01*
G01X6788404Y4608068D01*
G01X6790436Y4604004D01*
G01X6790436Y4597654D01*
G01X6786372Y4593590D01*
G01X6780022Y4591558D01*
G01X6771894Y4591558D01*
G01X6765544Y4593590D01*
G01X6761480Y4597654D01*
G01X6810502Y4634738D02*
G01X6820916Y4591558D01*
G01X6831076Y4634738D02*
G01X6820916Y4591558D01*
G01X6831076Y4634738D02*
G01X6841490Y4591558D01*
G01X6851904Y4634738D02*
G01X6841490Y4591558D01*
G01X6902958Y4624578D02*
G01X6900926Y4628642D01*
G01X6896862Y4632706D01*
G01X6892544Y4634738D01*
G01X6884416Y4634738D01*
G01X6880352Y4632706D01*
G01X6876034Y4628642D01*
G01X6874002Y4624578D01*
G01X6871970Y4618228D01*
G01X6871970Y4608068D01*
G01X6874002Y4601718D01*
G01X6876034Y4597654D01*
G01X6880352Y4593590D01*
G01X6884416Y4591558D01*
G01X6892544Y4591558D01*
G01X6896862Y4593590D01*
G01X6900926Y4597654D01*
G01X6902958Y4601718D01*
G01X6923024Y4634738D02*
G01X6923024Y4591558D01*
G01X6923024Y4591558D02*
G01X6947916Y4591558D01*
G01X6967982Y4634738D02*
G01X6967982Y4591558D01*
G01X6996938Y4634738D02*
G01X6967982Y4606036D01*
G01X6978396Y4616196D02*
G01X6996938Y4591558D01*
G01X7069836Y4628642D02*
G01X7065772Y4632706D01*
G01X7059422Y4634738D01*
G01X7051294Y4634738D01*
G01X7044944Y4632706D01*
G01X7040880Y4628642D01*
G01X7040880Y4624578D01*
G01X7042912Y4620514D01*
G01X7044944Y4618228D01*
G01X7049262Y4616196D01*
G01X7061454Y4612132D01*
G01X7065772Y4610100D01*
G01X7067804Y4608068D01*
G01X7069836Y4604004D01*
G01X7069836Y4597654D01*
G01X7065772Y4593590D01*
G01X7059422Y4591558D01*
G01X7051294Y4591558D01*
G01X7044944Y4593590D01*
G01X7040880Y4597654D01*
G01X7089902Y4634738D02*
G01X7100316Y4591558D01*
G01X7110476Y4634738D02*
G01X7100316Y4591558D01*
G01X7110476Y4634738D02*
G01X7120890Y4591558D01*
G01X7131304Y4634738D02*
G01X7120890Y4591558D01*
G01X7151370Y4634738D02*
G01X7151370Y4591558D01*
G01X7151370Y4634738D02*
G01X7165848Y4634738D01*
G01X7171944Y4632706D01*
G01X7176262Y4628642D01*
G01X7178294Y4624578D01*
G01X7180326Y4618228D01*
G01X7180326Y4608068D01*
G01X7178294Y4601718D01*
G01X7176262Y4597654D01*
G01X7171944Y4593590D01*
G01X7165848Y4591558D01*
G01X7151370Y4591558D01*
G01X7200392Y4634738D02*
G01X7200392Y4591558D01*
G01X7232904Y4634738D02*
G01X7228840Y4632706D01*
G01X7224522Y4628642D01*
G01X7222490Y4624578D01*
G01X7220458Y4618228D01*
G01X7220458Y4608068D01*
G01X7222490Y4601718D01*
G01X7224522Y4597654D01*
G01X7228840Y4593590D01*
G01X7232904Y4591558D01*
G01X7241032Y4591558D01*
G01X7245350Y4593590D01*
G01X7249414Y4597654D01*
G01X7251446Y4601718D01*
G01X7253478Y4608068D01*
G01X7253478Y4618228D01*
G01X7251446Y4624578D01*
G01X7249414Y4628642D01*
G01X7245350Y4632706D01*
G01X7241032Y4634738D01*
G01X7232904Y4634738D01*
G01X7324344Y4634738D02*
G01X7347204Y4634738D01*
G01X7334758Y4618228D01*
G01X7340854Y4618228D01*
G01X7345172Y4616196D01*
G01X7347204Y4614164D01*
G01X7349236Y4608068D01*
G01X7349236Y4604004D01*
G01X7347204Y4597654D01*
G01X7342886Y4593590D01*
G01X7336790Y4591558D01*
G01X7330694Y4591558D01*
G01X7324344Y4593590D01*
G01X7322312Y4595622D01*
G01X7320280Y4599686D01*
G01X7369302Y4634738D02*
G01X7385812Y4591558D01*
G01X7402322Y4634738D02*
G01X7385812Y4591558D01*
G01X7426452Y4634738D02*
G01X7449312Y4634738D01*
G01X7436866Y4618228D01*
G01X7442962Y4618228D01*
G01X7447280Y4616196D01*
G01X7449312Y4614164D01*
G01X7451344Y4608068D01*
G01X7451344Y4604004D01*
G01X7449312Y4597654D01*
G01X7444994Y4593590D01*
G01X7438898Y4591558D01*
G01X7432802Y4591558D01*
G01X7426452Y4593590D01*
G01X7424420Y4595622D01*
G01X7422388Y4599686D01*
G01X3045968Y4624578D02*
G01X3043936Y4628642D01*
G01X3039872Y4632706D01*
G01X3035554Y4634738D01*
G01X3027426Y4634738D01*
G01X3023362Y4632706D01*
G01X3019044Y4628642D01*
G01X3017012Y4624578D01*
G01X3014980Y4618228D01*
G01X3014980Y4608068D01*
G01X3017012Y4601718D01*
G01X3019044Y4597654D01*
G01X3023362Y4593590D01*
G01X3027426Y4591558D01*
G01X3035554Y4591558D01*
G01X3039872Y4593590D01*
G01X3043936Y4597654D01*
G01X3045968Y4601718D01*
G01X3045968Y4608068D01*
G01X3035554Y4608068D02*
G01X3045968Y4608068D01*
G01X3066034Y4634738D02*
G01X3066034Y4591558D01*
G01X3066034Y4634738D02*
G01X3094990Y4591558D01*
G01X3094990Y4634738D02*
G01X3094990Y4591558D01*
G01X3115056Y4634738D02*
G01X3115056Y4591558D01*
G01X3115056Y4634738D02*
G01X3129534Y4634738D01*
G01X3135630Y4632706D01*
G01X3139948Y4628642D01*
G01X3141980Y4624578D01*
G01X3144012Y4618228D01*
G01X3144012Y4608068D01*
G01X3141980Y4601718D01*
G01X3139948Y4597654D01*
G01X3135630Y4593590D01*
G01X3129534Y4591558D01*
G01X3115056Y4591558D01*
G01X3273044Y4634738D02*
G01X3295904Y4634738D01*
G01X3283458Y4618228D01*
G01X3289554Y4618228D01*
G01X3293872Y4616196D01*
G01X3295904Y4614164D01*
G01X3297936Y4608068D01*
G01X3297936Y4604004D01*
G01X3295904Y4597654D01*
G01X3291586Y4593590D01*
G01X3285490Y4591558D01*
G01X3279394Y4591558D01*
G01X3273044Y4593590D01*
G01X3271012Y4595622D01*
G01X3268980Y4599686D01*
G01X3318002Y4634738D02*
G01X3334512Y4591558D01*
G01X3351022Y4634738D02*
G01X3334512Y4591558D01*
G01X3375152Y4634738D02*
G01X3398012Y4634738D01*
G01X3385566Y4618228D01*
G01X3391662Y4618228D01*
G01X3395980Y4616196D01*
G01X3398012Y4614164D01*
G01X3400044Y4608068D01*
G01X3400044Y4604004D01*
G01X3398012Y4597654D01*
G01X3393694Y4593590D01*
G01X3387598Y4591558D01*
G01X3381502Y4591558D01*
G01X3375152Y4593590D01*
G01X3373120Y4595622D01*
G01X3371088Y4599686D01*
G01X3551936Y4628642D02*
G01X3547872Y4632706D01*
G01X3541522Y4634738D01*
G01X3533394Y4634738D01*
G01X3527044Y4632706D01*
G01X3522980Y4628642D01*
G01X3522980Y4624578D01*
G01X3525012Y4620514D01*
G01X3527044Y4618228D01*
G01X3531362Y4616196D01*
G01X3543554Y4612132D01*
G01X3547872Y4610100D01*
G01X3549904Y4608068D01*
G01X3551936Y4604004D01*
G01X3551936Y4597654D01*
G01X3547872Y4593590D01*
G01X3541522Y4591558D01*
G01X3533394Y4591558D01*
G01X3527044Y4593590D01*
G01X3522980Y4597654D01*
G01X3602990Y4624578D02*
G01X3600958Y4628642D01*
G01X3596894Y4632706D01*
G01X3592576Y4634738D01*
G01X3584448Y4634738D01*
G01X3580384Y4632706D01*
G01X3576066Y4628642D01*
G01X3574034Y4624578D01*
G01X3572002Y4618228D01*
G01X3572002Y4608068D01*
G01X3574034Y4601718D01*
G01X3576066Y4597654D01*
G01X3580384Y4593590D01*
G01X3584448Y4591558D01*
G01X3592576Y4591558D01*
G01X3596894Y4593590D01*
G01X3600958Y4597654D01*
G01X3602990Y4601718D01*
G01X3623056Y4634738D02*
G01X3623056Y4591558D01*
G01X3623056Y4591558D02*
G01X3647948Y4591558D01*
G01X3805936Y4628642D02*
G01X3801872Y4632706D01*
G01X3795522Y4634738D01*
G01X3787394Y4634738D01*
G01X3781044Y4632706D01*
G01X3776980Y4628642D01*
G01X3776980Y4624578D01*
G01X3779012Y4620514D01*
G01X3781044Y4618228D01*
G01X3785362Y4616196D01*
G01X3797554Y4612132D01*
G01X3801872Y4610100D01*
G01X3803904Y4608068D01*
G01X3805936Y4604004D01*
G01X3805936Y4597654D01*
G01X3801872Y4593590D01*
G01X3795522Y4591558D01*
G01X3787394Y4591558D01*
G01X3781044Y4593590D01*
G01X3776980Y4597654D01*
G01X3826002Y4634738D02*
G01X3826002Y4591558D01*
G01X3826002Y4634738D02*
G01X3840480Y4634738D01*
G01X3846576Y4632706D01*
G01X3850894Y4628642D01*
G01X3852926Y4624578D01*
G01X3854958Y4618228D01*
G01X3854958Y4608068D01*
G01X3852926Y4601718D01*
G01X3850894Y4597654D01*
G01X3846576Y4593590D01*
G01X3840480Y4591558D01*
G01X3826002Y4591558D01*
G01X3891534Y4634738D02*
G01X3875024Y4591558D01*
G01X3891534Y4634738D02*
G01X3908044Y4591558D01*
G01X3881120Y4606036D02*
G01X3901948Y4606036D01*
G54D11*
G01X1391920Y132334D02*
G01X1391920Y67310D01*
G01X1422908Y110744D02*
G01X1391920Y79756D01*
G01X1404366Y92202D02*
G01X1425956Y67310D01*
G01X1456182Y92202D02*
G01X1493266Y92202D01*
G01X1493266Y98298D01*
G01X1490218Y104648D01*
G01X1486916Y107696D01*
G01X1480820Y110744D01*
G01X1471422Y110744D01*
G01X1465326Y107696D01*
G01X1459230Y101346D01*
G01X1456182Y92202D01*
G01X1456182Y85852D01*
G01X1459230Y76708D01*
G01X1465326Y70358D01*
G01X1471422Y67310D01*
G01X1480820Y67310D01*
G01X1486916Y70358D01*
G01X1493266Y76708D01*
G01X1526540Y110744D02*
G01X1545082Y67310D01*
G01X1563624Y110744D02*
G01X1545082Y67310D01*
G01X1538732Y55118D01*
G01X1532636Y48768D01*
G01X1526540Y45720D01*
G01X1523492Y45720D01*
G01X1593850Y119888D02*
G01X1599946Y123190D01*
G01X1609090Y132334D01*
G01X1609090Y67310D01*
G01X2230120Y132334D02*
G01X2230120Y67310D01*
G01X2261108Y110744D02*
G01X2230120Y79756D01*
G01X2242566Y92202D02*
G01X2264156Y67310D01*
G01X2294382Y92202D02*
G01X2331466Y92202D01*
G01X2331466Y98298D01*
G01X2328418Y104648D01*
G01X2325116Y107696D01*
G01X2319020Y110744D01*
G01X2309622Y110744D01*
G01X2303526Y107696D01*
G01X2297430Y101346D01*
G01X2294382Y92202D01*
G01X2294382Y85852D01*
G01X2297430Y76708D01*
G01X2303526Y70358D01*
G01X2309622Y67310D01*
G01X2319020Y67310D01*
G01X2325116Y70358D01*
G01X2331466Y76708D01*
G01X2364740Y110744D02*
G01X2383282Y67310D01*
G01X2401824Y110744D02*
G01X2383282Y67310D01*
G01X2376932Y55118D01*
G01X2370836Y48768D01*
G01X2364740Y45720D01*
G01X2361692Y45720D01*
G01X2435098Y116840D02*
G01X2435098Y119888D01*
G01X2438146Y126238D01*
G01X2441194Y129286D01*
G01X2447290Y132334D01*
G01X2459736Y132334D01*
G01X2466086Y129286D01*
G01X2469134Y126238D01*
G01X2472182Y119888D01*
G01X2472182Y113792D01*
G01X2469134Y107696D01*
G01X2462784Y98298D01*
G01X2432050Y67310D01*
G01X2475230Y67310D01*
G01X3042920Y132334D02*
G01X3042920Y67310D01*
G01X3073908Y110744D02*
G01X3042920Y79756D01*
G01X3055366Y92202D02*
G01X3076956Y67310D01*
G01X3107182Y92202D02*
G01X3144266Y92202D01*
G01X3144266Y98298D01*
G01X3141218Y104648D01*
G01X3137916Y107696D01*
G01X3131820Y110744D01*
G01X3122422Y110744D01*
G01X3116326Y107696D01*
G01X3110230Y101346D01*
G01X3107182Y92202D01*
G01X3107182Y85852D01*
G01X3110230Y76708D01*
G01X3116326Y70358D01*
G01X3122422Y67310D01*
G01X3131820Y67310D01*
G01X3137916Y70358D01*
G01X3144266Y76708D01*
G01X3177540Y110744D02*
G01X3196082Y67310D01*
G01X3214624Y110744D02*
G01X3196082Y67310D01*
G01X3189732Y55118D01*
G01X3183636Y48768D01*
G01X3177540Y45720D01*
G01X3174492Y45720D01*
G01X3250946Y132334D02*
G01X3284982Y132334D01*
G01X3266440Y107696D01*
G01X3275584Y107696D01*
G01X3281934Y104648D01*
G01X3284982Y101346D01*
G01X3288030Y92202D01*
G01X3288030Y85852D01*
G01X3284982Y76708D01*
G01X3278886Y70358D01*
G01X3269488Y67310D01*
G01X3260090Y67310D01*
G01X3250946Y70358D01*
G01X3247898Y73660D01*
G01X3244850Y79756D01*
G01X3881120Y132334D02*
G01X3881120Y67310D01*
G01X3912108Y110744D02*
G01X3881120Y79756D01*
G01X3893566Y92202D02*
G01X3915156Y67310D01*
G01X3945382Y92202D02*
G01X3982466Y92202D01*
G01X3982466Y98298D01*
G01X3979418Y104648D01*
G01X3976116Y107696D01*
G01X3970020Y110744D01*
G01X3960622Y110744D01*
G01X3954526Y107696D01*
G01X3948430Y101346D01*
G01X3945382Y92202D01*
G01X3945382Y85852D01*
G01X3948430Y76708D01*
G01X3954526Y70358D01*
G01X3960622Y67310D01*
G01X3970020Y67310D01*
G01X3976116Y70358D01*
G01X3982466Y76708D01*
G01X4015740Y110744D02*
G01X4034282Y67310D01*
G01X4052824Y110744D02*
G01X4034282Y67310D01*
G01X4027932Y55118D01*
G01X4021836Y48768D01*
G01X4015740Y45720D01*
G01X4012692Y45720D01*
G01X4113784Y132334D02*
G01X4083050Y89154D01*
G01X4129278Y89154D01*
G01X4113784Y132334D02*
G01X4113784Y67310D01*
G01X4719320Y132334D02*
G01X4719320Y67310D01*
G01X4750308Y110744D02*
G01X4719320Y79756D01*
G01X4731766Y92202D02*
G01X4753356Y67310D01*
G01X4783582Y92202D02*
G01X4820666Y92202D01*
G01X4820666Y98298D01*
G01X4817618Y104648D01*
G01X4814316Y107696D01*
G01X4808220Y110744D01*
G01X4798822Y110744D01*
G01X4792726Y107696D01*
G01X4786630Y101346D01*
G01X4783582Y92202D01*
G01X4783582Y85852D01*
G01X4786630Y76708D01*
G01X4792726Y70358D01*
G01X4798822Y67310D01*
G01X4808220Y67310D01*
G01X4814316Y70358D01*
G01X4820666Y76708D01*
G01X4853940Y110744D02*
G01X4872482Y67310D01*
G01X4891024Y110744D02*
G01X4872482Y67310D01*
G01X4866132Y55118D01*
G01X4860036Y48768D01*
G01X4853940Y45720D01*
G01X4850892Y45720D01*
G01X4958334Y132334D02*
G01X4927346Y132334D01*
G01X4924298Y104648D01*
G01X4927346Y107696D01*
G01X4936490Y110744D01*
G01X4945888Y110744D01*
G01X4955286Y107696D01*
G01X4961382Y101346D01*
G01X4964430Y92202D01*
G01X4964430Y85852D01*
G01X4961382Y76708D01*
G01X4955286Y70358D01*
G01X4945888Y67310D01*
G01X4936490Y67310D01*
G01X4927346Y70358D01*
G01X4924298Y73660D01*
G01X4921250Y79756D01*
G01X5544820Y132334D02*
G01X5544820Y67310D01*
G01X5575808Y110744D02*
G01X5544820Y79756D01*
G01X5557266Y92202D02*
G01X5578856Y67310D01*
G01X5609082Y92202D02*
G01X5646166Y92202D01*
G01X5646166Y98298D01*
G01X5643118Y104648D01*
G01X5639816Y107696D01*
G01X5633720Y110744D01*
G01X5624322Y110744D01*
G01X5618226Y107696D01*
G01X5612130Y101346D01*
G01X5609082Y92202D01*
G01X5609082Y85852D01*
G01X5612130Y76708D01*
G01X5618226Y70358D01*
G01X5624322Y67310D01*
G01X5633720Y67310D01*
G01X5639816Y70358D01*
G01X5646166Y76708D01*
G01X5679440Y110744D02*
G01X5697982Y67310D01*
G01X5716524Y110744D02*
G01X5697982Y67310D01*
G01X5691632Y55118D01*
G01X5685536Y48768D01*
G01X5679440Y45720D01*
G01X5676392Y45720D01*
G01X5783834Y123190D02*
G01X5780786Y129286D01*
G01X5771388Y132334D01*
G01X5765292Y132334D01*
G01X5755894Y129286D01*
G01X5749798Y119888D01*
G01X5746750Y104648D01*
G01X5746750Y89154D01*
G01X5749798Y76708D01*
G01X5755894Y70358D01*
G01X5765292Y67310D01*
G01X5768340Y67310D01*
G01X5777484Y70358D01*
G01X5783834Y76708D01*
G01X5786882Y85852D01*
G01X5786882Y89154D01*
G01X5783834Y98298D01*
G01X5777484Y104648D01*
G01X5768340Y107696D01*
G01X5765292Y107696D01*
G01X5755894Y104648D01*
G01X5749798Y98298D01*
G01X5746750Y89154D01*
G01X6383020Y132334D02*
G01X6383020Y67310D01*
G01X6414008Y110744D02*
G01X6383020Y79756D01*
G01X6395466Y92202D02*
G01X6417056Y67310D01*
G01X6447282Y92202D02*
G01X6484366Y92202D01*
G01X6484366Y98298D01*
G01X6481318Y104648D01*
G01X6478016Y107696D01*
G01X6471920Y110744D01*
G01X6462522Y110744D01*
G01X6456426Y107696D01*
G01X6450330Y101346D01*
G01X6447282Y92202D01*
G01X6447282Y85852D01*
G01X6450330Y76708D01*
G01X6456426Y70358D01*
G01X6462522Y67310D01*
G01X6471920Y67310D01*
G01X6478016Y70358D01*
G01X6484366Y76708D01*
G01X6517640Y110744D02*
G01X6536182Y67310D01*
G01X6554724Y110744D02*
G01X6536182Y67310D01*
G01X6529832Y55118D01*
G01X6523736Y48768D01*
G01X6517640Y45720D01*
G01X6514592Y45720D01*
G01X6628130Y132334D02*
G01X6597142Y67310D01*
G01X6584950Y132334D02*
G01X6628130Y132334D01*
G36*
G01X7341639Y285634D02*
G01X7320164Y285808D01*
G01X7318952Y286327D01*
G01X7317394Y287020D01*
G01X7316008Y287886D01*
G01X7314276Y289618D01*
G01X7313584Y290657D01*
G01X7312891Y292389D01*
G01X7312371Y294121D01*
G01X7312025Y296891D01*
G01X7311852Y305377D01*
G01X7311852Y313344D01*
G01X7286221Y313344D01*
G01X7286221Y304684D01*
G01X7275830Y304684D01*
G01X7275830Y305551D01*
G01X7276003Y306936D01*
G01X7276139Y329796D01*
G01X7286221Y329796D01*
G01X7286394Y320791D01*
G01X7299209Y320617D01*
G01X7311852Y320617D01*
G01X7311852Y329796D01*
G01X7320857Y329796D01*
G01X7321031Y320791D01*
G01X7334539Y320617D01*
G01X7347874Y320617D01*
G01X7347874Y338628D01*
G01X7320857Y338628D01*
G01X7320857Y329796D01*
G01X7320857Y329796D01*
G01X7311852Y329796D01*
G01X7311852Y338628D01*
G01X7286221Y338628D01*
G01X7286221Y329796D01*
G01X7286221Y329796D01*
G01X7276139Y329796D01*
G01X7276176Y336204D01*
G01X7276070Y354214D01*
G01X7286221Y354214D01*
G01X7286394Y346075D01*
G01X7299209Y345902D01*
G01X7311852Y345902D01*
G01X7311852Y354214D01*
G01X7320857Y354214D01*
G01X7321031Y346075D01*
G01X7334539Y345902D01*
G01X7347874Y345902D01*
G01X7347874Y362181D01*
G01X7320857Y362181D01*
G01X7320857Y354214D01*
G01X7320857Y354214D01*
G01X7311852Y354214D01*
G01X7311852Y362181D01*
G01X7286221Y362181D01*
G01X7286221Y354214D01*
G01X7286221Y354214D01*
G01X7276070Y354214D01*
G01X7276003Y365471D01*
G01X7275830Y367896D01*
G01X7275830Y369801D01*
G01X7311852Y369801D01*
G01X7311852Y377767D01*
G01X7311679Y386253D01*
G01X7311506Y387639D01*
G01X7311506Y388504D01*
G01X7321204Y388504D01*
G01X7321204Y385214D01*
G01X7321031Y381404D01*
G01X7320857Y375343D01*
G01X7320857Y369801D01*
G01X7356879Y369801D01*
G01X7356879Y363566D01*
G01X7356706Y356812D01*
G01X7356533Y342958D01*
G01X7356706Y329103D01*
G01X7356879Y321829D01*
G01X7357052Y314209D01*
G01X7357226Y313344D01*
G01X7320857Y313344D01*
G01X7320857Y306936D01*
G01X7321031Y300009D01*
G01X7321204Y298796D01*
G01X7321550Y297584D01*
G01X7322069Y296372D01*
G01X7323109Y294986D01*
G01X7324667Y293947D01*
G01X7325879Y293428D01*
G01X7328651Y293081D01*
G01X7341639Y292908D01*
G01X7354628Y293081D01*
G01X7355840Y293254D01*
G01X7357745Y293601D01*
G01X7359650Y294294D01*
G01X7360862Y295159D01*
G01X7361728Y296545D01*
G01X7362421Y298623D01*
G01X7362941Y300355D01*
G01X7363287Y302087D01*
G01X7363633Y304511D01*
G01X7363893Y305377D01*
G01X7364326Y305551D01*
G01X7365538Y304858D01*
G01X7367097Y303992D01*
G01X7368656Y303299D01*
G01X7370387Y302606D01*
G01X7372639Y301914D01*
G01X7373504Y301481D01*
G01X7373678Y300874D01*
G01X7373158Y299143D01*
G01X7372466Y297064D01*
G01X7371773Y295159D01*
G01X7370387Y292042D01*
G01X7369521Y290311D01*
G01X7368656Y289098D01*
G01X7367963Y288232D01*
G01X7366924Y287366D01*
G01X7365711Y286674D01*
G01X7364326Y286154D01*
G01X7362941Y285808D01*
G01X7341639Y285634D01*
G37*
G36*
G01X7393247Y287713D02*
G01X7392554Y288232D01*
G01X7391169Y289271D01*
G01X7389784Y290137D01*
G01X7388225Y291003D01*
G01X7386839Y291869D01*
G01X7385454Y292562D01*
G01X7383896Y293254D01*
G01X7383506Y293731D01*
G01X7383722Y294467D01*
G01X7384588Y295852D01*
G01X7387359Y301394D01*
G01X7388398Y303819D01*
G01X7389091Y305204D01*
G01X7389784Y306936D01*
G01X7390476Y308841D01*
G01X7391169Y310573D01*
G01X7392208Y313344D01*
G01X7394286Y319578D01*
G01X7394806Y321310D01*
G01X7395326Y323388D01*
G01X7395845Y324947D01*
G01X7396191Y326506D01*
G01X7396711Y328757D01*
G01X7397231Y330489D01*
G01X7397577Y332047D01*
G01X7397750Y333086D01*
G01X7398443Y332567D01*
G01X7399655Y331701D01*
G01X7401041Y330662D01*
G01X7402772Y329449D01*
G01X7404158Y328584D01*
G01X7405370Y327891D01*
G01X7405846Y327415D01*
G01X7405889Y326679D01*
G01X7405370Y325120D01*
G01X7404677Y323388D01*
G01X7400001Y309361D01*
G01X7399655Y307975D01*
G01X7397057Y300182D01*
G01X7396018Y296718D01*
G01X7394979Y293601D01*
G01X7393940Y290137D01*
G01X7393421Y288579D01*
G01X7393247Y287713D01*
G37*
G36*
G01X7402209Y342005D02*
G01X7401733Y342092D01*
G01X7400001Y343824D01*
G01X7397231Y345902D01*
G01X7395845Y346768D01*
G01X7394286Y347807D01*
G01X7392728Y348673D01*
G01X7391342Y349366D01*
G01X7388918Y350751D01*
G01X7387532Y351444D01*
G01X7385108Y352829D01*
G01X7384242Y353349D01*
G01X7384588Y354388D01*
G01X7385974Y356812D01*
G01X7386839Y358544D01*
G01X7387706Y359929D01*
G01X7388182Y360189D01*
G01X7388918Y359929D01*
G01X7390303Y359064D01*
G01X7393421Y357505D01*
G01X7394806Y356639D01*
G01X7398962Y354561D01*
G01X7402079Y352829D01*
G01X7405716Y350751D01*
G01X7406756Y350231D01*
G01X7407232Y350015D01*
G01X7407275Y349712D01*
G01X7406582Y348499D01*
G01X7403465Y343824D01*
G01X7402599Y342438D01*
G01X7402209Y342005D01*
G37*
G36*
G01X7403984Y366943D02*
G01X7403638Y367203D01*
G01X7401041Y369801D01*
G01X7400348Y370667D01*
G01X7399655Y371359D01*
G01X7398789Y372052D01*
G01X7395326Y375516D01*
G01X7393247Y377248D01*
G01X7392381Y378114D01*
G01X7389611Y380192D01*
G01X7388744Y380884D01*
G01X7388615Y381231D01*
G01X7390996Y384002D01*
G01X7393594Y386599D01*
G01X7394286Y386946D01*
G01X7395152Y386426D01*
G01X7396018Y385734D01*
G01X7397231Y384694D01*
G01X7398616Y383656D01*
G01X7401214Y381577D01*
G01X7402426Y380538D01*
G01X7403811Y379499D01*
G01X7404677Y378633D01*
G01X7406756Y376901D01*
G01X7409353Y374304D01*
G01X7409873Y373611D01*
G01X7409526Y372745D01*
G01X7406929Y370147D01*
G01X7405197Y368069D01*
G01X7404331Y367203D01*
G01X7403984Y366943D01*
G37*
G36*
G01X7407491Y284812D02*
G01X7407274Y284943D01*
G01X7406582Y286154D01*
G01X7405716Y287366D01*
G01X7405024Y288232D01*
G01X7402079Y291176D01*
G01X7400694Y292216D01*
G01X7400391Y292562D01*
G01X7400521Y292908D01*
G01X7401214Y293774D01*
G01X7402079Y294640D01*
G01X7403465Y296372D01*
G01X7404331Y297238D01*
G01X7405370Y298623D01*
G01X7406582Y300355D01*
G01X7407448Y301567D01*
G01X7408141Y302779D01*
G01X7409526Y305551D01*
G01X7410219Y307282D01*
G01X7410912Y309187D01*
G01X7411604Y311266D01*
G01X7412297Y313517D01*
G01X7412817Y315249D01*
G01X7413509Y318366D01*
G01X7414202Y322176D01*
G01X7414549Y324601D01*
G01X7414895Y327371D01*
G01X7415241Y330489D01*
G01X7415588Y335338D01*
G01X7415761Y341226D01*
G01X7415934Y347461D01*
G01X7416107Y360276D01*
G01X7415934Y372745D01*
G01X7415761Y378979D01*
G01X7415761Y384694D01*
G01X7448319Y384694D01*
G01X7481397Y384868D01*
G01X7483994Y385041D01*
G01X7486073Y385041D01*
G01X7486073Y376728D01*
G01X7482782Y376728D01*
G01X7478972Y376901D01*
G01X7451436Y377074D01*
G01X7424420Y377074D01*
G01X7424420Y356466D01*
G01X7424247Y335338D01*
G01X7423901Y329103D01*
G01X7423727Y327718D01*
G01X7423554Y325639D01*
G01X7423208Y322869D01*
G01X7422515Y318712D01*
G01X7421996Y315941D01*
G01X7421476Y314209D01*
G01X7421129Y312478D01*
G01X7420610Y310573D01*
G01X7419051Y305897D01*
G01X7417493Y301741D01*
G01X7416107Y298623D01*
G01X7415414Y297238D01*
G01X7414029Y294813D01*
G01X7413163Y293081D01*
G01X7412124Y291349D01*
G01X7410046Y288232D01*
G01X7408834Y286501D01*
G01X7407794Y285115D01*
G01X7407491Y284812D01*
G37*
G36*
G01X7427018Y289098D02*
G01X7426152Y289098D01*
G01X7425286Y289791D01*
G01X7422515Y291869D01*
G01X7421303Y292735D01*
G01X7420091Y293428D01*
G01X7419571Y293947D01*
G01X7419917Y294813D01*
G01X7421996Y296891D01*
G01X7424766Y300355D01*
G01X7425806Y301741D01*
G01X7428403Y305377D01*
G01X7429442Y306936D01*
G01X7430481Y308668D01*
G01X7431347Y309880D01*
G01X7432040Y311092D01*
G01X7433772Y314209D01*
G01X7434464Y315595D01*
G01X7434811Y315898D01*
G01X7435157Y315768D01*
G01X7436023Y315076D01*
G01X7437409Y314036D01*
G01X7438967Y312997D01*
G01X7440353Y312131D01*
G01X7441911Y311266D01*
G01X7443124Y310573D01*
G01X7443254Y310226D01*
G01X7442951Y309880D01*
G01X7441219Y308148D01*
G01X7439487Y306070D01*
G01X7438101Y304338D01*
G01X7437062Y303126D01*
G01X7432906Y296891D01*
G01X7431694Y295159D01*
G01X7430308Y293428D01*
G01X7429269Y292042D01*
G01X7428576Y291176D01*
G01X7427884Y290137D01*
G01X7427018Y289098D01*
G37*
G36*
G01X7446631Y283426D02*
G01X7446241Y283903D01*
G01X7445721Y285115D01*
G01X7445375Y286327D01*
G01X7444856Y287713D01*
G01X7444163Y289271D01*
G01X7443470Y290657D01*
G01X7442951Y292042D01*
G01X7442777Y292908D01*
G01X7444509Y292908D01*
G01X7447453Y293081D01*
G01X7449531Y293601D01*
G01X7450744Y294467D01*
G01X7451436Y295679D01*
G01X7451783Y310746D01*
G01X7451783Y325120D01*
G01X7433079Y325120D01*
G01X7433079Y327198D01*
G01X7433252Y329796D01*
G01X7433334Y336550D01*
G01X7442084Y336550D01*
G01X7442258Y332567D01*
G01X7456459Y332394D01*
G01X7470486Y332394D01*
G01X7470486Y340360D01*
G01X7442084Y340360D01*
G01X7442084Y336550D01*
G01X7442084Y336550D01*
G01X7433334Y336550D01*
G01X7433426Y344170D01*
G01X7433327Y352309D01*
G01X7442084Y352309D01*
G01X7442258Y347807D01*
G01X7456459Y347634D01*
G01X7470486Y347634D01*
G01X7470486Y356639D01*
G01X7442084Y356639D01*
G01X7442084Y352309D01*
G01X7442084Y352309D01*
G01X7433327Y352309D01*
G01X7433252Y358544D01*
G01X7433079Y361315D01*
G01X7433079Y363566D01*
G01X7445202Y363566D01*
G01X7445548Y364606D01*
G01X7446241Y366511D01*
G01X7446934Y368589D01*
G01X7447626Y370840D01*
G01X7448146Y372399D01*
G01X7448319Y373611D01*
G01X7448449Y374174D01*
G01X7448839Y374477D01*
G01X7450397Y374304D01*
G01X7451956Y373784D01*
G01X7455073Y373091D01*
G01X7456805Y372745D01*
G01X7458017Y372226D01*
G01X7457671Y371533D01*
G01X7456978Y370321D01*
G01X7455593Y367549D01*
G01X7454900Y365991D01*
G01X7454381Y364432D01*
G01X7454207Y363566D01*
G01X7466676Y363566D01*
G01X7476071Y363436D01*
G01X7479319Y363047D01*
G01X7479319Y362008D01*
G01X7479146Y344863D01*
G01X7479319Y327718D01*
G01X7479492Y326159D01*
G01X7479492Y325120D01*
G01X7460096Y325120D01*
G01X7460096Y309880D01*
G01X7459922Y293081D01*
G01X7459403Y291003D01*
G01X7458710Y289618D01*
G01X7458017Y288406D01*
G01X7457324Y287539D01*
G01X7456112Y286501D01*
G01X7454727Y285634D01*
G01X7453168Y284942D01*
G01X7449531Y283729D01*
G01X7447107Y283383D01*
G01X7446631Y283426D01*
G37*
G36*
G01X7481613Y291739D02*
G01X7481224Y292042D01*
G01X7476028Y298969D01*
G01X7475162Y300355D01*
G01X7471699Y304684D01*
G01X7470833Y305551D01*
G01X7469447Y307282D01*
G01X7467716Y309014D01*
G01X7467023Y309880D01*
G01X7467023Y310746D01*
G01X7468754Y312131D01*
G01X7470833Y313863D01*
G01X7472954Y315552D01*
G01X7473431Y315422D01*
G01X7475162Y313690D01*
G01X7477241Y311266D01*
G01X7478453Y310053D01*
G01X7479492Y308668D01*
G01X7480358Y307802D01*
G01X7482436Y305377D01*
G01X7484168Y303299D01*
G01X7485034Y302433D01*
G01X7485726Y301567D01*
G01X7486419Y300528D01*
G01X7487285Y299489D01*
G01X7488324Y298277D01*
G01X7488584Y297584D01*
G01X7488324Y297238D01*
G01X7487458Y296545D01*
G01X7485034Y294467D01*
G01X7482956Y292735D01*
G01X7482089Y291869D01*
G01X7481613Y291739D01*
G37*
G36*
G01X7512353Y285851D02*
G01X7511704Y286154D01*
G01X7509452Y288406D01*
G01X7507721Y289618D01*
G01X7506162Y290657D01*
G01X7504776Y291523D01*
G01X7503564Y292216D01*
G01X7502352Y292735D01*
G01X7501962Y292951D01*
G01X7502179Y293254D01*
G01X7507721Y296026D01*
G01X7508933Y296718D01*
G01X7510318Y297584D01*
G01X7511531Y298450D01*
G01X7512396Y299143D01*
G01X7513609Y300009D01*
G01X7514821Y301048D01*
G01X7516553Y302433D01*
G01X7517419Y303299D01*
G01X7519151Y305377D01*
G01X7520363Y306589D01*
G01X7521402Y307975D01*
G01X7522094Y308841D01*
G01X7522961Y310053D01*
G01X7525039Y313517D01*
G01X7525904Y314902D01*
G01X7526597Y316288D01*
G01X7527290Y318019D01*
G01X7527983Y319578D01*
G01X7528502Y320964D01*
G01X7529022Y322176D01*
G01X7529541Y323734D01*
G01X7530581Y327198D01*
G01X7530927Y328757D01*
G01X7531273Y330489D01*
G01X7531619Y333259D01*
G01X7531793Y334818D01*
G01X7526771Y334818D01*
G01X7510145Y334299D01*
G01X7505642Y333952D01*
G01X7502525Y333606D01*
G01X7500620Y333433D01*
G01X7499234Y333433D01*
G01X7499234Y337936D01*
G01X7499364Y341356D01*
G01X7499754Y342611D01*
G01X7500793Y342611D01*
G01X7514648Y342265D01*
G01X7523653Y342092D01*
G01X7532139Y342092D01*
G01X7532139Y358891D01*
G01X7541491Y358891D01*
G01X7541664Y342265D01*
G01X7552748Y342092D01*
G01X7563658Y342092D01*
G01X7563658Y375343D01*
G01X7541491Y375343D01*
G01X7541491Y358891D01*
G01X7541491Y358891D01*
G01X7532139Y358891D01*
G01X7532139Y375343D01*
G01X7525904Y375343D01*
G01X7519151Y375169D01*
G01X7512916Y374996D01*
G01X7507201Y374996D01*
G01X7507201Y383656D01*
G01X7510491Y383656D01*
G01X7514301Y383482D01*
G01X7550843Y383309D01*
G01X7587384Y383482D01*
G01X7591541Y383656D01*
G01X7595177Y383656D01*
G01X7595177Y374996D01*
G01X7590674Y374996D01*
G01X7585652Y375169D01*
G01X7579244Y375343D01*
G01X7573356Y375343D01*
G01X7573356Y342092D01*
G01X7579591Y342092D01*
G01X7586345Y342265D01*
G01X7598121Y342611D01*
G01X7599680Y342784D01*
G01X7600719Y342784D01*
G01X7600719Y338282D01*
G01X7600546Y334905D01*
G01X7600026Y333779D01*
G01X7598814Y333952D01*
G01X7593272Y334299D01*
G01X7582881Y334645D01*
G01X7577859Y334818D01*
G01X7573356Y334818D01*
G01X7573356Y312478D01*
G01X7573529Y289618D01*
G01X7573703Y287366D01*
G01X7573703Y285634D01*
G01X7563312Y285634D01*
G01X7563312Y286847D01*
G01X7563485Y288579D01*
G01X7563658Y311958D01*
G01X7563658Y334818D01*
G01X7552748Y334818D01*
G01X7544478Y334645D01*
G01X7541491Y334126D01*
G01X7540971Y332221D01*
G01X7539932Y327025D01*
G01X7539586Y325466D01*
G01X7539066Y323215D01*
G01X7538547Y321483D01*
G01X7538201Y319924D01*
G01X7537681Y318193D01*
G01X7536642Y315422D01*
G01X7535949Y313863D01*
G01X7535256Y312131D01*
G01X7533005Y307629D01*
G01X7532139Y306243D01*
G01X7531446Y305031D01*
G01X7530581Y303646D01*
G01X7529714Y302433D01*
G01X7529022Y301567D01*
G01X7528156Y300355D01*
G01X7525039Y296718D01*
G01X7521575Y293254D01*
G01X7519843Y291869D01*
G01X7518977Y291003D01*
G01X7517246Y289618D01*
G01X7516033Y288406D01*
G01X7514301Y287020D01*
G01X7512916Y285981D01*
G01X7512353Y285851D01*
G37*
G36*
G01X7622930Y285202D02*
G01X7622540Y285634D01*
G01X7621847Y286847D01*
G01X7621154Y287886D01*
G01X7620462Y288752D01*
G01X7619423Y289964D01*
G01X7618211Y291349D01*
G01X7616825Y292562D01*
G01X7615959Y293254D01*
G01X7616998Y293428D01*
G01X7622194Y294986D01*
G01X7623926Y295679D01*
G01X7627736Y297064D01*
G01X7632411Y299143D01*
G01X7635182Y300528D01*
G01X7636394Y301221D01*
G01X7637953Y302087D01*
G01X7641071Y304165D01*
G01X7642283Y305031D01*
G01X7643322Y305724D01*
G01X7644361Y306589D01*
G01X7646093Y307975D01*
G01X7650422Y312304D01*
G01X7651461Y313517D01*
G01X7652327Y314729D01*
G01X7653020Y315595D01*
G01X7653886Y316981D01*
G01X7654752Y318193D01*
G01X7655444Y319405D01*
G01X7656830Y322176D01*
G01X7657523Y323734D01*
G01X7658042Y325466D01*
G01X7658216Y326506D01*
G01X7640204Y326506D01*
G01X7621674Y326332D01*
G01X7619423Y326159D01*
G01X7617691Y326159D01*
G01X7617691Y334126D01*
G01X7619249Y334126D01*
G01X7621328Y333952D01*
G01X7640551Y333779D01*
G01X7659254Y333779D01*
G01X7659254Y356639D01*
G01X7648864Y356639D01*
G01X7637953Y356466D01*
G01X7625138Y356119D01*
G01X7623926Y355946D01*
G01X7623406Y356899D01*
G01X7623233Y359756D01*
G01X7623406Y364086D01*
G01X7623666Y364432D01*
G01X7624099Y364432D01*
G01X7633451Y364086D01*
G01X7652154Y363913D01*
G01X7670858Y364259D01*
G01X7671551Y365298D01*
G01X7673109Y368935D01*
G01X7673802Y370494D01*
G01X7674494Y372226D01*
G01X7675014Y373611D01*
G01X7675534Y374823D01*
G01X7677092Y378979D01*
G01X7677612Y380538D01*
G01X7678304Y382270D01*
G01X7679690Y386773D01*
G01X7680036Y387466D01*
G01X7680383Y387466D01*
G01X7681422Y386773D01*
G01X7682634Y386080D01*
G01X7688176Y383309D01*
G01X7689561Y382789D01*
G01X7690168Y382573D01*
G01X7690254Y382270D01*
G01X7689734Y381404D01*
G01X7688003Y378979D01*
G01X7686271Y376209D01*
G01X7683500Y371359D01*
G01X7680729Y365818D01*
G01X7680209Y364606D01*
G01X7680036Y363913D01*
G01X7686964Y363913D01*
G01X7694411Y364086D01*
G01X7704109Y364432D01*
G01X7705494Y364606D01*
G01X7706360Y364606D01*
G01X7706360Y360796D01*
G01X7706187Y356466D01*
G01X7705927Y356119D01*
G01X7705494Y356119D01*
G01X7692679Y356466D01*
G01X7680036Y356639D01*
G01X7667914Y356639D01*
G01X7667914Y334126D01*
G01X7685924Y334126D01*
G01X7704455Y334299D01*
G01X7708438Y334472D01*
G01X7711902Y334472D01*
G01X7711902Y326159D01*
G01X7710863Y326159D01*
G01X7709304Y326332D01*
G01X7689388Y326506D01*
G01X7674884Y326376D01*
G01X7670165Y325986D01*
G01X7670858Y324601D01*
G01X7672070Y322869D01*
G01X7672936Y321483D01*
G01X7673629Y320617D01*
G01X7675707Y318193D01*
G01X7677092Y316461D01*
G01X7679690Y313863D01*
G01X7681768Y312131D01*
G01X7683500Y310746D01*
G01X7684712Y309707D01*
G01X7687137Y307975D01*
G01X7688869Y306936D01*
G01X7690427Y305897D01*
G01X7691986Y305031D01*
G01X7696142Y302953D01*
G01X7699259Y301567D01*
G01X7700645Y301048D01*
G01X7705321Y299489D01*
G01X7706706Y298969D01*
G01X7708611Y298450D01*
G01X7710343Y297931D01*
G01X7712075Y297584D01*
G01X7713634Y297238D01*
G01X7713634Y296545D01*
G01X7712248Y294813D01*
G01X7710516Y292389D01*
G01X7709824Y291349D01*
G01X7709131Y290137D01*
G01X7708265Y288579D01*
G01X7707399Y287193D01*
G01X7706923Y286847D01*
G01X7706187Y286847D01*
G01X7704628Y287366D01*
G01X7700472Y288925D01*
G01X7699259Y289444D01*
G01X7692332Y292908D01*
G01X7689908Y294294D01*
G01X7688349Y295159D01*
G01X7685232Y297238D01*
G01X7684019Y298104D01*
G01X7683154Y298796D01*
G01X7682288Y299316D01*
G01X7681422Y300009D01*
G01X7678997Y302087D01*
G01X7678131Y302953D01*
G01X7676399Y304338D01*
G01X7674668Y306070D01*
G01X7672589Y308494D01*
G01X7671377Y309707D01*
G01X7669992Y311439D01*
G01X7668953Y312824D01*
G01X7668260Y313690D01*
G01X7667394Y314902D01*
G01X7666355Y316461D01*
G01X7665489Y317846D01*
G01X7665143Y318323D01*
G01X7664796Y318366D01*
G01X7664104Y317673D01*
G01X7662545Y314556D01*
G01X7660813Y311785D01*
G01X7659947Y310573D01*
G01X7659254Y309534D01*
G01X7658389Y308494D01*
G01X7656311Y306070D01*
G01X7653713Y303472D01*
G01X7651981Y302087D01*
G01X7650769Y300874D01*
G01X7649383Y299836D01*
G01X7648517Y299143D01*
G01X7644881Y296545D01*
G01X7642109Y294813D01*
G01X7640378Y293774D01*
G01X7638992Y292908D01*
G01X7636568Y291523D01*
G01X7628255Y287366D01*
G01X7623406Y285288D01*
G01X7622930Y285202D01*
G37*
G36*
G01X7648604Y365168D02*
G01X7648344Y365471D01*
G01X7647651Y366684D01*
G01X7646786Y368242D01*
G01X7645919Y369974D01*
G01X7643841Y373438D01*
G01X7640724Y378114D01*
G01X7639858Y379326D01*
G01X7638819Y380711D01*
G01X7638299Y381924D01*
G01X7639166Y382789D01*
G01X7640378Y383656D01*
G01X7641244Y384348D01*
G01X7642109Y384868D01*
G01X7642976Y385561D01*
G01X7644188Y386599D01*
G01X7644924Y386903D01*
G01X7645400Y386773D01*
G01X7646093Y386080D01*
G01X7646612Y385214D01*
G01X7647305Y384348D01*
G01X7648344Y383136D01*
G01X7649556Y381404D01*
G01X7650596Y380019D01*
G01X7653193Y376382D01*
G01X7655271Y373264D01*
G01X7656137Y371879D01*
G01X7656830Y370840D01*
G01X7656830Y370147D01*
G01X7655618Y369454D01*
G01X7653886Y368589D01*
G01X7652501Y367723D01*
G01X7651461Y367030D01*
G01X7649037Y365298D01*
G01X7648604Y365168D01*
G37*
G36*
G01X368675Y2354219D02*
G01X368069Y2354869D01*
G01X366684Y2357639D01*
G01X365991Y2359371D01*
G01X364779Y2361796D01*
G01X365298Y2362186D01*
G01X367203Y2362316D01*
G01X370321Y2362489D01*
G01X376209Y2362835D01*
G01X379672Y2363181D01*
G01X381058Y2363354D01*
G01X382789Y2363528D01*
G01X387639Y2364221D01*
G01X389717Y2364567D01*
G01X392141Y2364913D01*
G01X393873Y2365259D01*
G01X395086Y2365433D01*
G01X396991Y2365779D01*
G01X398722Y2366299D01*
G01X399934Y2366472D01*
G01X401320Y2366818D01*
G01X405130Y2367857D01*
G01X406516Y2368377D01*
G01X406948Y2368680D01*
G01X406862Y2369243D01*
G01X405823Y2370455D01*
G01X403052Y2372187D01*
G01X401839Y2373053D01*
G01X400454Y2373919D01*
G01X398722Y2375131D01*
G01X395951Y2377209D01*
G01X394566Y2378075D01*
G01X393700Y2378768D01*
G01X392834Y2379634D01*
G01X390236Y2381712D01*
G01X390193Y2382101D01*
G01X390756Y2382578D01*
G01X391968Y2383444D01*
G01X393007Y2384136D01*
G01X394046Y2385002D01*
G01X394912Y2385868D01*
G01X395605Y2386734D01*
G01X397683Y2386734D01*
G01X398376Y2385868D01*
G01X400108Y2384483D01*
G01X400974Y2383617D01*
G01X404437Y2380846D01*
G01X405303Y2379980D01*
G01X406516Y2379114D01*
G01X409633Y2377036D01*
G01X411018Y2376170D01*
G01X412057Y2375477D01*
G01X413269Y2374784D01*
G01X413269Y2374784D01*
G01X416387Y2373226D01*
G01X417426Y2373572D01*
G01X418984Y2374611D01*
G01X420197Y2375304D01*
G01X421063Y2375997D01*
G01X423141Y2377729D01*
G01X425566Y2379807D01*
G01X428163Y2382404D01*
G01X429549Y2384136D01*
G01X430414Y2385002D01*
G01X431107Y2385868D01*
G01X431627Y2386734D01*
G01X427471Y2387124D01*
G01X414655Y2387254D01*
G01X401839Y2387124D01*
G01X397683Y2386734D01*
G01X395605Y2386734D01*
G01X395432Y2387124D01*
G01X394566Y2387254D01*
G01X393007Y2386907D01*
G01X392141Y2386214D01*
G01X388678Y2382751D01*
G01X386946Y2381366D01*
G01X385214Y2379634D01*
G01X384348Y2378941D01*
G01X383136Y2377902D01*
G01X381751Y2376863D01*
G01X380884Y2376170D01*
G01X377248Y2373572D01*
G01X375689Y2372533D01*
G01X375083Y2372273D01*
G01X374650Y2372533D01*
G01X372572Y2374611D01*
G01X369108Y2377382D01*
G01X369108Y2378248D01*
G01X370147Y2378941D01*
G01X371359Y2379634D01*
G01X372745Y2380499D01*
G01X377421Y2383617D01*
G01X378633Y2384483D01*
G01X379499Y2385176D01*
G01X380365Y2385695D01*
G01X381231Y2386388D01*
G01X382443Y2387600D01*
G01X383829Y2388639D01*
G01X388158Y2392969D01*
G01X388851Y2393834D01*
G01X389890Y2395047D01*
G01X391102Y2396779D01*
G01X392141Y2398337D01*
G01X392834Y2399896D01*
G01X393007Y2400762D01*
G01X387119Y2400762D01*
G01X382746Y2400892D01*
G01X381404Y2401281D01*
G01X381751Y2409941D01*
G01X381766Y2410979D01*
G01X389890Y2410979D01*
G01X390063Y2407516D01*
G01X415174Y2407343D01*
G01X440113Y2407343D01*
G01X440113Y2414270D01*
G01X389890Y2414270D01*
G01X389890Y2410979D01*
G01X389890Y2410979D01*
G01X381766Y2410979D01*
G01X381924Y2421717D01*
G01X381880Y2424661D01*
G01X389890Y2424661D01*
G01X390063Y2421024D01*
G01X415174Y2420851D01*
G01X440113Y2420851D01*
G01X440113Y2428124D01*
G01X389890Y2428124D01*
G01X389890Y2424661D01*
G01X389890Y2424661D01*
G01X381880Y2424661D01*
G01X381751Y2433493D01*
G01X381534Y2433796D01*
G01X381231Y2433666D01*
G01X380365Y2432974D01*
G01X377767Y2430376D01*
G01X372918Y2426219D01*
G01X371186Y2424834D01*
G01X369108Y2423102D01*
G01X368069Y2422583D01*
G01X367463Y2422756D01*
G01X366164Y2424314D01*
G01X363566Y2426912D01*
G01X362354Y2427951D01*
G01X361748Y2428428D01*
G01X361661Y2428817D01*
G01X362701Y2429683D01*
G01X364086Y2430549D01*
G01X365298Y2431242D01*
G01X366684Y2432108D01*
G01X369108Y2433839D01*
G01X370321Y2434532D01*
G01X371186Y2435225D01*
G01X375343Y2438689D01*
G01X379672Y2443018D01*
G01X381058Y2444750D01*
G01X382270Y2445962D01*
G01X383656Y2447694D01*
G01X385734Y2450465D01*
G01X386946Y2452197D01*
G01X387812Y2453582D01*
G01X388504Y2454794D01*
G01X389371Y2456180D01*
G01X390236Y2457739D01*
G01X390713Y2458301D01*
G01X391449Y2458258D01*
G01X393873Y2456873D01*
G01X395605Y2456180D01*
G01X397164Y2455487D01*
G01X398722Y2454968D01*
G01X399285Y2454751D01*
G01X399242Y2454448D01*
G01X398549Y2453756D01*
G01X397683Y2453063D01*
G01X395951Y2450984D01*
G01X394739Y2449772D01*
G01X393873Y2448387D01*
G01X400108Y2447997D01*
G01X419158Y2447867D01*
G01X445135Y2448041D01*
G01X455526Y2448387D01*
G01X457084Y2448560D01*
G01X458124Y2448560D01*
G01X458124Y2440940D01*
G01X456738Y2440940D01*
G01X454833Y2441113D01*
G01X421756Y2441286D01*
G01X397250Y2441156D01*
G01X388851Y2440767D01*
G01X386426Y2438689D01*
G01X383829Y2436091D01*
G01X383136Y2435225D01*
G01X391232Y2434835D01*
G01X415867Y2434706D01*
G01X440546Y2434532D01*
G01X448772Y2434013D01*
G01X448599Y2432801D01*
G01X448426Y2418080D01*
G01X448599Y2403359D01*
G01X448772Y2401801D01*
G01X448772Y2400762D01*
G01X426085Y2400762D01*
G01X408940Y2400632D01*
G01X402879Y2400242D01*
G01X401839Y2398857D01*
G01X400974Y2397644D01*
G01X400281Y2396606D01*
G01X399415Y2395566D01*
G01X398722Y2394527D01*
G01X398549Y2393834D01*
G01X422794Y2393834D01*
G01X440849Y2393705D01*
G01X446521Y2393315D01*
G01X445481Y2391929D01*
G01X444442Y2390371D01*
G01X443576Y2389159D01*
G01X442537Y2387773D01*
G01X441671Y2386388D01*
G01X440979Y2385522D01*
G01X438901Y2383097D01*
G01X437515Y2381366D01*
G01X431454Y2375304D01*
G01X429722Y2373919D01*
G01X428856Y2373053D01*
G01X426258Y2370974D01*
G01X425219Y2370282D01*
G01X424786Y2369892D01*
G01X424873Y2369416D01*
G01X426085Y2368723D01*
G01X428163Y2368204D01*
G01X429895Y2367684D01*
G01X436129Y2366299D01*
G01X444442Y2364913D01*
G01X446867Y2364567D01*
G01X449638Y2364221D01*
G01X453101Y2363874D01*
G01X457951Y2363528D01*
G01X460721Y2363354D01*
G01X463839Y2363181D01*
G01X464704Y2363008D01*
G01X464185Y2362316D01*
G01X463319Y2360930D01*
G01X462626Y2359718D01*
G01X461934Y2358332D01*
G01X461241Y2356601D01*
G01X460548Y2355042D01*
G01X460072Y2354566D01*
G01X459336Y2354522D01*
G01X456911Y2354869D01*
G01X450677Y2355908D01*
G01X447906Y2356254D01*
G01X442191Y2357293D01*
G01X439593Y2357813D01*
G01X437515Y2358332D01*
G01X434051Y2359025D01*
G01X429202Y2360237D01*
G01X427471Y2360757D01*
G01X425912Y2361103D01*
G01X424180Y2361623D01*
G01X417946Y2363701D01*
G01X416560Y2364221D01*
G01X415001Y2364221D01*
G01X413443Y2363701D01*
G01X410672Y2362662D01*
G01X404437Y2360584D01*
G01X399242Y2359025D01*
G01X396991Y2358506D01*
G01X393527Y2357639D01*
G01X390063Y2356947D01*
G01X386253Y2356254D01*
G01X383829Y2355908D01*
G01X382097Y2355561D01*
G01X379326Y2355215D01*
G01X377248Y2354869D01*
G01X374131Y2354522D01*
G01X371706Y2354176D01*
G01X369801Y2354003D01*
G01X368675Y2354219D01*
G37*
G36*
G01X490595Y2354436D02*
G01X489469Y2354696D01*
G01X489643Y2356601D01*
G01X489816Y2358679D01*
G01X490162Y2366645D01*
G01X490336Y2392449D01*
G01X490206Y2411369D01*
G01X489816Y2417561D01*
G01X488950Y2416521D01*
G01X488257Y2415136D01*
G01X487564Y2413924D01*
G01X486699Y2412365D01*
G01X483581Y2407169D01*
G01X481849Y2404399D01*
G01X480984Y2403186D01*
G01X480291Y2401974D01*
G01X479598Y2401108D01*
G01X478906Y2401801D01*
G01X478039Y2403186D01*
G01X477001Y2404745D01*
G01X475269Y2407169D01*
G01X474229Y2408382D01*
G01X473710Y2409074D01*
G01X474056Y2409941D01*
G01X476134Y2412538D01*
G01X477001Y2413751D01*
G01X479079Y2416868D01*
G01X479944Y2418253D01*
G01X482716Y2423102D01*
G01X483408Y2424488D01*
G01X484101Y2425700D01*
G01X484794Y2427086D01*
G01X485486Y2428644D01*
G01X486872Y2431415D01*
G01X487911Y2433839D01*
G01X488604Y2435225D01*
G01X489296Y2436784D01*
G01X491374Y2441979D01*
G01X492760Y2445789D01*
G01X494665Y2451504D01*
G01X495531Y2454968D01*
G01X496570Y2458604D01*
G01X497263Y2458258D01*
G01X498475Y2457566D01*
G01X502631Y2455487D01*
G01X504536Y2454794D01*
G01X506614Y2454102D01*
G01X507307Y2453756D01*
G01X507307Y2453409D01*
G01X506614Y2452543D01*
G01X505922Y2451504D01*
G01X504536Y2448733D01*
G01X503844Y2447174D01*
G01X503151Y2445443D01*
G01X502631Y2444057D01*
G01X502112Y2442845D01*
G01X501592Y2441459D01*
G01X501073Y2439901D01*
G01X500034Y2437130D01*
G01X498994Y2434013D01*
G01X498648Y2399896D01*
G01X498821Y2365952D01*
G01X498994Y2360757D01*
G01X499168Y2355215D01*
G01X499341Y2354349D01*
G01X494319Y2354349D01*
G01X490595Y2354436D01*
G37*
G36*
G01X527873Y2376083D02*
G01X527569Y2376689D01*
G01X527050Y2378768D01*
G01X526531Y2380499D01*
G01X525838Y2383617D01*
G01X525491Y2385349D01*
G01X524972Y2387254D01*
G01X524452Y2388986D01*
G01X523933Y2391064D01*
G01X523413Y2392622D01*
G01X523067Y2394008D01*
G01X522547Y2395913D01*
G01X522028Y2397471D01*
G01X521681Y2398857D01*
G01X518564Y2408209D01*
G01X517525Y2410979D01*
G01X517006Y2412538D01*
G01X515447Y2416694D01*
G01X515577Y2417257D01*
G01X516313Y2417561D01*
G01X518391Y2418080D01*
G01X520469Y2418773D01*
G01X522201Y2419466D01*
G01X523586Y2419985D01*
G01X524149Y2419942D01*
G01X524452Y2419466D01*
G01X526011Y2415309D01*
G01X528089Y2409074D01*
G01X529128Y2405611D01*
G01X530167Y2402494D01*
G01X531206Y2399030D01*
G01X531726Y2397471D01*
G01X532246Y2395566D01*
G01X532765Y2394008D01*
G01X533111Y2392449D01*
G01X534151Y2388986D01*
G01X534670Y2386907D01*
G01X535189Y2385349D01*
G01X535536Y2383790D01*
G01X536056Y2381539D01*
G01X536575Y2379807D01*
G01X536532Y2379287D01*
G01X536056Y2378768D01*
G01X534497Y2378075D01*
G01X529821Y2376516D01*
G01X528436Y2375997D01*
G01X527873Y2376083D01*
G37*
G36*
G01X506268Y2362662D02*
G01X506268Y2366991D01*
G01X506398Y2370282D01*
G01X506788Y2371494D01*
G01X507827Y2371494D01*
G01X525318Y2371321D01*
G01X538134Y2371451D01*
G01X542636Y2371841D01*
G01X543156Y2373226D01*
G01X543676Y2375131D01*
G01X544195Y2376689D01*
G01X544541Y2378421D01*
G01X545061Y2380326D01*
G01X545581Y2382058D01*
G01X546273Y2385176D01*
G01X546793Y2387427D01*
G01X547659Y2390891D01*
G01X548351Y2394008D01*
G01X548698Y2395913D01*
G01X549217Y2398511D01*
G01X549737Y2400589D01*
G01X550776Y2405784D01*
G01X551122Y2407862D01*
G01X551469Y2409594D01*
G01X552161Y2413404D01*
G01X552508Y2415136D01*
G01X553547Y2421371D01*
G01X554066Y2422236D01*
G01X555279Y2422063D01*
G01X556664Y2421717D01*
G01X558396Y2421371D01*
G01X560821Y2420851D01*
G01X562899Y2420331D01*
G01X564631Y2419985D01*
G01X565237Y2419769D01*
G01X565323Y2419466D01*
G01X564804Y2418253D01*
G01X564111Y2416694D01*
G01X563072Y2413924D01*
G01X560994Y2406996D01*
G01X559954Y2403186D01*
G01X559435Y2401454D01*
G01X558916Y2399203D01*
G01X558223Y2396779D01*
G01X557703Y2395047D01*
G01X557357Y2393488D01*
G01X556837Y2391237D01*
G01X556318Y2389505D01*
G01X555971Y2387773D01*
G01X555452Y2385868D01*
G01X554932Y2384136D01*
G01X554413Y2381885D01*
G01X553893Y2380153D01*
G01X553547Y2378421D01*
G01X553027Y2375997D01*
G01X552508Y2374265D01*
G01X552161Y2372533D01*
G01X551988Y2371321D01*
G01X564111Y2371321D01*
G01X576753Y2371494D01*
G01X577966Y2371667D01*
G01X578485Y2370542D01*
G01X578658Y2367164D01*
G01X578572Y2363831D01*
G01X578312Y2362835D01*
G01X573463Y2363008D01*
G01X568441Y2363181D01*
G01X544714Y2363354D01*
G01X520989Y2363181D01*
G01X514581Y2363008D01*
G01X507481Y2362835D01*
G01X506268Y2362662D01*
G37*
G36*
G01X510424Y2429856D02*
G01X510424Y2438169D01*
G01X511464Y2438169D01*
G01X513022Y2437996D01*
G01X542983Y2437823D01*
G01X572943Y2437996D01*
G01X574502Y2438169D01*
G01X575541Y2438169D01*
G01X575541Y2429856D01*
G01X574329Y2429856D01*
G01X572597Y2430029D01*
G01X544022Y2430203D01*
G01X515447Y2430029D01*
G01X512676Y2429856D01*
G01X510424Y2429856D01*
G37*
G36*
G01X539519Y2439035D02*
G01X538653Y2439208D01*
G01X538134Y2440421D01*
G01X537441Y2442152D01*
G01X535363Y2446309D01*
G01X534670Y2447521D01*
G01X533804Y2449079D01*
G01X532072Y2451851D01*
G01X531033Y2453409D01*
G01X530773Y2454015D01*
G01X531033Y2454448D01*
G01X532072Y2455141D01*
G01X533284Y2455661D01*
G01X534843Y2456353D01*
G01X536575Y2457392D01*
G01X537961Y2458258D01*
G01X538999Y2458258D01*
G01X539866Y2457219D01*
G01X542636Y2452370D01*
G01X543502Y2450811D01*
G01X544368Y2449426D01*
G01X545061Y2448214D01*
G01X545754Y2447174D01*
G01X547832Y2443538D01*
G01X547918Y2442845D01*
G01X547486Y2442499D01*
G01X546273Y2441979D01*
G01X543502Y2440940D01*
G01X540731Y2439554D01*
G01X539519Y2439035D01*
G37*
G36*
G01X598228Y2355215D02*
G01X597362Y2355388D01*
G01X597189Y2356254D01*
G01X596842Y2357813D01*
G01X596323Y2359544D01*
G01X595630Y2361103D01*
G01X594937Y2362489D01*
G01X594071Y2363874D01*
G01X593812Y2364567D01*
G01X594071Y2364913D01*
G01X595111Y2364913D01*
G01X597362Y2364740D01*
G01X599613Y2364913D01*
G01X600826Y2365086D01*
G01X602384Y2365259D01*
G01X603769Y2365779D01*
G01X604809Y2366991D01*
G01X605198Y2370974D01*
G01X605328Y2381192D01*
G01X605198Y2391237D01*
G01X604809Y2394701D01*
G01X603769Y2394527D01*
G01X600999Y2393142D01*
G01X598574Y2392103D01*
G01X596149Y2390717D01*
G01X593379Y2389332D01*
G01X592339Y2388986D01*
G01X591907Y2389159D01*
G01X591647Y2389678D01*
G01X591127Y2390891D01*
G01X589742Y2394008D01*
G01X588876Y2395393D01*
G01X588010Y2396606D01*
G01X588010Y2397125D01*
G01X588876Y2397471D01*
G01X590608Y2397818D01*
G01X592513Y2398337D01*
G01X595630Y2399376D01*
G01X597362Y2400069D01*
G01X599267Y2400762D01*
G01X600826Y2401454D01*
G01X602211Y2401974D01*
G01X604636Y2403013D01*
G01X605155Y2406260D01*
G01X605328Y2415656D01*
G01X605198Y2424964D01*
G01X604809Y2427951D01*
G01X591301Y2427605D01*
G01X590088Y2427432D01*
G01X589569Y2428384D01*
G01X589396Y2431242D01*
G01X589396Y2435052D01*
G01X590261Y2435052D01*
G01X591647Y2434879D01*
G01X598747Y2434706D01*
G01X605328Y2434706D01*
G01X605328Y2444577D01*
G01X605155Y2454968D01*
G01X604982Y2456180D01*
G01X605978Y2456699D01*
G01X608965Y2456873D01*
G01X613468Y2456699D01*
G01X613814Y2456440D01*
G01X613814Y2456007D01*
G01X613641Y2445096D01*
G01X613641Y2434706D01*
G01X616758Y2434706D01*
G01X620395Y2434879D01*
G01X621954Y2435052D01*
G01X622993Y2435052D01*
G01X622993Y2431242D01*
G01X622863Y2428428D01*
G01X622473Y2427605D01*
G01X619009Y2427778D01*
G01X614853Y2427951D01*
G01X613641Y2428124D01*
G01X613641Y2406304D01*
G01X614507Y2406650D01*
G01X620049Y2409421D01*
G01X621781Y2410460D01*
G01X622993Y2411153D01*
G01X623686Y2410114D01*
G01X624205Y2408555D01*
G01X624551Y2407169D01*
G01X625071Y2405611D01*
G01X625244Y2404572D01*
G01X624551Y2403879D01*
G01X621434Y2402494D01*
G01X614507Y2399030D01*
G01X613641Y2398684D01*
G01X613641Y2382231D01*
G01X613468Y2364913D01*
G01X613121Y2362835D01*
G01X612429Y2360757D01*
G01X611563Y2359544D01*
G01X610870Y2358852D01*
G01X609658Y2358159D01*
G01X608099Y2357466D01*
G01X606541Y2356947D01*
G01X602384Y2355908D01*
G01X598228Y2355215D01*
G37*
G36*
G01X626629Y2354999D02*
G01X626110Y2355561D01*
G01X625417Y2356947D01*
G01X624724Y2358159D01*
G01X622993Y2360930D01*
G01X622127Y2361969D01*
G01X621434Y2362835D01*
G01X621477Y2363225D01*
G01X621954Y2363354D01*
G01X624378Y2363701D01*
G01X625937Y2363874D01*
G01X631132Y2364913D01*
G01X633211Y2365433D01*
G01X635635Y2366126D01*
G01X637886Y2366818D01*
G01X639964Y2367511D01*
G01X645160Y2369589D01*
G01X646719Y2370282D01*
G01X649489Y2371667D01*
G01X651048Y2372533D01*
G01X652434Y2373399D01*
G01X653473Y2374265D01*
G01X653603Y2374741D01*
G01X653299Y2375131D01*
G01X652261Y2375824D01*
G01X649836Y2377209D01*
G01X642909Y2380673D01*
G01X641177Y2381366D01*
G01X638406Y2382751D01*
G01X636674Y2383444D01*
G01X635116Y2384136D01*
G01X633730Y2384656D01*
G01X633037Y2385176D01*
G01X633557Y2386214D01*
G01X634596Y2387773D01*
G01X634700Y2387946D01*
G01X643601Y2387946D01*
G01X644294Y2387254D01*
G01X646719Y2386214D01*
G01X648104Y2385522D01*
G01X651221Y2384136D01*
G01X652953Y2383444D01*
G01X654339Y2382751D01*
G01X657456Y2381366D01*
G01X658841Y2380846D01*
G01X658841Y2380846D01*
G01X660054Y2380499D01*
G01X660746Y2380673D01*
G01X661786Y2381885D01*
G01X662998Y2383617D01*
G01X663864Y2385002D01*
G01X665249Y2387427D01*
G01X667327Y2391583D01*
G01X668020Y2393315D01*
G01X668713Y2394874D01*
G01X670791Y2400416D01*
G01X671311Y2401974D01*
G01X671484Y2402840D01*
G01X662305Y2402840D01*
G01X652261Y2402667D01*
G01X651524Y2402321D01*
G01X651048Y2401628D01*
G01X649663Y2399203D01*
G01X646199Y2392969D01*
G01X644814Y2390544D01*
G01X643948Y2388986D01*
G01X643601Y2387946D01*
G01X634700Y2387946D01*
G01X635635Y2389505D01*
G01X636501Y2390891D01*
G01X637194Y2392103D01*
G01X637886Y2393142D01*
G01X639964Y2396779D01*
G01X642043Y2400935D01*
G01X642562Y2402147D01*
G01X642736Y2402840D01*
G01X637367Y2402840D01*
G01X631479Y2402667D01*
G01X629574Y2402494D01*
G01X628188Y2402494D01*
G01X628188Y2410114D01*
G01X629054Y2410114D01*
G01X630439Y2409941D01*
G01X638752Y2409594D01*
G01X642389Y2409421D01*
G01X645679Y2409767D01*
G01X646199Y2410633D01*
G01X646892Y2412192D01*
G01X647584Y2413924D01*
G01X648624Y2416694D01*
G01X649316Y2418426D01*
G01X651221Y2424141D01*
G01X651568Y2425527D01*
G01X652087Y2427086D01*
G01X652607Y2428817D01*
G01X652867Y2429510D01*
G01X653299Y2429510D01*
G01X654685Y2428817D01*
G01X656244Y2428124D01*
G01X657976Y2427432D01*
G01X659534Y2426912D01*
G01X661093Y2426566D01*
G01X661872Y2426306D01*
G01X662132Y2425873D01*
G01X661786Y2425007D01*
G01X659707Y2421371D01*
G01X659014Y2419985D01*
G01X657629Y2416868D01*
G01X654858Y2411326D01*
G01X654339Y2410114D01*
G01X654166Y2409421D01*
G01X667154Y2409421D01*
G01X680662Y2409594D01*
G01X689668Y2409941D01*
G01X691399Y2410114D01*
G01X692612Y2410114D01*
G01X692612Y2402494D01*
G01X691746Y2402494D01*
G01X690361Y2402667D01*
G01X685858Y2402840D01*
G01X681009Y2402667D01*
G01X680316Y2402364D01*
G01X679969Y2401801D01*
G01X679450Y2400416D01*
G01X676679Y2393488D01*
G01X676159Y2392103D01*
G01X675640Y2390891D01*
G01X672696Y2385002D01*
G01X671830Y2383617D01*
G01X671137Y2382404D01*
G01X668539Y2378248D01*
G01X667847Y2377036D01*
G01X667890Y2376560D01*
G01X668366Y2376170D01*
G01X669925Y2375304D01*
G01X671311Y2374438D01*
G01X674428Y2372879D01*
G01X675813Y2372014D01*
G01X677199Y2371321D01*
G01X679623Y2369936D01*
G01X681009Y2369243D01*
G01X682221Y2368550D01*
G01X683260Y2367857D01*
G01X684472Y2367164D01*
G01X686204Y2366299D01*
G01X687589Y2365433D01*
G01X688802Y2364740D01*
G01X690361Y2363874D01*
G01X691226Y2363008D01*
G01X690707Y2362316D01*
G01X687936Y2358852D01*
G01X686897Y2357639D01*
G01X685858Y2355908D01*
G01X685338Y2355388D01*
G01X684819Y2355561D01*
G01X683779Y2356427D01*
G01X681355Y2358159D01*
G01X680489Y2358852D01*
G01X679277Y2359718D01*
G01X677718Y2360757D01*
G01X675294Y2362489D01*
G01X673735Y2363528D01*
G01X672349Y2364394D01*
G01X670271Y2365779D01*
G01X669059Y2366472D01*
G01X666288Y2368204D01*
G01X664729Y2369069D01*
G01X663344Y2369936D01*
G01X662132Y2370455D01*
G01X661093Y2370282D01*
G01X660227Y2369589D01*
G01X658841Y2368550D01*
G01X657109Y2367338D01*
G01X655724Y2366472D01*
G01X650875Y2363701D01*
G01X646719Y2361623D01*
G01X644987Y2360930D01*
G01X643428Y2360237D01*
G01X640657Y2359198D01*
G01X631306Y2356081D01*
G01X629574Y2355561D01*
G01X627496Y2355042D01*
G01X626629Y2354999D01*
G37*
G36*
G01X631046Y2420591D02*
G01X630093Y2420851D01*
G01X630266Y2424488D01*
G01X630439Y2428298D01*
G01X630613Y2429683D01*
G01X630439Y2431069D01*
G01X630266Y2434879D01*
G01X630093Y2439728D01*
G01X629920Y2441286D01*
G01X659707Y2441286D01*
G01X682004Y2441156D01*
G01X689321Y2440767D01*
G01X688975Y2432801D01*
G01X688802Y2430896D01*
G01X688975Y2428991D01*
G01X689148Y2425873D01*
G01X689321Y2422063D01*
G01X689494Y2420851D01*
G01X680836Y2420851D01*
G01X680836Y2434706D01*
G01X638579Y2434706D01*
G01X638579Y2420504D01*
G01X634249Y2420504D01*
G01X631046Y2420591D01*
G37*
G36*
G01X657326Y2442196D02*
G01X656936Y2442672D01*
G01X656244Y2443884D01*
G01X655724Y2445096D01*
G01X655204Y2446136D01*
G01X654512Y2447348D01*
G01X653819Y2448733D01*
G01X653126Y2449946D01*
G01X652261Y2451331D01*
G01X651221Y2452889D01*
G01X650356Y2454102D01*
G01X650009Y2454968D01*
G01X650875Y2456007D01*
G01X653299Y2457739D01*
G01X654858Y2458778D01*
G01X656244Y2459644D01*
G01X656893Y2459687D01*
G01X657456Y2459124D01*
G01X659534Y2456007D01*
G01X660573Y2454275D01*
G01X661439Y2452889D01*
G01X664210Y2448041D01*
G01X664903Y2446655D01*
G01X664989Y2445919D01*
G01X664556Y2445443D01*
G01X662998Y2444750D01*
G01X657802Y2442152D01*
G01X657326Y2442196D01*
G37*
G36*
G01X707159Y2422799D02*
G01X706813Y2422929D01*
G01X705774Y2424141D01*
G01X704734Y2425527D01*
G01X702137Y2428124D01*
G01X701834Y2428558D01*
G01X701964Y2429164D01*
G01X702829Y2430203D01*
G01X705427Y2432801D01*
G01X706120Y2433666D01*
G01X706986Y2434879D01*
G01X709064Y2437996D01*
G01X709930Y2439381D01*
G01X710623Y2440594D01*
G01X711316Y2441633D01*
G01X712008Y2442845D01*
G01X714779Y2448387D01*
G01X715472Y2449946D01*
G01X715991Y2451331D01*
G01X717031Y2453756D01*
G01X718589Y2457912D01*
G01X719065Y2458345D01*
G01X719801Y2458258D01*
G01X721187Y2457566D01*
G01X725863Y2455487D01*
G01X727248Y2454794D01*
G01X727378Y2454318D01*
G01X727075Y2453582D01*
G01X726209Y2452197D01*
G01X725516Y2450984D01*
G01X724824Y2449946D01*
G01X724131Y2448733D01*
G01X722399Y2445616D01*
G01X721706Y2444404D01*
G01X721187Y2443191D01*
G01X721014Y2442326D01*
G01X725689Y2442326D01*
G01X730885Y2442499D01*
G01X732790Y2442672D01*
G01X734176Y2442672D01*
G01X734176Y2434706D01*
G01X731924Y2434706D01*
G01X729153Y2434879D01*
G01X722746Y2435052D01*
G01X716511Y2434706D01*
G01X715818Y2434013D01*
G01X712354Y2429164D01*
G01X709584Y2425700D01*
G01X709064Y2424834D01*
G01X708371Y2423968D01*
G01X707506Y2423102D01*
G01X707159Y2422799D01*
G37*
G36*
G01X718243Y2359458D02*
G01X717723Y2359891D01*
G01X716857Y2360930D01*
G01X716164Y2361796D01*
G01X712701Y2365259D01*
G01X712571Y2365822D01*
G01X712874Y2366472D01*
G01X713740Y2367684D01*
G01X714433Y2368550D01*
G01X715126Y2369762D01*
G01X715818Y2371321D01*
G01X716164Y2383444D01*
G01X716164Y2394874D01*
G01X713913Y2394874D01*
G01X711142Y2394701D01*
G01X708544Y2394527D01*
G01X706466Y2394527D01*
G01X706466Y2398337D01*
G01X706596Y2401151D01*
G01X706986Y2401974D01*
G01X713221Y2401628D01*
G01X714952Y2401454D01*
G01X716164Y2401454D01*
G01X716164Y2408728D01*
G01X715991Y2414183D01*
G01X715472Y2416002D01*
G01X714259Y2415829D01*
G01X712354Y2415656D01*
G01X710969Y2415656D01*
G01X710969Y2422929D01*
G01X712354Y2422929D01*
G01X714259Y2422756D01*
G01X721187Y2422583D01*
G01X728114Y2422756D01*
G01X731924Y2423102D01*
G01X733656Y2423276D01*
G01X734868Y2423276D01*
G01X734868Y2416002D01*
G01X732963Y2416002D01*
G01X730539Y2416175D01*
G01X726729Y2416348D01*
G01X723438Y2416348D01*
G01X723438Y2402147D01*
G01X726902Y2402147D01*
G01X730885Y2402321D01*
G01X732444Y2402494D01*
G01X733483Y2402494D01*
G01X733483Y2398684D01*
G01X733309Y2395826D01*
G01X732790Y2394874D01*
G01X731578Y2395047D01*
G01X727248Y2395220D01*
G01X723438Y2395220D01*
G01X723438Y2385695D01*
G01X723568Y2378508D01*
G01X723958Y2375997D01*
G01X724434Y2375997D01*
G01X724824Y2376343D01*
G01X725689Y2377209D01*
G01X727421Y2378594D01*
G01X732271Y2383444D01*
G01X732963Y2382578D01*
G01X734002Y2381019D01*
G01X735214Y2379461D01*
G01X736254Y2378075D01*
G01X737119Y2377209D01*
G01X737336Y2376776D01*
G01X736946Y2376170D01*
G01X735734Y2375131D01*
G01X734868Y2374438D01*
G01X734002Y2373919D01*
G01X733136Y2373226D01*
G01X728287Y2369069D01*
G01X725689Y2366472D01*
G01X723958Y2365086D01*
G01X721360Y2362489D01*
G01X720667Y2361623D01*
G01X719801Y2360584D01*
G01X718762Y2359544D01*
G01X718243Y2359458D01*
G37*
G36*
G01X738072Y2354999D02*
G01X737466Y2355215D01*
G01X736600Y2356254D01*
G01X735388Y2357466D01*
G01X733829Y2358679D01*
G01X731924Y2360584D01*
G01X731664Y2360930D01*
G01X731924Y2361276D01*
G01X732790Y2361969D01*
G01X735214Y2363701D01*
G01X737812Y2365779D01*
G01X739024Y2366991D01*
G01X740064Y2368377D01*
G01X740929Y2369243D01*
G01X741969Y2370455D01*
G01X743181Y2372187D01*
G01X744047Y2373572D01*
G01X743874Y2374611D01*
G01X742488Y2377036D01*
G01X741103Y2379807D01*
G01X740410Y2381366D01*
G01X739717Y2383097D01*
G01X739198Y2384656D01*
G01X738678Y2386041D01*
G01X738159Y2387600D01*
G01X737639Y2389851D01*
G01X737119Y2391583D01*
G01X736427Y2395047D01*
G01X736427Y2395913D01*
G01X737812Y2396606D01*
G01X741276Y2397471D01*
G01X742834Y2397818D01*
G01X743874Y2397991D01*
G01X744393Y2394354D01*
G01X745086Y2390891D01*
G01X745606Y2388466D01*
G01X746125Y2386734D01*
G01X746471Y2385349D01*
G01X746991Y2383790D01*
G01X747337Y2383097D01*
G01X747684Y2383963D01*
G01X748203Y2386041D01*
G01X748549Y2387773D01*
G01X749589Y2395047D01*
G01X749935Y2398857D01*
G01X750281Y2403013D01*
G01X750454Y2406131D01*
G01X750454Y2408728D01*
G01X749242Y2408728D01*
G01X744047Y2408209D01*
G01X742488Y2407862D01*
G01X740756Y2407343D01*
G01X739371Y2406823D01*
G01X738765Y2406823D01*
G01X738332Y2407169D01*
G01X737639Y2408382D01*
G01X736254Y2411499D01*
G01X735734Y2412884D01*
G01X735777Y2413534D01*
G01X736254Y2414097D01*
G01X737293Y2414963D01*
G01X738159Y2415656D01*
G01X739024Y2416694D01*
G01X739891Y2418080D01*
G01X740756Y2419639D01*
G01X741449Y2421024D01*
G01X741969Y2422236D01*
G01X743527Y2426393D01*
G01X744047Y2427951D01*
G01X744566Y2429856D01*
G01X745779Y2433493D01*
G01X746125Y2435052D01*
G01X746644Y2437303D01*
G01X747164Y2439035D01*
G01X747337Y2440247D01*
G01X746774Y2440767D01*
G01X745086Y2440940D01*
G01X742315Y2440767D01*
G01X739024Y2440594D01*
G01X736254Y2440594D01*
G01X736254Y2444577D01*
G01X736384Y2447521D01*
G01X736773Y2448387D01*
G01X743008Y2448041D01*
G01X750281Y2447867D01*
G01X757036Y2447521D01*
G01X756689Y2446136D01*
G01X756169Y2444577D01*
G01X755823Y2443018D01*
G01X754264Y2437823D01*
G01X753226Y2434706D01*
G01X752186Y2431242D01*
G01X751147Y2428124D01*
G01X748030Y2417734D01*
G01X747684Y2416175D01*
G01X747684Y2415309D01*
G01X758421Y2415309D01*
G01X758421Y2414097D01*
G01X757555Y2405438D01*
G01X757209Y2401628D01*
G01X757036Y2400069D01*
G01X756862Y2397818D01*
G01X756169Y2392276D01*
G01X755823Y2390198D01*
G01X755477Y2388466D01*
G01X755131Y2386388D01*
G01X754611Y2383963D01*
G01X754091Y2382231D01*
G01X753745Y2380499D01*
G01X753226Y2378594D01*
G01X752706Y2376863D01*
G01X752706Y2375304D01*
G01X753226Y2374438D01*
G01X754957Y2373053D01*
G01X756169Y2372187D01*
G01X757901Y2370974D01*
G01X759633Y2369936D01*
G01X761019Y2369243D01*
G01X762404Y2368723D01*
G01X765521Y2367684D01*
G01X767426Y2367164D01*
G01X768985Y2366645D01*
G01X773661Y2365606D01*
G01X774700Y2365433D01*
G01X774700Y2372014D01*
G01X774570Y2376906D01*
G01X774181Y2378421D01*
G01X762751Y2378075D01*
G01X760846Y2377902D01*
G01X759460Y2377902D01*
G01X759460Y2385522D01*
G01X760846Y2385522D01*
G01X762751Y2385349D01*
G01X768985Y2385176D01*
G01X774700Y2385176D01*
G01X774700Y2394527D01*
G01X771929Y2394527D01*
G01X768639Y2394354D01*
G01X765002Y2394181D01*
G01X761884Y2394181D01*
G01X761884Y2401454D01*
G01X764482Y2401454D01*
G01X767599Y2401281D01*
G01X771409Y2401108D01*
G01X774700Y2401108D01*
G01X774700Y2405438D01*
G01X774613Y2408642D01*
G01X774354Y2409594D01*
G01X771236Y2409421D01*
G01X767946Y2409248D01*
G01X766734Y2409074D01*
G01X764829Y2408901D01*
G01X763616Y2408728D01*
G01X763616Y2416694D01*
G01X765002Y2416694D01*
G01X766907Y2416521D01*
G01X771063Y2416348D01*
G01X774700Y2416348D01*
G01X774700Y2421371D01*
G01X782320Y2421371D01*
G01X782493Y2416521D01*
G01X787342Y2416348D01*
G01X792018Y2416348D01*
G01X792018Y2426046D01*
G01X782320Y2426046D01*
G01X782320Y2421371D01*
G01X782320Y2421371D01*
G01X774700Y2421371D01*
G01X774700Y2426046D01*
G01X767599Y2426046D01*
G01X759979Y2425873D01*
G01X758767Y2425700D01*
G01X758248Y2426523D01*
G01X758074Y2428991D01*
G01X758248Y2432801D01*
G01X758508Y2433147D01*
G01X758941Y2433147D01*
G01X767080Y2432974D01*
G01X774700Y2432974D01*
G01X774700Y2437476D01*
G01X774696Y2437649D01*
G01X782320Y2437649D01*
G01X782493Y2433147D01*
G01X787342Y2432974D01*
G01X792018Y2432974D01*
G01X792018Y2441979D01*
G01X782320Y2441979D01*
G01X782320Y2437649D01*
G01X782320Y2437649D01*
G01X774696Y2437649D01*
G01X774613Y2440810D01*
G01X774354Y2441806D01*
G01X769678Y2441633D01*
G01X764829Y2441459D01*
G01X763616Y2441459D01*
G01X763097Y2442499D01*
G01X762924Y2445269D01*
G01X762924Y2448906D01*
G01X763789Y2448906D01*
G01X765175Y2448733D01*
G01X770371Y2448560D01*
G01X775046Y2448560D01*
G01X775046Y2452197D01*
G01X774873Y2456353D01*
G01X774700Y2457739D01*
G01X774700Y2458604D01*
G01X778510Y2458604D01*
G01X782493Y2458258D01*
G01X782493Y2457392D01*
G01X782320Y2452716D01*
G01X782320Y2448560D01*
G01X800331Y2448560D01*
G01X800331Y2447694D01*
G01X800158Y2446309D01*
G01X799811Y2441459D01*
G01X799638Y2436957D01*
G01X799638Y2432974D01*
G01X801889Y2432974D01*
G01X804661Y2433147D01*
G01X806046Y2433320D01*
G01X806912Y2433320D01*
G01X806912Y2425354D01*
G01X806046Y2425354D01*
G01X804661Y2425527D01*
G01X801889Y2425700D01*
G01X799638Y2425700D01*
G01X799638Y2420504D01*
G01X799811Y2414789D01*
G01X799984Y2412019D01*
G01X799984Y2409767D01*
G01X782320Y2409767D01*
G01X782320Y2401108D01*
G01X788381Y2401108D01*
G01X794962Y2401281D01*
G01X797387Y2401454D01*
G01X799292Y2401454D01*
G01X799292Y2397818D01*
G01X799119Y2395090D01*
G01X798599Y2394181D01*
G01X797387Y2394354D01*
G01X789594Y2394527D01*
G01X782320Y2394527D01*
G01X782320Y2385176D01*
G01X789421Y2385176D01*
G01X797041Y2385349D01*
G01X799984Y2385522D01*
G01X802409Y2385522D01*
G01X802409Y2382231D01*
G01X802236Y2378421D01*
G01X801976Y2378075D01*
G01X801543Y2378075D01*
G01X794962Y2378421D01*
G01X788381Y2378594D01*
G01X782320Y2378594D01*
G01X782320Y2372014D01*
G01X782450Y2366991D01*
G01X782839Y2365086D01*
G01X790806Y2364740D01*
G01X798772Y2364913D01*
G01X802236Y2365259D01*
G01X806912Y2365779D01*
G01X807648Y2365693D01*
G01X807778Y2365433D01*
G01X807258Y2364221D01*
G01X806566Y2362316D01*
G01X806046Y2360757D01*
G01X805699Y2359025D01*
G01X805180Y2357293D01*
G01X803232Y2356904D01*
G01X798079Y2356774D01*
G01X790806Y2356947D01*
G01X784571Y2357293D01*
G01X783013Y2357466D01*
G01X780415Y2357639D01*
G01X777298Y2357986D01*
G01X772449Y2358679D01*
G01X770371Y2359025D01*
G01X768812Y2359371D01*
G01X766907Y2359718D01*
G01X765521Y2360064D01*
G01X763963Y2360411D01*
G01X762404Y2360930D01*
G01X759633Y2361969D01*
G01X757209Y2363354D01*
G01X755823Y2364221D01*
G01X754611Y2365086D01*
G01X753745Y2365606D01*
G01X752879Y2366299D01*
G01X750454Y2368377D01*
G01X750065Y2368680D01*
G01X749589Y2368550D01*
G01X748723Y2367511D01*
G01X747857Y2366126D01*
G01X746818Y2364567D01*
G01X745952Y2363354D01*
G01X745259Y2362316D01*
G01X742661Y2359198D01*
G01X738851Y2355388D01*
G01X738072Y2354999D01*
G37*
G01X5913120Y4475734D02*
G01X5913120Y4410710D01*
G01X5913120Y4475734D02*
G01X5941060Y4475734D01*
G01X5950204Y4472686D01*
G01X5953252Y4469638D01*
G01X5956554Y4463288D01*
G01X5956554Y4457192D01*
G01X5953252Y4451096D01*
G01X5950204Y4448048D01*
G01X5941060Y4444746D01*
G01X5913120Y4444746D02*
G01X5941060Y4444746D01*
G01X5950204Y4441698D01*
G01X5953252Y4438650D01*
G01X5956554Y4432554D01*
G01X5956554Y4423156D01*
G01X5953252Y4417060D01*
G01X5950204Y4413758D01*
G01X5941060Y4410710D01*
G01X5913120Y4410710D01*
G01X6005322Y4475734D02*
G01X5998972Y4472686D01*
G01X5992876Y4466590D01*
G01X5989828Y4460240D01*
G01X5986780Y4451096D01*
G01X5986780Y4435602D01*
G01X5989828Y4426204D01*
G01X5992876Y4420108D01*
G01X5998972Y4413758D01*
G01X6005322Y4410710D01*
G01X6017514Y4410710D01*
G01X6023864Y4413758D01*
G01X6029960Y4420108D01*
G01X6033008Y4426204D01*
G01X6036310Y4435602D01*
G01X6036310Y4451096D01*
G01X6033008Y4460240D01*
G01X6029960Y4466590D01*
G01X6023864Y4472686D01*
G01X6017514Y4475734D01*
G01X6005322Y4475734D01*
G01X6085078Y4475734D02*
G01X6078728Y4472686D01*
G01X6072632Y4466590D01*
G01X6069584Y4460240D01*
G01X6066536Y4451096D01*
G01X6066536Y4435602D01*
G01X6069584Y4426204D01*
G01X6072632Y4420108D01*
G01X6078728Y4413758D01*
G01X6085078Y4410710D01*
G01X6097270Y4410710D01*
G01X6103620Y4413758D01*
G01X6109716Y4420108D01*
G01X6112764Y4426204D01*
G01X6116066Y4435602D01*
G01X6116066Y4451096D01*
G01X6112764Y4460240D01*
G01X6109716Y4466590D01*
G01X6103620Y4472686D01*
G01X6097270Y4475734D01*
G01X6085078Y4475734D01*
G01X6167882Y4475734D02*
G01X6167882Y4410710D01*
G01X6146292Y4475734D02*
G01X6189472Y4475734D01*
G01X6238240Y4475734D02*
G01X6228842Y4472686D01*
G01X6222746Y4463288D01*
G01X6219698Y4448048D01*
G01X6219698Y4438650D01*
G01X6222746Y4423156D01*
G01X6228842Y4413758D01*
G01X6238240Y4410710D01*
G01X6244336Y4410710D01*
G01X6253734Y4413758D01*
G01X6259830Y4423156D01*
G01X6262878Y4438650D01*
G01X6262878Y4448048D01*
G01X6259830Y4463288D01*
G01X6253734Y4472686D01*
G01X6244336Y4475734D01*
G01X6238240Y4475734D01*
G01X5913120Y4221734D02*
G01X5913120Y4156710D01*
G01X5913120Y4221734D02*
G01X5941060Y4221734D01*
G01X5950204Y4218686D01*
G01X5953252Y4215638D01*
G01X5956554Y4209288D01*
G01X5956554Y4203192D01*
G01X5953252Y4197096D01*
G01X5950204Y4194048D01*
G01X5941060Y4190746D01*
G01X5913120Y4190746D02*
G01X5941060Y4190746D01*
G01X5950204Y4187698D01*
G01X5953252Y4184650D01*
G01X5956554Y4178554D01*
G01X5956554Y4169156D01*
G01X5953252Y4163060D01*
G01X5950204Y4159758D01*
G01X5941060Y4156710D01*
G01X5913120Y4156710D01*
G01X6005322Y4221734D02*
G01X5998972Y4218686D01*
G01X5992876Y4212590D01*
G01X5989828Y4206240D01*
G01X5986780Y4197096D01*
G01X5986780Y4181602D01*
G01X5989828Y4172204D01*
G01X5992876Y4166108D01*
G01X5998972Y4159758D01*
G01X6005322Y4156710D01*
G01X6017514Y4156710D01*
G01X6023864Y4159758D01*
G01X6029960Y4166108D01*
G01X6033008Y4172204D01*
G01X6036310Y4181602D01*
G01X6036310Y4197096D01*
G01X6033008Y4206240D01*
G01X6029960Y4212590D01*
G01X6023864Y4218686D01*
G01X6017514Y4221734D01*
G01X6005322Y4221734D01*
G01X6085078Y4221734D02*
G01X6078728Y4218686D01*
G01X6072632Y4212590D01*
G01X6069584Y4206240D01*
G01X6066536Y4197096D01*
G01X6066536Y4181602D01*
G01X6069584Y4172204D01*
G01X6072632Y4166108D01*
G01X6078728Y4159758D01*
G01X6085078Y4156710D01*
G01X6097270Y4156710D01*
G01X6103620Y4159758D01*
G01X6109716Y4166108D01*
G01X6112764Y4172204D01*
G01X6116066Y4181602D01*
G01X6116066Y4197096D01*
G01X6112764Y4206240D01*
G01X6109716Y4212590D01*
G01X6103620Y4218686D01*
G01X6097270Y4221734D01*
G01X6085078Y4221734D01*
G01X6167882Y4221734D02*
G01X6167882Y4156710D01*
G01X6146292Y4221734D02*
G01X6189472Y4221734D01*
G01X6219698Y4209288D02*
G01X6225794Y4212590D01*
G01X6234938Y4221734D01*
G01X6234938Y4156710D01*
G01X5087620Y2189734D02*
G01X5087620Y2124710D01*
G01X5087620Y2189734D02*
G01X5115560Y2189734D01*
G01X5124704Y2186686D01*
G01X5127752Y2183638D01*
G01X5131054Y2177288D01*
G01X5131054Y2168144D01*
G01X5127752Y2162048D01*
G01X5124704Y2158746D01*
G01X5115560Y2155698D01*
G01X5087620Y2155698D01*
G01X5179822Y2189734D02*
G01X5173472Y2186686D01*
G01X5167376Y2180590D01*
G01X5164328Y2174240D01*
G01X5161280Y2165096D01*
G01X5161280Y2149602D01*
G01X5164328Y2140204D01*
G01X5167376Y2134108D01*
G01X5173472Y2127758D01*
G01X5179822Y2124710D01*
G01X5192014Y2124710D01*
G01X5198364Y2127758D01*
G01X5204460Y2134108D01*
G01X5207508Y2140204D01*
G01X5210810Y2149602D01*
G01X5210810Y2165096D01*
G01X5207508Y2174240D01*
G01X5204460Y2180590D01*
G01X5198364Y2186686D01*
G01X5192014Y2189734D01*
G01X5179822Y2189734D01*
G01X5241036Y2189734D02*
G01X5256276Y2124710D01*
G01X5271770Y2189734D02*
G01X5256276Y2124710D01*
G01X5271770Y2189734D02*
G01X5287264Y2124710D01*
G01X5302758Y2189734D02*
G01X5287264Y2124710D01*
G01X5332984Y2189734D02*
G01X5332984Y2124710D01*
G01X5332984Y2189734D02*
G01X5373116Y2189734D01*
G01X5332984Y2158746D02*
G01X5357622Y2158746D01*
G01X5332984Y2124710D02*
G01X5373116Y2124710D01*
G01X5403342Y2189734D02*
G01X5403342Y2124710D01*
G01X5403342Y2189734D02*
G01X5431028Y2189734D01*
G01X5440426Y2186686D01*
G01X5443474Y2183638D01*
G01X5446522Y2177288D01*
G01X5446522Y2171192D01*
G01X5443474Y2165096D01*
G01X5440426Y2162048D01*
G01X5431028Y2158746D01*
G01X5403342Y2158746D01*
G01X5424932Y2158746D02*
G01X5446522Y2124710D01*
G54D10*
G01X2004822Y2664968D02*
G01X2000758Y2662936D01*
G01X1996694Y2658872D01*
G01X1994662Y2654554D01*
G01X1994662Y2646426D01*
G01X1996694Y2642362D01*
G01X2000758Y2638044D01*
G01X2004822Y2636012D01*
G01X2011172Y2633980D01*
G01X2021332Y2633980D01*
G01X2027682Y2636012D01*
G01X2031746Y2638044D01*
G01X2035810Y2642362D01*
G01X2037842Y2646426D01*
G01X2037842Y2654554D01*
G01X2035810Y2658872D01*
G01X2031746Y2662936D01*
G01X2027682Y2664968D01*
G01X2021332Y2664968D01*
G01X2021332Y2654554D02*
G01X2021332Y2664968D01*
G01X1994662Y2685034D02*
G01X2037842Y2685034D01*
G01X1994662Y2685034D02*
G01X2037842Y2713990D01*
G01X1994662Y2713990D02*
G01X2037842Y2713990D01*
G01X1994662Y2734056D02*
G01X2037842Y2734056D01*
G01X1994662Y2734056D02*
G01X1994662Y2748534D01*
G01X1996694Y2754630D01*
G01X2000758Y2758948D01*
G01X2004822Y2760980D01*
G01X2011172Y2763012D01*
G01X2021332Y2763012D01*
G01X2027682Y2760980D01*
G01X2031746Y2758948D01*
G01X2035810Y2754630D01*
G01X2037842Y2748534D01*
G01X2037842Y2734056D01*
G01X1994662Y2927858D02*
G01X2037842Y2927858D01*
G01X1994662Y2913380D02*
G01X1994662Y2942336D01*
G01X1994662Y2962402D02*
G01X2037842Y2991358D01*
G01X1994662Y2991358D02*
G01X2037842Y2962402D01*
G01X1994662Y3167380D02*
G01X2037842Y3167380D01*
G01X1994662Y3167380D02*
G01X1994662Y3185922D01*
G01X1996694Y3192272D01*
G01X1998726Y3194304D01*
G01X2002790Y3196336D01*
G01X2006854Y3196336D01*
G01X2011172Y3194304D01*
G01X2013204Y3192272D01*
G01X2015236Y3185922D01*
G01X2015236Y3167380D01*
G01X2015236Y3181858D02*
G01X2037842Y3196336D01*
G01X1994662Y3216402D02*
G01X2037842Y3245358D01*
G01X1994662Y3245358D02*
G01X2037842Y3216402D01*
G01X1994662Y3400044D02*
G01X1994662Y3422904D01*
G01X2011172Y3410458D01*
G01X2011172Y3416554D01*
G01X2013204Y3420872D01*
G01X2015236Y3422904D01*
G01X2021332Y3424936D01*
G01X2025396Y3424936D01*
G01X2031746Y3422904D01*
G01X2035810Y3418586D01*
G01X2037842Y3412490D01*
G01X2037842Y3406394D01*
G01X2035810Y3400044D01*
G01X2033778Y3398012D01*
G01X2029714Y3395980D01*
G01X1994662Y3445002D02*
G01X2037842Y3461512D01*
G01X1994662Y3478022D02*
G01X2037842Y3461512D01*
G01X1994662Y3502152D02*
G01X1994662Y3525012D01*
G01X2011172Y3512566D01*
G01X2011172Y3518662D01*
G01X2013204Y3522980D01*
G01X2015236Y3525012D01*
G01X2021332Y3527044D01*
G01X2025396Y3527044D01*
G01X2031746Y3525012D01*
G01X2035810Y3520694D01*
G01X2037842Y3514598D01*
G01X2037842Y3508502D01*
G01X2035810Y3502152D01*
G01X2033778Y3500120D01*
G01X2029714Y3498088D01*
G54D12*
G01X212725Y4393108D02*
G01X212725Y4348404D01*
G01X190373Y4370756D02*
G01X235077Y4370756D01*
G54D11*
G01X363220Y3929634D02*
G01X363220Y3864610D01*
G01X363220Y3929634D02*
G01X391160Y3929634D01*
G01X400304Y3926586D01*
G01X403352Y3923538D01*
G01X406654Y3917188D01*
G01X406654Y3911092D01*
G01X403352Y3904996D01*
G01X400304Y3901948D01*
G01X391160Y3898646D01*
G01X363220Y3898646D02*
G01X391160Y3898646D01*
G01X400304Y3895598D01*
G01X403352Y3892550D01*
G01X406654Y3886454D01*
G01X406654Y3877056D01*
G01X403352Y3870960D01*
G01X400304Y3867658D01*
G01X391160Y3864610D01*
G01X363220Y3864610D01*
G01X436880Y3929634D02*
G01X436880Y3883152D01*
G01X439928Y3874008D01*
G01X446024Y3867658D01*
G01X455422Y3864610D01*
G01X461518Y3864610D01*
G01X470916Y3867658D01*
G01X477012Y3874008D01*
G01X480060Y3883152D01*
G01X480060Y3929634D01*
G01X553466Y3929634D02*
G01X510286Y3864610D01*
G01X510286Y3929634D02*
G01X553466Y3929634D01*
G01X510286Y3864610D02*
G01X553466Y3864610D01*
G01X626872Y3929634D02*
G01X583692Y3864610D01*
G01X583692Y3929634D02*
G01X626872Y3929634D01*
G01X583692Y3864610D02*
G01X626872Y3864610D01*
G01X657098Y3929634D02*
G01X657098Y3864610D01*
G01X657098Y3929634D02*
G01X697230Y3929634D01*
G01X657098Y3898646D02*
G01X681736Y3898646D01*
G01X657098Y3864610D02*
G01X697230Y3864610D01*
G01X727456Y3929634D02*
G01X727456Y3864610D01*
G01X727456Y3929634D02*
G01X755142Y3929634D01*
G01X764540Y3926586D01*
G01X767588Y3923538D01*
G01X770636Y3917188D01*
G01X770636Y3911092D01*
G01X767588Y3904996D01*
G01X764540Y3901948D01*
G01X755142Y3898646D01*
G01X727456Y3898646D01*
G01X749046Y3898646D02*
G01X770636Y3864610D01*
G01X800862Y3917188D02*
G01X806958Y3920490D01*
G01X816102Y3929634D01*
G01X816102Y3864610D01*
G01X5938520Y2799334D02*
G01X5938520Y2734310D01*
G01X5938520Y2734310D02*
G01X5975604Y2734310D01*
G01X6005830Y2799334D02*
G01X6005830Y2734310D01*
G01X6005830Y2799334D02*
G01X6027420Y2799334D01*
G01X6036564Y2796286D01*
G01X6042914Y2790190D01*
G01X6045962Y2783840D01*
G01X6049010Y2774696D01*
G01X6049010Y2759202D01*
G01X6045962Y2749804D01*
G01X6042914Y2743708D01*
G01X6036564Y2737358D01*
G01X6027420Y2734310D01*
G01X6005830Y2734310D01*
G01X6097778Y2799334D02*
G01X6091428Y2796286D01*
G01X6085332Y2790190D01*
G01X6082284Y2783840D01*
G01X6079236Y2774696D01*
G01X6079236Y2759202D01*
G01X6082284Y2749804D01*
G01X6085332Y2743708D01*
G01X6091428Y2737358D01*
G01X6097778Y2734310D01*
G01X6109970Y2734310D01*
G01X6116320Y2737358D01*
G01X6122416Y2743708D01*
G01X6125464Y2749804D01*
G01X6128766Y2759202D01*
G01X6128766Y2774696D01*
G01X6125464Y2783840D01*
G01X6122416Y2790190D01*
G01X6116320Y2796286D01*
G01X6109970Y2799334D01*
G01X6097778Y2799334D01*
G01X6158992Y2786888D02*
G01X6165088Y2790190D01*
G01X6174232Y2799334D01*
G01X6174232Y2734310D01*
G01X4338320Y2913634D02*
G01X4338320Y2867152D01*
G01X4341368Y2858008D01*
G01X4347718Y2851658D01*
G01X4356862Y2848610D01*
G01X4363212Y2848610D01*
G01X4372356Y2851658D01*
G01X4378452Y2858008D01*
G01X4381754Y2867152D01*
G01X4381754Y2913634D01*
G01X4411980Y2901188D02*
G01X4418076Y2904490D01*
G01X4427220Y2913634D01*
G01X4427220Y2848610D01*
G01X7513320Y1973834D02*
G01X7513320Y1927352D01*
G01X7516368Y1918208D01*
G01X7522718Y1911858D01*
G01X7531862Y1908810D01*
G01X7538212Y1908810D01*
G01X7547356Y1911858D01*
G01X7553452Y1918208D01*
G01X7556754Y1927352D01*
G01X7556754Y1973834D01*
G01X7630160Y1964690D02*
G01X7624064Y1970786D01*
G01X7614666Y1973834D01*
G01X7602220Y1973834D01*
G01X7593076Y1970786D01*
G01X7586980Y1964690D01*
G01X7586980Y1958340D01*
G01X7590028Y1952244D01*
G01X7593076Y1949196D01*
G01X7599172Y1946148D01*
G01X7617714Y1939798D01*
G01X7624064Y1936750D01*
G01X7627112Y1933702D01*
G01X7630160Y1927352D01*
G01X7630160Y1918208D01*
G01X7624064Y1911858D01*
G01X7614666Y1908810D01*
G01X7602220Y1908810D01*
G01X7593076Y1911858D01*
G01X7586980Y1918208D01*
G01X7660386Y1973834D02*
G01X7660386Y1908810D01*
G01X7660386Y1973834D02*
G01X7688072Y1973834D01*
G01X7697470Y1970786D01*
G01X7700518Y1967738D01*
G01X7703566Y1961388D01*
G01X7703566Y1955292D01*
G01X7700518Y1949196D01*
G01X7697470Y1946148D01*
G01X7688072Y1942846D01*
G01X7660386Y1942846D02*
G01X7688072Y1942846D01*
G01X7697470Y1939798D01*
G01X7700518Y1936750D01*
G01X7703566Y1930654D01*
G01X7703566Y1921256D01*
G01X7700518Y1915160D01*
G01X7697470Y1911858D01*
G01X7688072Y1908810D01*
G01X7660386Y1908810D01*
G01X7733792Y1961388D02*
G01X7739888Y1964690D01*
G01X7749032Y1973834D01*
G01X7749032Y1908810D01*
G01X2573020Y2151634D02*
G01X2616454Y2086610D01*
G01X2616454Y2151634D02*
G01X2573020Y2086610D01*
G01X2652776Y2151634D02*
G01X2686812Y2151634D01*
G01X2668270Y2126996D01*
G01X2677414Y2126996D01*
G01X2683764Y2123948D01*
G01X2686812Y2120646D01*
G01X2689860Y2111502D01*
G01X2689860Y2105152D01*
G01X2686812Y2096008D01*
G01X2680716Y2089658D01*
G01X2671318Y2086610D01*
G01X2661920Y2086610D01*
G01X2652776Y2089658D01*
G01X2649728Y2092960D01*
G01X2646680Y2099056D01*
G01X2916822Y3693445D02*
G01X2901555Y3616754D01*
G01X2947534Y3662733D02*
G01X2870843Y3647466D01*
G01X2995129Y3615138D02*
G01X2973218Y3637049D01*
G01X2951485Y3619628D01*
G01X2955796Y3619628D01*
G01X2964417Y3615317D01*
G01X2971062Y3608672D01*
G01X2975553Y3599871D01*
G01X2975373Y3591070D01*
G01X2971062Y3582449D01*
G01X2966572Y3577959D01*
G01X2957951Y3573649D01*
G01X2949151Y3573469D01*
G01X2940350Y3577959D01*
G01X2933705Y3584605D01*
G01X2929394Y3593226D01*
G01X2929574Y3597716D01*
G01X2931729Y3604182D01*
G01X1768602Y753425D02*
G01X1765554Y759775D01*
G01X1759204Y765871D01*
G01X1753108Y768919D01*
G01X1740662Y768919D01*
G01X1734566Y765871D01*
G01X1728216Y759775D01*
G01X1725168Y753425D01*
G01X1722120Y744281D01*
G01X1722120Y728787D01*
G01X1725168Y719389D01*
G01X1728216Y713293D01*
G01X1734566Y706943D01*
G01X1740662Y703895D01*
G01X1753108Y703895D01*
G01X1759204Y706943D01*
G01X1765554Y713293D01*
G01X1768602Y719389D01*
G01X1798828Y756473D02*
G01X1804924Y759775D01*
G01X1814068Y768919D01*
G01X1814068Y703895D01*
G01X2603335Y753425D02*
G01X2600287Y759775D01*
G01X2593937Y765871D01*
G01X2587841Y768919D01*
G01X2575395Y768919D01*
G01X2569299Y765871D01*
G01X2562949Y759775D01*
G01X2559901Y753425D01*
G01X2556853Y744281D01*
G01X2556853Y728787D01*
G01X2559901Y719389D01*
G01X2562949Y713293D01*
G01X2569299Y706943D01*
G01X2575395Y703895D01*
G01X2587841Y703895D01*
G01X2593937Y706943D01*
G01X2600287Y713293D01*
G01X2603335Y719389D01*
G01X2636609Y753425D02*
G01X2636609Y756473D01*
G01X2639657Y762823D01*
G01X2642705Y765871D01*
G01X2648801Y768919D01*
G01X2661247Y768919D01*
G01X2667597Y765871D01*
G01X2670645Y762823D01*
G01X2673693Y756473D01*
G01X2673693Y750377D01*
G01X2670645Y744281D01*
G01X2664295Y734883D01*
G01X2633561Y703895D01*
G01X2676741Y703895D01*
G01X3436669Y753425D02*
G01X3433621Y759775D01*
G01X3427271Y765871D01*
G01X3421175Y768919D01*
G01X3408729Y768919D01*
G01X3402633Y765871D01*
G01X3396283Y759775D01*
G01X3393235Y753425D01*
G01X3390187Y744281D01*
G01X3390187Y728787D01*
G01X3393235Y719389D01*
G01X3396283Y713293D01*
G01X3402633Y706943D01*
G01X3408729Y703895D01*
G01X3421175Y703895D01*
G01X3427271Y706943D01*
G01X3433621Y713293D01*
G01X3436669Y719389D01*
G01X3472991Y768919D02*
G01X3507027Y768919D01*
G01X3488485Y744281D01*
G01X3497629Y744281D01*
G01X3503979Y741233D01*
G01X3507027Y737931D01*
G01X3510075Y728787D01*
G01X3510075Y722437D01*
G01X3507027Y713293D01*
G01X3500931Y706943D01*
G01X3491533Y703895D01*
G01X3482135Y703895D01*
G01X3472991Y706943D01*
G01X3469943Y710245D01*
G01X3466895Y716341D01*
G01X4270502Y753425D02*
G01X4267454Y759775D01*
G01X4261104Y765871D01*
G01X4255008Y768919D01*
G01X4242562Y768919D01*
G01X4236466Y765871D01*
G01X4230116Y759775D01*
G01X4227068Y753425D01*
G01X4224020Y744281D01*
G01X4224020Y728787D01*
G01X4227068Y719389D01*
G01X4230116Y713293D01*
G01X4236466Y706943D01*
G01X4242562Y703895D01*
G01X4255008Y703895D01*
G01X4261104Y706943D01*
G01X4267454Y713293D01*
G01X4270502Y719389D01*
G01X4331462Y768919D02*
G01X4300728Y725739D01*
G01X4346956Y725739D01*
G01X4331462Y768919D02*
G01X4331462Y703895D01*
G01X5103335Y753425D02*
G01X5100287Y759775D01*
G01X5093937Y765871D01*
G01X5087841Y768919D01*
G01X5075395Y768919D01*
G01X5069299Y765871D01*
G01X5062949Y759775D01*
G01X5059901Y753425D01*
G01X5056853Y744281D01*
G01X5056853Y728787D01*
G01X5059901Y719389D01*
G01X5062949Y713293D01*
G01X5069299Y706943D01*
G01X5075395Y703895D01*
G01X5087841Y703895D01*
G01X5093937Y706943D01*
G01X5100287Y713293D01*
G01X5103335Y719389D01*
G01X5170645Y768919D02*
G01X5139657Y768919D01*
G01X5136609Y741233D01*
G01X5139657Y744281D01*
G01X5148801Y747329D01*
G01X5158199Y747329D01*
G01X5167597Y744281D01*
G01X5173693Y737931D01*
G01X5176741Y728787D01*
G01X5176741Y722437D01*
G01X5173693Y713293D01*
G01X5167597Y706943D01*
G01X5158199Y703895D01*
G01X5148801Y703895D01*
G01X5139657Y706943D01*
G01X5136609Y710245D01*
G01X5133561Y716341D01*
G01X5936669Y753425D02*
G01X5933621Y759775D01*
G01X5927271Y765871D01*
G01X5921175Y768919D01*
G01X5908729Y768919D01*
G01X5902633Y765871D01*
G01X5896283Y759775D01*
G01X5893235Y753425D01*
G01X5890187Y744281D01*
G01X5890187Y728787D01*
G01X5893235Y719389D01*
G01X5896283Y713293D01*
G01X5902633Y706943D01*
G01X5908729Y703895D01*
G01X5921175Y703895D01*
G01X5927271Y706943D01*
G01X5933621Y713293D01*
G01X5936669Y719389D01*
G01X6003979Y759775D02*
G01X6000931Y765871D01*
G01X5991533Y768919D01*
G01X5985437Y768919D01*
G01X5976039Y765871D01*
G01X5969943Y756473D01*
G01X5966895Y741233D01*
G01X5966895Y725739D01*
G01X5969943Y713293D01*
G01X5976039Y706943D01*
G01X5985437Y703895D01*
G01X5988485Y703895D01*
G01X5997629Y706943D01*
G01X6003979Y713293D01*
G01X6007027Y722437D01*
G01X6007027Y725739D01*
G01X6003979Y734883D01*
G01X5997629Y741233D01*
G01X5988485Y744281D01*
G01X5985437Y744281D01*
G01X5976039Y741233D01*
G01X5969943Y734883D01*
G01X5966895Y725739D01*
G01X6772402Y753425D02*
G01X6769354Y759775D01*
G01X6763004Y765871D01*
G01X6756908Y768919D01*
G01X6744462Y768919D01*
G01X6738366Y765871D01*
G01X6732016Y759775D01*
G01X6728968Y753425D01*
G01X6725920Y744281D01*
G01X6725920Y728787D01*
G01X6728968Y719389D01*
G01X6732016Y713293D01*
G01X6738366Y706943D01*
G01X6744462Y703895D01*
G01X6756908Y703895D01*
G01X6763004Y706943D01*
G01X6769354Y713293D01*
G01X6772402Y719389D01*
G01X6845808Y768919D02*
G01X6814820Y703895D01*
G01X6802628Y768919D02*
G01X6845808Y768919D01*
G01X5870702Y1755140D02*
G01X5867654Y1761490D01*
G01X5861304Y1767586D01*
G01X5855208Y1770634D01*
G01X5842762Y1770634D01*
G01X5836666Y1767586D01*
G01X5830316Y1761490D01*
G01X5827268Y1755140D01*
G01X5824220Y1745996D01*
G01X5824220Y1730502D01*
G01X5827268Y1721104D01*
G01X5830316Y1715008D01*
G01X5836666Y1708658D01*
G01X5842762Y1705610D01*
G01X5855208Y1705610D01*
G01X5861304Y1708658D01*
G01X5867654Y1715008D01*
G01X5870702Y1721104D01*
G01X5916168Y1770634D02*
G01X5907024Y1767586D01*
G01X5903976Y1761490D01*
G01X5903976Y1755140D01*
G01X5907024Y1749044D01*
G01X5913120Y1745996D01*
G01X5925566Y1742948D01*
G01X5934964Y1739646D01*
G01X5941060Y1733550D01*
G01X5944108Y1727454D01*
G01X5944108Y1718056D01*
G01X5941060Y1711960D01*
G01X5938012Y1708658D01*
G01X5928614Y1705610D01*
G01X5916168Y1705610D01*
G01X5907024Y1708658D01*
G01X5903976Y1711960D01*
G01X5900928Y1718056D01*
G01X5900928Y1727454D01*
G01X5903976Y1733550D01*
G01X5910072Y1739646D01*
G01X5919470Y1742948D01*
G01X5931662Y1745996D01*
G01X5938012Y1749044D01*
G01X5941060Y1755140D01*
G01X5941060Y1761490D01*
G01X5938012Y1767586D01*
G01X5928614Y1770634D01*
G01X5916168Y1770634D01*
G01X6236594Y1755140D02*
G01X6233546Y1761490D01*
G01X6227196Y1767586D01*
G01X6221100Y1770634D01*
G01X6208654Y1770634D01*
G01X6202558Y1767586D01*
G01X6196208Y1761490D01*
G01X6193160Y1755140D01*
G01X6190112Y1745996D01*
G01X6190112Y1730502D01*
G01X6193160Y1721104D01*
G01X6196208Y1715008D01*
G01X6202558Y1708658D01*
G01X6208654Y1705610D01*
G01X6221100Y1705610D01*
G01X6227196Y1708658D01*
G01X6233546Y1715008D01*
G01X6236594Y1721104D01*
G01X6306952Y1749044D02*
G01X6303904Y1739646D01*
G01X6297554Y1733550D01*
G01X6288410Y1730502D01*
G01X6285362Y1730502D01*
G01X6275964Y1733550D01*
G01X6269868Y1739646D01*
G01X6266820Y1749044D01*
G01X6266820Y1752092D01*
G01X6269868Y1761490D01*
G01X6275964Y1767586D01*
G01X6285362Y1770634D01*
G01X6288410Y1770634D01*
G01X6297554Y1767586D01*
G01X6303904Y1761490D01*
G01X6306952Y1749044D01*
G01X6306952Y1733550D01*
G01X6303904Y1718056D01*
G01X6297554Y1708658D01*
G01X6288410Y1705610D01*
G01X6282060Y1705610D01*
G01X6272916Y1708658D01*
G01X6269868Y1715008D01*
G01X6226302Y3368040D02*
G01X6223254Y3374390D01*
G01X6216904Y3380486D01*
G01X6210808Y3383534D01*
G01X6198362Y3383534D01*
G01X6192266Y3380486D01*
G01X6185916Y3374390D01*
G01X6182868Y3368040D01*
G01X6179820Y3358896D01*
G01X6179820Y3343402D01*
G01X6182868Y3334004D01*
G01X6185916Y3327908D01*
G01X6192266Y3321558D01*
G01X6198362Y3318510D01*
G01X6210808Y3318510D01*
G01X6216904Y3321558D01*
G01X6223254Y3327908D01*
G01X6226302Y3334004D01*
G01X6256528Y3371088D02*
G01X6262624Y3374390D01*
G01X6271768Y3383534D01*
G01X6271768Y3318510D01*
G01X6320536Y3383534D02*
G01X6311138Y3380486D01*
G01X6305042Y3371088D01*
G01X6301994Y3355848D01*
G01X6301994Y3346450D01*
G01X6305042Y3330956D01*
G01X6311138Y3321558D01*
G01X6320536Y3318510D01*
G01X6326632Y3318510D01*
G01X6336030Y3321558D01*
G01X6342126Y3330956D01*
G01X6345174Y3346450D01*
G01X6345174Y3355848D01*
G01X6342126Y3371088D01*
G01X6336030Y3380486D01*
G01X6326632Y3383534D01*
G01X6320536Y3383534D01*
G01X5858002Y3368040D02*
G01X5854954Y3374390D01*
G01X5848604Y3380486D01*
G01X5842508Y3383534D01*
G01X5830062Y3383534D01*
G01X5823966Y3380486D01*
G01X5817616Y3374390D01*
G01X5814568Y3368040D01*
G01X5811520Y3358896D01*
G01X5811520Y3343402D01*
G01X5814568Y3334004D01*
G01X5817616Y3327908D01*
G01X5823966Y3321558D01*
G01X5830062Y3318510D01*
G01X5842508Y3318510D01*
G01X5848604Y3321558D01*
G01X5854954Y3327908D01*
G01X5858002Y3334004D01*
G01X5888228Y3371088D02*
G01X5894324Y3374390D01*
G01X5903468Y3383534D01*
G01X5903468Y3318510D01*
G01X5933694Y3371088D02*
G01X5939790Y3374390D01*
G01X5948934Y3383534D01*
G01X5948934Y3318510D01*
G01X1374902Y2186940D02*
G01X1371854Y2193290D01*
G01X1365504Y2199386D01*
G01X1359408Y2202434D01*
G01X1346962Y2202434D01*
G01X1340866Y2199386D01*
G01X1334516Y2193290D01*
G01X1331468Y2186940D01*
G01X1328420Y2177796D01*
G01X1328420Y2162302D01*
G01X1331468Y2152904D01*
G01X1334516Y2146808D01*
G01X1340866Y2140458D01*
G01X1346962Y2137410D01*
G01X1359408Y2137410D01*
G01X1365504Y2140458D01*
G01X1371854Y2146808D01*
G01X1374902Y2152904D01*
G01X1405128Y2189988D02*
G01X1411224Y2193290D01*
G01X1420368Y2202434D01*
G01X1420368Y2137410D01*
G01X1453642Y2186940D02*
G01X1453642Y2189988D01*
G01X1456690Y2196338D01*
G01X1459738Y2199386D01*
G01X1465834Y2202434D01*
G01X1478280Y2202434D01*
G01X1484630Y2199386D01*
G01X1487678Y2196338D01*
G01X1490726Y2189988D01*
G01X1490726Y2183892D01*
G01X1487678Y2177796D01*
G01X1481328Y2168398D01*
G01X1450594Y2137410D01*
G01X1493774Y2137410D01*
G01X3521202Y1717040D02*
G01X3518154Y1723390D01*
G01X3511804Y1729486D01*
G01X3505708Y1732534D01*
G01X3493262Y1732534D01*
G01X3487166Y1729486D01*
G01X3480816Y1723390D01*
G01X3477768Y1717040D01*
G01X3474720Y1707896D01*
G01X3474720Y1692402D01*
G01X3477768Y1683004D01*
G01X3480816Y1676908D01*
G01X3487166Y1670558D01*
G01X3493262Y1667510D01*
G01X3505708Y1667510D01*
G01X3511804Y1670558D01*
G01X3518154Y1676908D01*
G01X3521202Y1683004D01*
G01X3551428Y1720088D02*
G01X3557524Y1723390D01*
G01X3566668Y1732534D01*
G01X3566668Y1667510D01*
G01X3602990Y1732534D02*
G01X3637026Y1732534D01*
G01X3618484Y1707896D01*
G01X3627628Y1707896D01*
G01X3633978Y1704848D01*
G01X3637026Y1701546D01*
G01X3640074Y1692402D01*
G01X3640074Y1686052D01*
G01X3637026Y1676908D01*
G01X3630930Y1670558D01*
G01X3621532Y1667510D01*
G01X3612134Y1667510D01*
G01X3602990Y1670558D01*
G01X3599942Y1673860D01*
G01X3596894Y1679956D01*
G01X5527802Y1996440D02*
G01X5524754Y2002790D01*
G01X5518404Y2008886D01*
G01X5512308Y2011934D01*
G01X5499862Y2011934D01*
G01X5493766Y2008886D01*
G01X5487416Y2002790D01*
G01X5484368Y1996440D01*
G01X5481320Y1987296D01*
G01X5481320Y1971802D01*
G01X5484368Y1962404D01*
G01X5487416Y1956308D01*
G01X5493766Y1949958D01*
G01X5499862Y1946910D01*
G01X5512308Y1946910D01*
G01X5518404Y1949958D01*
G01X5524754Y1956308D01*
G01X5527802Y1962404D01*
G01X5558028Y1999488D02*
G01X5564124Y2002790D01*
G01X5573268Y2011934D01*
G01X5573268Y1946910D01*
G01X5634228Y2011934D02*
G01X5603494Y1968754D01*
G01X5649722Y1968754D01*
G01X5634228Y2011934D02*
G01X5634228Y1946910D01*
G01X4588002Y3190240D02*
G01X4584954Y3196590D01*
G01X4578604Y3202686D01*
G01X4572508Y3205734D01*
G01X4560062Y3205734D01*
G01X4553966Y3202686D01*
G01X4547616Y3196590D01*
G01X4544568Y3190240D01*
G01X4541520Y3181096D01*
G01X4541520Y3165602D01*
G01X4544568Y3156204D01*
G01X4547616Y3150108D01*
G01X4553966Y3143758D01*
G01X4560062Y3140710D01*
G01X4572508Y3140710D01*
G01X4578604Y3143758D01*
G01X4584954Y3150108D01*
G01X4588002Y3156204D01*
G01X4618228Y3193288D02*
G01X4624324Y3196590D01*
G01X4633468Y3205734D01*
G01X4633468Y3140710D01*
G01X4700778Y3205734D02*
G01X4669790Y3205734D01*
G01X4666742Y3178048D01*
G01X4669790Y3181096D01*
G01X4678934Y3184144D01*
G01X4688332Y3184144D01*
G01X4697730Y3181096D01*
G01X4703826Y3174746D01*
G01X4706874Y3165602D01*
G01X4706874Y3159252D01*
G01X4703826Y3150108D01*
G01X4697730Y3143758D01*
G01X4688332Y3140710D01*
G01X4678934Y3140710D01*
G01X4669790Y3143758D01*
G01X4666742Y3147060D01*
G01X4663694Y3153156D01*
G01X3724402Y3164840D02*
G01X3721354Y3171190D01*
G01X3715004Y3177286D01*
G01X3708908Y3180334D01*
G01X3696462Y3180334D01*
G01X3690366Y3177286D01*
G01X3684016Y3171190D01*
G01X3680968Y3164840D01*
G01X3677920Y3155696D01*
G01X3677920Y3140202D01*
G01X3680968Y3130804D01*
G01X3684016Y3124708D01*
G01X3690366Y3118358D01*
G01X3696462Y3115310D01*
G01X3708908Y3115310D01*
G01X3715004Y3118358D01*
G01X3721354Y3124708D01*
G01X3724402Y3130804D01*
G01X3754628Y3167888D02*
G01X3760724Y3171190D01*
G01X3769868Y3180334D01*
G01X3769868Y3115310D01*
G01X3837178Y3171190D02*
G01X3834130Y3177286D01*
G01X3824732Y3180334D01*
G01X3818636Y3180334D01*
G01X3809238Y3177286D01*
G01X3803142Y3167888D01*
G01X3800094Y3152648D01*
G01X3800094Y3137154D01*
G01X3803142Y3124708D01*
G01X3809238Y3118358D01*
G01X3818636Y3115310D01*
G01X3821684Y3115310D01*
G01X3830828Y3118358D01*
G01X3837178Y3124708D01*
G01X3840226Y3133852D01*
G01X3840226Y3137154D01*
G01X3837178Y3146298D01*
G01X3830828Y3152648D01*
G01X3821684Y3155696D01*
G01X3818636Y3155696D01*
G01X3809238Y3152648D01*
G01X3803142Y3146298D01*
G01X3800094Y3137154D01*
G01X7343902Y3952240D02*
G01X7340854Y3958590D01*
G01X7334504Y3964686D01*
G01X7328408Y3967734D01*
G01X7315962Y3967734D01*
G01X7309866Y3964686D01*
G01X7303516Y3958590D01*
G01X7300468Y3952240D01*
G01X7297420Y3943096D01*
G01X7297420Y3927602D01*
G01X7300468Y3918204D01*
G01X7303516Y3912108D01*
G01X7309866Y3905758D01*
G01X7315962Y3902710D01*
G01X7328408Y3902710D01*
G01X7334504Y3905758D01*
G01X7340854Y3912108D01*
G01X7343902Y3918204D01*
G01X7374128Y3955288D02*
G01X7380224Y3958590D01*
G01X7389368Y3967734D01*
G01X7389368Y3902710D01*
G01X7462774Y3967734D02*
G01X7431786Y3902710D01*
G01X7419594Y3967734D02*
G01X7462774Y3967734D01*
G01X2962402Y2428240D02*
G01X2959354Y2434590D01*
G01X2953004Y2440686D01*
G01X2946908Y2443734D01*
G01X2934462Y2443734D01*
G01X2928366Y2440686D01*
G01X2922016Y2434590D01*
G01X2918968Y2428240D01*
G01X2915920Y2419096D01*
G01X2915920Y2403602D01*
G01X2918968Y2394204D01*
G01X2922016Y2388108D01*
G01X2928366Y2381758D01*
G01X2934462Y2378710D01*
G01X2946908Y2378710D01*
G01X2953004Y2381758D01*
G01X2959354Y2388108D01*
G01X2962402Y2394204D01*
G01X2992628Y2431288D02*
G01X2998724Y2434590D01*
G01X3007868Y2443734D01*
G01X3007868Y2378710D01*
G01X3053334Y2443734D02*
G01X3044190Y2440686D01*
G01X3041142Y2434590D01*
G01X3041142Y2428240D01*
G01X3044190Y2422144D01*
G01X3050286Y2419096D01*
G01X3062732Y2416048D01*
G01X3072130Y2412746D01*
G01X3078226Y2406650D01*
G01X3081274Y2400554D01*
G01X3081274Y2391156D01*
G01X3078226Y2385060D01*
G01X3075178Y2381758D01*
G01X3065780Y2378710D01*
G01X3053334Y2378710D01*
G01X3044190Y2381758D01*
G01X3041142Y2385060D01*
G01X3038094Y2391156D01*
G01X3038094Y2400554D01*
G01X3041142Y2406650D01*
G01X3047238Y2412746D01*
G01X3056636Y2416048D01*
G01X3068828Y2419096D01*
G01X3075178Y2422144D01*
G01X3078226Y2428240D01*
G01X3078226Y2434590D01*
G01X3075178Y2440686D01*
G01X3065780Y2443734D01*
G01X3053334Y2443734D01*
G01X2962402Y1882140D02*
G01X2959354Y1888490D01*
G01X2953004Y1894586D01*
G01X2946908Y1897634D01*
G01X2934462Y1897634D01*
G01X2928366Y1894586D01*
G01X2922016Y1888490D01*
G01X2918968Y1882140D01*
G01X2915920Y1872996D01*
G01X2915920Y1857502D01*
G01X2918968Y1848104D01*
G01X2922016Y1842008D01*
G01X2928366Y1835658D01*
G01X2934462Y1832610D01*
G01X2946908Y1832610D01*
G01X2953004Y1835658D01*
G01X2959354Y1842008D01*
G01X2962402Y1848104D01*
G01X2992628Y1885188D02*
G01X2998724Y1888490D01*
G01X3007868Y1897634D01*
G01X3007868Y1832610D01*
G01X3078226Y1876044D02*
G01X3075178Y1866646D01*
G01X3068828Y1860550D01*
G01X3059684Y1857502D01*
G01X3056636Y1857502D01*
G01X3047238Y1860550D01*
G01X3041142Y1866646D01*
G01X3038094Y1876044D01*
G01X3038094Y1879092D01*
G01X3041142Y1888490D01*
G01X3047238Y1894586D01*
G01X3056636Y1897634D01*
G01X3059684Y1897634D01*
G01X3068828Y1894586D01*
G01X3075178Y1888490D01*
G01X3078226Y1876044D01*
G01X3078226Y1860550D01*
G01X3075178Y1845056D01*
G01X3068828Y1835658D01*
G01X3059684Y1832610D01*
G01X3053334Y1832610D01*
G01X3044190Y1835658D01*
G01X3041142Y1842008D01*
G01X3334678Y3564710D02*
G01X3337013Y3571355D01*
G01X3336834Y3580156D01*
G01X3334678Y3586622D01*
G01X3325878Y3595422D01*
G01X3319412Y3597578D01*
G01X3310611Y3597757D01*
G01X3303966Y3595422D01*
G01X3295345Y3591112D01*
G01X3284389Y3580156D01*
G01X3279899Y3571355D01*
G01X3277744Y3564890D01*
G01X3277744Y3555909D01*
G01X3279899Y3549444D01*
G01X3288699Y3540643D01*
G01X3295165Y3538488D01*
G01X3304145Y3538488D01*
G01X3310611Y3540643D01*
G01X3358207Y3541182D02*
G01X3360362Y3543337D01*
G01X3367007Y3545672D01*
G01X3371318Y3545672D01*
G01X3377784Y3543517D01*
G01X3386584Y3534716D01*
G01X3388919Y3528071D01*
G01X3388919Y3523760D01*
G01X3386584Y3517115D01*
G01X3382274Y3512804D01*
G01X3375808Y3510649D01*
G01X3364672Y3508494D01*
G01X3321028Y3508314D01*
G01X3351561Y3477781D01*
G01X3432024Y3489276D02*
G01X3423224Y3493766D01*
G01X3412268Y3491431D01*
G01X3399336Y3482810D01*
G01X3392691Y3476165D01*
G01X3383890Y3463054D01*
G01X3381555Y3452098D01*
G01X3386045Y3443297D01*
G01X3390356Y3438986D01*
G01X3399157Y3434496D01*
G01X3410112Y3436831D01*
G01X3423224Y3445632D01*
G01X3429869Y3452277D01*
G01X3438490Y3465209D01*
G01X3440825Y3476165D01*
G01X3436335Y3484965D01*
G01X3432024Y3489276D01*
G01X2557733Y2963822D02*
G01X2560068Y2970467D01*
G01X2559889Y2979268D01*
G01X2557733Y2985734D01*
G01X2548933Y2994534D01*
G01X2542467Y2996689D01*
G01X2533666Y2996869D01*
G01X2527021Y2994534D01*
G01X2518400Y2990224D01*
G01X2507444Y2979268D01*
G01X2502954Y2970467D01*
G01X2500799Y2964001D01*
G01X2500799Y2955021D01*
G01X2502954Y2948555D01*
G01X2511755Y2939755D01*
G01X2518220Y2937599D01*
G01X2527201Y2937599D01*
G01X2533666Y2939755D01*
G01X2581262Y2940293D02*
G01X2583417Y2942449D01*
G01X2590062Y2944784D01*
G01X2594373Y2944784D01*
G01X2600839Y2942628D01*
G01X2609639Y2933828D01*
G01X2611974Y2927182D01*
G01X2611974Y2922872D01*
G01X2609639Y2916226D01*
G01X2605329Y2911916D01*
G01X2598863Y2909761D01*
G01X2587728Y2907605D01*
G01X2544083Y2907426D01*
G01X2574616Y2876893D01*
G01X2633168Y2892698D02*
G01X2639813Y2890722D01*
G01X2652745Y2890722D01*
G01X2606766Y2844744D01*
G01X1183924Y4068361D02*
G01X1248948Y4068361D01*
G01X1183924Y4068361D02*
G01X1183924Y4089951D01*
G01X1186972Y4099349D01*
G01X1193068Y4105445D01*
G01X1199418Y4108493D01*
G01X1208562Y4111795D01*
G01X1224056Y4111795D01*
G01X1233454Y4108493D01*
G01X1239550Y4105445D01*
G01X1245900Y4099349D01*
G01X1248948Y4089951D01*
G01X1248948Y4068361D01*
G01X1196370Y4142021D02*
G01X1193068Y4148117D01*
G01X1183924Y4157261D01*
G01X1248948Y4157261D01*
G01X6560820Y4437634D02*
G01X6560820Y4372610D01*
G01X6560820Y4372610D02*
G01X6597904Y4372610D01*
G01X6628130Y4437634D02*
G01X6628130Y4372610D01*
G01X6628130Y4437634D02*
G01X6668262Y4437634D01*
G01X6628130Y4406646D02*
G01X6652768Y4406646D01*
G01X6628130Y4372610D02*
G01X6668262Y4372610D01*
G01X6698488Y4437634D02*
G01X6698488Y4372610D01*
G01X6698488Y4437634D02*
G01X6720078Y4437634D01*
G01X6729222Y4434586D01*
G01X6735572Y4428490D01*
G01X6738620Y4422140D01*
G01X6741668Y4412996D01*
G01X6741668Y4397502D01*
G01X6738620Y4388104D01*
G01X6735572Y4382008D01*
G01X6729222Y4375658D01*
G01X6720078Y4372610D01*
G01X6698488Y4372610D01*
G01X6774942Y4422140D02*
G01X6774942Y4425188D01*
G01X6777990Y4431538D01*
G01X6781038Y4434586D01*
G01X6787134Y4437634D01*
G01X6799580Y4437634D01*
G01X6805930Y4434586D01*
G01X6808978Y4431538D01*
G01X6812026Y4425188D01*
G01X6812026Y4419092D01*
G01X6808978Y4412996D01*
G01X6802628Y4403598D01*
G01X6771894Y4372610D01*
G01X6815074Y4372610D01*
G01X1722120Y1127089D02*
G01X1722120Y1062065D01*
G01X1722120Y1062065D02*
G01X1759204Y1062065D01*
G01X1789430Y1127089D02*
G01X1789430Y1062065D01*
G01X1789430Y1127089D02*
G01X1829562Y1127089D01*
G01X1789430Y1096101D02*
G01X1814068Y1096101D01*
G01X1789430Y1062065D02*
G01X1829562Y1062065D01*
G01X1859788Y1127089D02*
G01X1859788Y1062065D01*
G01X1859788Y1127089D02*
G01X1881378Y1127089D01*
G01X1890522Y1124041D01*
G01X1896872Y1117945D01*
G01X1899920Y1111595D01*
G01X1902968Y1102451D01*
G01X1902968Y1086957D01*
G01X1899920Y1077559D01*
G01X1896872Y1071463D01*
G01X1890522Y1065113D01*
G01X1881378Y1062065D01*
G01X1859788Y1062065D01*
G01X1939290Y1127089D02*
G01X1973326Y1127089D01*
G01X1954784Y1102451D01*
G01X1963928Y1102451D01*
G01X1970278Y1099403D01*
G01X1973326Y1096101D01*
G01X1976374Y1086957D01*
G01X1976374Y1080607D01*
G01X1973326Y1071463D01*
G01X1967230Y1065113D01*
G01X1957832Y1062065D01*
G01X1948434Y1062065D01*
G01X1939290Y1065113D01*
G01X1936242Y1068415D01*
G01X1933194Y1074511D01*
G01X2560320Y1139789D02*
G01X2560320Y1074765D01*
G01X2560320Y1074765D02*
G01X2597404Y1074765D01*
G01X2627630Y1139789D02*
G01X2627630Y1074765D01*
G01X2627630Y1139789D02*
G01X2667762Y1139789D01*
G01X2627630Y1108801D02*
G01X2652268Y1108801D01*
G01X2627630Y1074765D02*
G01X2667762Y1074765D01*
G01X2697988Y1139789D02*
G01X2697988Y1074765D01*
G01X2697988Y1139789D02*
G01X2719578Y1139789D01*
G01X2728722Y1136741D01*
G01X2735072Y1130645D01*
G01X2738120Y1124295D01*
G01X2741168Y1115151D01*
G01X2741168Y1099657D01*
G01X2738120Y1090259D01*
G01X2735072Y1084163D01*
G01X2728722Y1077813D01*
G01X2719578Y1074765D01*
G01X2697988Y1074765D01*
G01X2802128Y1139789D02*
G01X2771394Y1096609D01*
G01X2817622Y1096609D01*
G01X2802128Y1139789D02*
G01X2802128Y1074765D01*
G01X3398520Y1139789D02*
G01X3398520Y1074765D01*
G01X3398520Y1074765D02*
G01X3435604Y1074765D01*
G01X3465830Y1139789D02*
G01X3465830Y1074765D01*
G01X3465830Y1139789D02*
G01X3505962Y1139789D01*
G01X3465830Y1108801D02*
G01X3490468Y1108801D01*
G01X3465830Y1074765D02*
G01X3505962Y1074765D01*
G01X3536188Y1139789D02*
G01X3536188Y1074765D01*
G01X3536188Y1139789D02*
G01X3557778Y1139789D01*
G01X3566922Y1136741D01*
G01X3573272Y1130645D01*
G01X3576320Y1124295D01*
G01X3579368Y1115151D01*
G01X3579368Y1099657D01*
G01X3576320Y1090259D01*
G01X3573272Y1084163D01*
G01X3566922Y1077813D01*
G01X3557778Y1074765D01*
G01X3536188Y1074765D01*
G01X3646678Y1139789D02*
G01X3615690Y1139789D01*
G01X3612642Y1112103D01*
G01X3615690Y1115151D01*
G01X3624834Y1118199D01*
G01X3634232Y1118199D01*
G01X3643630Y1115151D01*
G01X3649726Y1108801D01*
G01X3652774Y1099657D01*
G01X3652774Y1093307D01*
G01X3649726Y1084163D01*
G01X3643630Y1077813D01*
G01X3634232Y1074765D01*
G01X3624834Y1074765D01*
G01X3615690Y1077813D01*
G01X3612642Y1081115D01*
G01X3609594Y1087211D01*
G01X4236720Y1139789D02*
G01X4236720Y1074765D01*
G01X4236720Y1074765D02*
G01X4273804Y1074765D01*
G01X4304030Y1139789D02*
G01X4304030Y1074765D01*
G01X4304030Y1139789D02*
G01X4344162Y1139789D01*
G01X4304030Y1108801D02*
G01X4328668Y1108801D01*
G01X4304030Y1074765D02*
G01X4344162Y1074765D01*
G01X4374388Y1139789D02*
G01X4374388Y1074765D01*
G01X4374388Y1139789D02*
G01X4395978Y1139789D01*
G01X4405122Y1136741D01*
G01X4411472Y1130645D01*
G01X4414520Y1124295D01*
G01X4417568Y1115151D01*
G01X4417568Y1099657D01*
G01X4414520Y1090259D01*
G01X4411472Y1084163D01*
G01X4405122Y1077813D01*
G01X4395978Y1074765D01*
G01X4374388Y1074765D01*
G01X4484878Y1130645D02*
G01X4481830Y1136741D01*
G01X4472432Y1139789D01*
G01X4466336Y1139789D01*
G01X4456938Y1136741D01*
G01X4450842Y1127343D01*
G01X4447794Y1112103D01*
G01X4447794Y1096609D01*
G01X4450842Y1084163D01*
G01X4456938Y1077813D01*
G01X4466336Y1074765D01*
G01X4469384Y1074765D01*
G01X4478528Y1077813D01*
G01X4484878Y1084163D01*
G01X4487926Y1093307D01*
G01X4487926Y1096609D01*
G01X4484878Y1105753D01*
G01X4478528Y1112103D01*
G01X4469384Y1115151D01*
G01X4466336Y1115151D01*
G01X4456938Y1112103D01*
G01X4450842Y1105753D01*
G01X4447794Y1096609D01*
G01X5062220Y1139789D02*
G01X5062220Y1074765D01*
G01X5062220Y1074765D02*
G01X5099304Y1074765D01*
G01X5129530Y1139789D02*
G01X5129530Y1074765D01*
G01X5129530Y1139789D02*
G01X5169662Y1139789D01*
G01X5129530Y1108801D02*
G01X5154168Y1108801D01*
G01X5129530Y1074765D02*
G01X5169662Y1074765D01*
G01X5199888Y1139789D02*
G01X5199888Y1074765D01*
G01X5199888Y1139789D02*
G01X5221478Y1139789D01*
G01X5230622Y1136741D01*
G01X5236972Y1130645D01*
G01X5240020Y1124295D01*
G01X5243068Y1115151D01*
G01X5243068Y1099657D01*
G01X5240020Y1090259D01*
G01X5236972Y1084163D01*
G01X5230622Y1077813D01*
G01X5221478Y1074765D01*
G01X5199888Y1074765D01*
G01X5273294Y1127343D02*
G01X5279390Y1130645D01*
G01X5288534Y1139789D01*
G01X5288534Y1074765D01*
G01X5318760Y1127343D02*
G01X5324856Y1130645D01*
G01X5334000Y1139789D01*
G01X5334000Y1074765D01*
G01X5900420Y1139789D02*
G01X5900420Y1074765D01*
G01X5900420Y1074765D02*
G01X5937504Y1074765D01*
G01X5967730Y1139789D02*
G01X5967730Y1074765D01*
G01X5967730Y1139789D02*
G01X6007862Y1139789D01*
G01X5967730Y1108801D02*
G01X5992368Y1108801D01*
G01X5967730Y1074765D02*
G01X6007862Y1074765D01*
G01X6038088Y1139789D02*
G01X6038088Y1074765D01*
G01X6038088Y1139789D02*
G01X6059678Y1139789D01*
G01X6068822Y1136741D01*
G01X6075172Y1130645D01*
G01X6078220Y1124295D01*
G01X6081268Y1115151D01*
G01X6081268Y1099657D01*
G01X6078220Y1090259D01*
G01X6075172Y1084163D01*
G01X6068822Y1077813D01*
G01X6059678Y1074765D01*
G01X6038088Y1074765D01*
G01X6111494Y1127343D02*
G01X6117590Y1130645D01*
G01X6126734Y1139789D01*
G01X6126734Y1074765D01*
G01X6160008Y1124295D02*
G01X6160008Y1127343D01*
G01X6163056Y1133693D01*
G01X6166104Y1136741D01*
G01X6172200Y1139789D01*
G01X6184646Y1139789D01*
G01X6190996Y1136741D01*
G01X6194044Y1133693D01*
G01X6197092Y1127343D01*
G01X6197092Y1121247D01*
G01X6194044Y1115151D01*
G01X6187694Y1105753D01*
G01X6156960Y1074765D01*
G01X6200140Y1074765D01*
G01X6725920Y1127089D02*
G01X6725920Y1062065D01*
G01X6725920Y1062065D02*
G01X6763004Y1062065D01*
G01X6793230Y1127089D02*
G01X6793230Y1062065D01*
G01X6793230Y1127089D02*
G01X6833362Y1127089D01*
G01X6793230Y1096101D02*
G01X6817868Y1096101D01*
G01X6793230Y1062065D02*
G01X6833362Y1062065D01*
G01X6863588Y1127089D02*
G01X6863588Y1062065D01*
G01X6863588Y1127089D02*
G01X6885178Y1127089D01*
G01X6894322Y1124041D01*
G01X6900672Y1117945D01*
G01X6903720Y1111595D01*
G01X6906768Y1102451D01*
G01X6906768Y1086957D01*
G01X6903720Y1077559D01*
G01X6900672Y1071463D01*
G01X6894322Y1065113D01*
G01X6885178Y1062065D01*
G01X6863588Y1062065D01*
G01X6936994Y1114643D02*
G01X6943090Y1117945D01*
G01X6952234Y1127089D01*
G01X6952234Y1062065D01*
G01X6988556Y1127089D02*
G01X7022592Y1127089D01*
G01X7004050Y1102451D01*
G01X7013194Y1102451D01*
G01X7019544Y1099403D01*
G01X7022592Y1096101D01*
G01X7025640Y1086957D01*
G01X7025640Y1080607D01*
G01X7022592Y1071463D01*
G01X7016496Y1065113D01*
G01X7007098Y1062065D01*
G01X6997700Y1062065D01*
G01X6988556Y1065113D01*
G01X6985508Y1068415D01*
G01X6982460Y1074511D01*
G01X2070862Y4907534D02*
G01X2064766Y4904486D01*
G01X2058416Y4898390D01*
G01X2055368Y4892040D01*
G01X2052320Y4882896D01*
G01X2052320Y4867402D01*
G01X2055368Y4858004D01*
G01X2058416Y4851908D01*
G01X2064766Y4845558D01*
G01X2070862Y4842510D01*
G01X2083308Y4842510D01*
G01X2089404Y4845558D01*
G01X2095754Y4851908D01*
G01X2098802Y4858004D01*
G01X2101850Y4867402D01*
G01X2101850Y4882896D01*
G01X2098802Y4892040D01*
G01X2095754Y4898390D01*
G01X2089404Y4904486D01*
G01X2083308Y4907534D01*
G01X2070862Y4907534D01*
G01X2080260Y4854956D02*
G01X2098802Y4836414D01*
G01X2132076Y4895088D02*
G01X2138172Y4898390D01*
G01X2147316Y4907534D01*
G01X2147316Y4842510D01*
G01X6852920Y2875534D02*
G01X6852920Y2810510D01*
G01X6852920Y2875534D02*
G01X6880860Y2875534D01*
G01X6890004Y2872486D01*
G01X6893052Y2869438D01*
G01X6896354Y2863088D01*
G01X6896354Y2856992D01*
G01X6893052Y2850896D01*
G01X6890004Y2847848D01*
G01X6880860Y2844546D01*
G01X6852920Y2844546D01*
G01X6874510Y2844546D02*
G01X6896354Y2810510D01*
G01X6926580Y2863088D02*
G01X6932676Y2866390D01*
G01X6941820Y2875534D01*
G01X6941820Y2810510D01*
G01X6840220Y2253234D02*
G01X6840220Y2188210D01*
G01X6840220Y2253234D02*
G01X6868160Y2253234D01*
G01X6877304Y2250186D01*
G01X6880352Y2247138D01*
G01X6883654Y2240788D01*
G01X6883654Y2234692D01*
G01X6880352Y2228596D01*
G01X6877304Y2225548D01*
G01X6868160Y2222246D01*
G01X6840220Y2222246D01*
G01X6861810Y2222246D02*
G01X6883654Y2188210D01*
G01X6916928Y2237740D02*
G01X6916928Y2240788D01*
G01X6919976Y2247138D01*
G01X6923024Y2250186D01*
G01X6929120Y2253234D01*
G01X6941566Y2253234D01*
G01X6947916Y2250186D01*
G01X6950964Y2247138D01*
G01X6954012Y2240788D01*
G01X6954012Y2234692D01*
G01X6950964Y2228596D01*
G01X6944614Y2219198D01*
G01X6913880Y2188210D01*
G01X6957060Y2188210D01*
G01X5201920Y3205734D02*
G01X5201920Y3140710D01*
G01X5201920Y3205734D02*
G01X5229860Y3205734D01*
G01X5239004Y3202686D01*
G01X5242052Y3199638D01*
G01X5245354Y3193288D01*
G01X5245354Y3187192D01*
G01X5242052Y3181096D01*
G01X5239004Y3178048D01*
G01X5229860Y3174746D01*
G01X5201920Y3174746D01*
G01X5223510Y3174746D02*
G01X5245354Y3140710D01*
G01X5306314Y3205734D02*
G01X5275580Y3162554D01*
G01X5321808Y3162554D01*
G01X5306314Y3205734D02*
G01X5306314Y3140710D01*
G01X6649720Y3688334D02*
G01X6649720Y3623310D01*
G01X6649720Y3688334D02*
G01X6677660Y3688334D01*
G01X6686804Y3685286D01*
G01X6689852Y3682238D01*
G01X6693154Y3675888D01*
G01X6693154Y3669792D01*
G01X6689852Y3663696D01*
G01X6686804Y3660648D01*
G01X6677660Y3657346D01*
G01X6649720Y3657346D01*
G01X6671310Y3657346D02*
G01X6693154Y3623310D01*
G01X6760464Y3688334D02*
G01X6729476Y3688334D01*
G01X6726428Y3660648D01*
G01X6729476Y3663696D01*
G01X6738620Y3666744D01*
G01X6748018Y3666744D01*
G01X6757416Y3663696D01*
G01X6763512Y3657346D01*
G01X6766560Y3648202D01*
G01X6766560Y3641852D01*
G01X6763512Y3632708D01*
G01X6757416Y3626358D01*
G01X6748018Y3623310D01*
G01X6738620Y3623310D01*
G01X6729476Y3626358D01*
G01X6726428Y3629660D01*
G01X6723380Y3635756D01*
G01X1328420Y2786634D02*
G01X1328420Y2721610D01*
G01X1328420Y2786634D02*
G01X1356360Y2786634D01*
G01X1365504Y2783586D01*
G01X1368552Y2780538D01*
G01X1371854Y2774188D01*
G01X1371854Y2768092D01*
G01X1368552Y2761996D01*
G01X1365504Y2758948D01*
G01X1356360Y2755646D01*
G01X1328420Y2755646D01*
G01X1350010Y2755646D02*
G01X1371854Y2721610D01*
G01X1439164Y2777490D02*
G01X1436116Y2783586D01*
G01X1426718Y2786634D01*
G01X1420622Y2786634D01*
G01X1411224Y2783586D01*
G01X1405128Y2774188D01*
G01X1402080Y2758948D01*
G01X1402080Y2743454D01*
G01X1405128Y2731008D01*
G01X1411224Y2724658D01*
G01X1420622Y2721610D01*
G01X1423670Y2721610D01*
G01X1432814Y2724658D01*
G01X1439164Y2731008D01*
G01X1442212Y2740152D01*
G01X1442212Y2743454D01*
G01X1439164Y2752598D01*
G01X1432814Y2758948D01*
G01X1423670Y2761996D01*
G01X1420622Y2761996D01*
G01X1411224Y2758948D01*
G01X1405128Y2752598D01*
G01X1402080Y2743454D01*
G01X5595620Y4833733D02*
G01X5595620Y4768709D01*
G01X5595620Y4833733D02*
G01X5623560Y4833733D01*
G01X5632704Y4830685D01*
G01X5635752Y4827637D01*
G01X5639054Y4821287D01*
G01X5639054Y4815191D01*
G01X5635752Y4809095D01*
G01X5632704Y4806047D01*
G01X5623560Y4802745D01*
G01X5595620Y4802745D01*
G01X5617210Y4802745D02*
G01X5639054Y4768709D01*
G01X5712460Y4833733D02*
G01X5681472Y4768709D01*
G01X5669280Y4833733D02*
G01X5712460Y4833733D01*
G01X5341620Y3701034D02*
G01X5341620Y3636010D01*
G01X5341620Y3701034D02*
G01X5369560Y3701034D01*
G01X5378704Y3697986D01*
G01X5381752Y3694938D01*
G01X5385054Y3688588D01*
G01X5385054Y3682492D01*
G01X5381752Y3676396D01*
G01X5378704Y3673348D01*
G01X5369560Y3670046D01*
G01X5341620Y3670046D01*
G01X5363210Y3670046D02*
G01X5385054Y3636010D01*
G01X5430520Y3701034D02*
G01X5421376Y3697986D01*
G01X5418328Y3691890D01*
G01X5418328Y3685540D01*
G01X5421376Y3679444D01*
G01X5427472Y3676396D01*
G01X5439918Y3673348D01*
G01X5449316Y3670046D01*
G01X5455412Y3663950D01*
G01X5458460Y3657854D01*
G01X5458460Y3648456D01*
G01X5455412Y3642360D01*
G01X5452364Y3639058D01*
G01X5442966Y3636010D01*
G01X5430520Y3636010D01*
G01X5421376Y3639058D01*
G01X5418328Y3642360D01*
G01X5415280Y3648456D01*
G01X5415280Y3657854D01*
G01X5418328Y3663950D01*
G01X5424424Y3670046D01*
G01X5433822Y3673348D01*
G01X5446014Y3676396D01*
G01X5452364Y3679444D01*
G01X5455412Y3685540D01*
G01X5455412Y3691890D01*
G01X5452364Y3697986D01*
G01X5442966Y3701034D01*
G01X5430520Y3701034D01*
G01X1709420Y1478534D02*
G01X1709420Y1413510D01*
G01X1709420Y1478534D02*
G01X1737360Y1478534D01*
G01X1746504Y1475486D01*
G01X1749552Y1472438D01*
G01X1752854Y1466088D01*
G01X1752854Y1459992D01*
G01X1749552Y1453896D01*
G01X1746504Y1450848D01*
G01X1737360Y1447546D01*
G01X1709420Y1447546D01*
G01X1731010Y1447546D02*
G01X1752854Y1413510D01*
G01X1823212Y1456944D02*
G01X1820164Y1447546D01*
G01X1813814Y1441450D01*
G01X1804670Y1438402D01*
G01X1801622Y1438402D01*
G01X1792224Y1441450D01*
G01X1786128Y1447546D01*
G01X1783080Y1456944D01*
G01X1783080Y1459992D01*
G01X1786128Y1469390D01*
G01X1792224Y1475486D01*
G01X1801622Y1478534D01*
G01X1804670Y1478534D01*
G01X1813814Y1475486D01*
G01X1820164Y1469390D01*
G01X1823212Y1456944D01*
G01X1823212Y1441450D01*
G01X1820164Y1425956D01*
G01X1813814Y1416558D01*
G01X1804670Y1413510D01*
G01X1798320Y1413510D01*
G01X1789176Y1416558D01*
G01X1786128Y1422908D01*
G01X2534920Y1478534D02*
G01X2534920Y1413510D01*
G01X2534920Y1478534D02*
G01X2562860Y1478534D01*
G01X2572004Y1475486D01*
G01X2575052Y1472438D01*
G01X2578354Y1466088D01*
G01X2578354Y1459992D01*
G01X2575052Y1453896D01*
G01X2572004Y1450848D01*
G01X2562860Y1447546D01*
G01X2534920Y1447546D01*
G01X2556510Y1447546D02*
G01X2578354Y1413510D01*
G01X2608580Y1466088D02*
G01X2614676Y1469390D01*
G01X2623820Y1478534D01*
G01X2623820Y1413510D01*
G01X2672588Y1478534D02*
G01X2663190Y1475486D01*
G01X2657094Y1466088D01*
G01X2654046Y1450848D01*
G01X2654046Y1441450D01*
G01X2657094Y1425956D01*
G01X2663190Y1416558D01*
G01X2672588Y1413510D01*
G01X2678684Y1413510D01*
G01X2688082Y1416558D01*
G01X2694178Y1425956D01*
G01X2697226Y1441450D01*
G01X2697226Y1450848D01*
G01X2694178Y1466088D01*
G01X2688082Y1475486D01*
G01X2678684Y1478534D01*
G01X2672588Y1478534D01*
G01X3373120Y1478534D02*
G01X3373120Y1413510D01*
G01X3373120Y1478534D02*
G01X3401060Y1478534D01*
G01X3410204Y1475486D01*
G01X3413252Y1472438D01*
G01X3416554Y1466088D01*
G01X3416554Y1459992D01*
G01X3413252Y1453896D01*
G01X3410204Y1450848D01*
G01X3401060Y1447546D01*
G01X3373120Y1447546D01*
G01X3394710Y1447546D02*
G01X3416554Y1413510D01*
G01X3446780Y1466088D02*
G01X3452876Y1469390D01*
G01X3462020Y1478534D01*
G01X3462020Y1413510D01*
G01X3492246Y1466088D02*
G01X3498342Y1469390D01*
G01X3507486Y1478534D01*
G01X3507486Y1413510D01*
G01X4198620Y1478534D02*
G01X4198620Y1413510D01*
G01X4198620Y1478534D02*
G01X4226560Y1478534D01*
G01X4235704Y1475486D01*
G01X4238752Y1472438D01*
G01X4242054Y1466088D01*
G01X4242054Y1459992D01*
G01X4238752Y1453896D01*
G01X4235704Y1450848D01*
G01X4226560Y1447546D01*
G01X4198620Y1447546D01*
G01X4220210Y1447546D02*
G01X4242054Y1413510D01*
G01X4272280Y1466088D02*
G01X4278376Y1469390D01*
G01X4287520Y1478534D01*
G01X4287520Y1413510D01*
G01X4320794Y1463040D02*
G01X4320794Y1466088D01*
G01X4323842Y1472438D01*
G01X4326890Y1475486D01*
G01X4332986Y1478534D01*
G01X4345432Y1478534D01*
G01X4351782Y1475486D01*
G01X4354830Y1472438D01*
G01X4357878Y1466088D01*
G01X4357878Y1459992D01*
G01X4354830Y1453896D01*
G01X4348480Y1444498D01*
G01X4317746Y1413510D01*
G01X4360926Y1413510D01*
G01X5036820Y1478534D02*
G01X5036820Y1413510D01*
G01X5036820Y1478534D02*
G01X5064760Y1478534D01*
G01X5073904Y1475486D01*
G01X5076952Y1472438D01*
G01X5080254Y1466088D01*
G01X5080254Y1459992D01*
G01X5076952Y1453896D01*
G01X5073904Y1450848D01*
G01X5064760Y1447546D01*
G01X5036820Y1447546D01*
G01X5058410Y1447546D02*
G01X5080254Y1413510D01*
G01X5110480Y1466088D02*
G01X5116576Y1469390D01*
G01X5125720Y1478534D01*
G01X5125720Y1413510D01*
G01X5162042Y1478534D02*
G01X5196078Y1478534D01*
G01X5177536Y1453896D01*
G01X5186680Y1453896D01*
G01X5193030Y1450848D01*
G01X5196078Y1447546D01*
G01X5199126Y1438402D01*
G01X5199126Y1432052D01*
G01X5196078Y1422908D01*
G01X5189982Y1416558D01*
G01X5180584Y1413510D01*
G01X5171186Y1413510D01*
G01X5162042Y1416558D01*
G01X5158994Y1419860D01*
G01X5155946Y1425956D01*
G01X5875020Y1478534D02*
G01X5875020Y1413510D01*
G01X5875020Y1478534D02*
G01X5902960Y1478534D01*
G01X5912104Y1475486D01*
G01X5915152Y1472438D01*
G01X5918454Y1466088D01*
G01X5918454Y1459992D01*
G01X5915152Y1453896D01*
G01X5912104Y1450848D01*
G01X5902960Y1447546D01*
G01X5875020Y1447546D01*
G01X5896610Y1447546D02*
G01X5918454Y1413510D01*
G01X5948680Y1466088D02*
G01X5954776Y1469390D01*
G01X5963920Y1478534D01*
G01X5963920Y1413510D01*
G01X6024880Y1478534D02*
G01X5994146Y1435354D01*
G01X6040374Y1435354D01*
G01X6024880Y1478534D02*
G01X6024880Y1413510D01*
G01X6700520Y1478534D02*
G01X6700520Y1413510D01*
G01X6700520Y1478534D02*
G01X6728460Y1478534D01*
G01X6737604Y1475486D01*
G01X6740652Y1472438D01*
G01X6743954Y1466088D01*
G01X6743954Y1459992D01*
G01X6740652Y1453896D01*
G01X6737604Y1450848D01*
G01X6728460Y1447546D01*
G01X6700520Y1447546D01*
G01X6722110Y1447546D02*
G01X6743954Y1413510D01*
G01X6774180Y1466088D02*
G01X6780276Y1469390D01*
G01X6789420Y1478534D01*
G01X6789420Y1413510D01*
G01X6856730Y1478534D02*
G01X6825742Y1478534D01*
G01X6822694Y1450848D01*
G01X6825742Y1453896D01*
G01X6834886Y1456944D01*
G01X6844284Y1456944D01*
G01X6853682Y1453896D01*
G01X6859778Y1447546D01*
G01X6862826Y1438402D01*
G01X6862826Y1432052D01*
G01X6859778Y1422908D01*
G01X6853682Y1416558D01*
G01X6844284Y1413510D01*
G01X6834886Y1413510D01*
G01X6825742Y1416558D01*
G01X6822694Y1419860D01*
G01X6819646Y1425956D01*
G01X1880870Y3899758D02*
G01X1945894Y3899758D01*
G01X1880870Y3899758D02*
G01X1880870Y3927698D01*
G01X1883918Y3936842D01*
G01X1886966Y3939890D01*
G01X1893316Y3943192D01*
G01X1899412Y3943192D01*
G01X1905508Y3939890D01*
G01X1908556Y3936842D01*
G01X1911858Y3927698D01*
G01X1911858Y3899758D01*
G01X1911858Y3921348D02*
G01X1945894Y3943192D01*
G01X1893316Y3973418D02*
G01X1890014Y3979514D01*
G01X1880870Y3988658D01*
G01X1945894Y3988658D01*
G01X1890014Y4055968D02*
G01X1883918Y4052920D01*
G01X1880870Y4043522D01*
G01X1880870Y4037426D01*
G01X1883918Y4028028D01*
G01X1893316Y4021932D01*
G01X1908556Y4018884D01*
G01X1924050Y4018884D01*
G01X1936496Y4021932D01*
G01X1942846Y4028028D01*
G01X1945894Y4037426D01*
G01X1945894Y4040474D01*
G01X1942846Y4049618D01*
G01X1936496Y4055968D01*
G01X1927352Y4059016D01*
G01X1924050Y4059016D01*
G01X1914906Y4055968D01*
G01X1908556Y4049618D01*
G01X1905508Y4040474D01*
G01X1905508Y4037426D01*
G01X1908556Y4028028D01*
G01X1914906Y4021932D01*
G01X1924050Y4018884D01*
G04 Text End*

G04 PolygonModel Start*
G54D13*
G01X6748352Y4927000D02*
G01X7508000Y4927000D01*
G01X7508000Y4927000D02*
G01X7508000Y4673000D01*
G01X7508000Y4673000D02*
G01X6492000Y4673000D01*
G01X6492000Y4673000D02*
G01X6492000Y4927000D01*
G01X6492000Y4927000D02*
G01X6748352Y4927000D01*
G01X6748352Y4927000D02*
G01X6748352Y4673000D01*
G01X3202752Y4927600D02*
G01X3962400Y4927600D01*
G01X3962400Y4927600D02*
G01X3962400Y4673600D01*
G01X3962400Y4673600D02*
G01X2946400Y4673600D01*
G01X2946400Y4673600D02*
G01X2946400Y4927600D01*
G01X2946400Y4927600D02*
G01X3202752Y4927600D01*
G01X3202752Y4927600D02*
G01X3202752Y4673600D01*
G01X5880100Y4317600D02*
G01X5118100Y4317600D01*
G01X5372100Y4567599D02*
G01X5372100Y4317600D01*
G01X5879998Y4567599D02*
G01X5879998Y4317600D01*
G01X5118100Y4567599D02*
G01X5879998Y4567599D01*
G01X5118100Y4317600D02*
G01X5118100Y4567599D01*
G01X5880100Y4055701D02*
G01X5118100Y4055701D01*
G01X5372100Y4305700D02*
G01X5372100Y4055701D01*
G01X5879998Y4305700D02*
G01X5879998Y4055701D01*
G01X5118100Y4305700D02*
G01X5879998Y4305700D01*
G01X5118100Y4055701D02*
G01X5118100Y4305700D01*
G54D11*
G01X5917979Y2442180D02*
G01X5917979Y2612420D01*
G01X6223221Y2442180D02*
G01X6223221Y2612420D01*
G01X6118240Y2612420D02*
G01X6022960Y2612420D01*
G54D13*
G01X7672995Y1331293D02*
G01X7672995Y421297D01*
G01X7312998Y1331293D02*
G01X7312998Y421297D01*
G01X7672995Y1331293D02*
G01X7312998Y1331293D01*
G01X7672995Y421297D02*
G01X7312998Y421297D01*
G01X7583005Y1126274D02*
G01X7583005Y626275D01*
G01X7402995Y626275D01*
G01X7402995Y1126274D01*
G01X7583005Y1126274D01*
G01X7572997Y806285D02*
G01X7572997Y666280D01*
G01X7422985Y666280D01*
G01X7422985Y806285D01*
G01X7572997Y806285D01*
G54D14*
G01X4334010Y2789572D02*
G01X4334010Y2169812D01*
G01X4334010Y2169812D02*
G01X3668530Y2169812D01*
G01X3668530Y2169812D02*
G01X3668530Y2832752D01*
G01X3668530Y2832752D02*
G01X4334010Y2832752D01*
G01X4334010Y2832752D02*
G01X4334010Y2756552D01*
G54D15*
G01X3594001Y2839011D02*
G03X3554002Y2838884I-20000J-127D01*
G03X3594001Y2838757I20000J0D01*
G54D13*
G01X7739695Y2957208D02*
G01X7540300Y2957208D01*
G01X8082598Y2957208D02*
G01X7935300Y2957208D01*
G01X7739383Y2050009D02*
G01X7540610Y2050009D01*
G01X8097497Y2050009D02*
G01X7935613Y2050009D01*
G01X8097497Y2950007D02*
G01X8097497Y2050009D01*
G54D16*
G01X2451105Y2654303D02*
G01X2374905Y2654303D01*
G01X2374905Y2654303D02*
G01X2362205Y2654303D01*
G54D11*
G01X2384831Y2603251D02*
G01X2384831Y2628905D01*
G01X2384831Y2628905D02*
G01X2717820Y2628905D01*
G01X2717820Y2628905D02*
G01X2717820Y2171705D01*
G01X2717820Y2171705D02*
G01X2552720Y2171705D01*
G01X2552720Y2171705D02*
G01X2387620Y2171705D01*
G01X2387620Y2171705D02*
G01X2384831Y2603251D01*
G54D16*
G01X2362205Y2654303D02*
G01X2362205Y2565403D01*
G54D11*
G01X2998097Y3464439D02*
G01X2711210Y3177552D01*
G01X2845558Y3616977D02*
G01X2998097Y3464439D01*
G01X2711210Y3177552D02*
G01X2558671Y3330091D01*
G01X2558671Y3330091D02*
G01X2845558Y3616977D01*
G54D13*
G01X1955800Y3337748D02*
G01X1955800Y2578100D01*
G01X1955800Y2578100D02*
G01X1701800Y2578100D01*
G01X1701800Y2578100D02*
G01X1701800Y3594100D01*
G01X1701800Y3594100D02*
G01X1955800Y3594100D01*
G01X1955800Y3594100D02*
G01X1955800Y3337748D01*
G01X1955800Y3337748D02*
G01X1701800Y3337748D01*
G54D11*
G01X1318880Y643354D02*
G01X1459881Y643354D01*
G01X1459881Y824075D02*
G01X1318880Y824075D01*
G01X1303640Y808835D02*
G01X1303640Y658594D01*
G01X1681120Y643354D02*
G01X1540119Y643354D01*
G01X1540119Y824075D02*
G01X1681120Y824075D01*
G01X1696360Y808835D02*
G01X1696360Y658594D01*
G01X1318880Y824075D02*
G03X1303640Y808835I0J-15240D01*
G01X1303640Y658594D02*
G03X1318880Y643354I15240J0D01*
G01X1681120Y824075D02*
G02X1696360Y808835I0J-15240D01*
G01X1696360Y658594D02*
G02X1681120Y643354I-15240J0D01*
G01X2152214Y643354D02*
G01X2293214Y643354D01*
G01X2293214Y824075D02*
G01X2152214Y824075D01*
G01X2136974Y808835D02*
G01X2136974Y658594D01*
G01X2514453Y643354D02*
G01X2373453Y643354D01*
G01X2373453Y824075D02*
G01X2514453Y824075D01*
G01X2529693Y808835D02*
G01X2529693Y658594D01*
G01X2152214Y824075D02*
G03X2136974Y808835I0J-15240D01*
G01X2136974Y658594D02*
G03X2152214Y643354I15240J0D01*
G01X2514453Y824075D02*
G02X2529693Y808835I0J-15240D01*
G01X2529693Y658594D02*
G02X2514453Y643354I-15240J0D01*
G01X2985547Y643354D02*
G01X3126547Y643354D01*
G01X3126547Y824075D02*
G01X2985547Y824075D01*
G01X2970307Y808835D02*
G01X2970307Y658594D01*
G01X3347787Y643354D02*
G01X3206786Y643354D01*
G01X3206786Y824075D02*
G01X3347787Y824075D01*
G01X3363027Y808835D02*
G01X3363027Y658594D01*
G01X2985547Y824075D02*
G03X2970307Y808835I0J-15240D01*
G01X2970307Y658594D02*
G03X2985547Y643354I15240J0D01*
G01X3347787Y824075D02*
G02X3363027Y808835I0J-15240D01*
G01X3363027Y658594D02*
G02X3347787Y643354I-15240J0D01*
G01X3818880Y643354D02*
G01X3959881Y643354D01*
G01X3959881Y824075D02*
G01X3818880Y824075D01*
G01X3803640Y808835D02*
G01X3803640Y658594D01*
G01X4181120Y643354D02*
G01X4040119Y643354D01*
G01X4040119Y824075D02*
G01X4181120Y824075D01*
G01X4196360Y808835D02*
G01X4196360Y658594D01*
G01X3818880Y824075D02*
G03X3803640Y808835I0J-15240D01*
G01X3803640Y658594D02*
G03X3818880Y643354I15240J0D01*
G01X4181120Y824075D02*
G02X4196360Y808835I0J-15240D01*
G01X4196360Y658594D02*
G02X4181120Y643354I-15240J0D01*
G01X4652213Y643354D02*
G01X4793214Y643354D01*
G01X4793214Y824075D02*
G01X4652213Y824075D01*
G01X4636973Y808835D02*
G01X4636973Y658594D01*
G01X5014453Y643354D02*
G01X4873453Y643354D01*
G01X4873453Y824075D02*
G01X5014453Y824075D01*
G01X5029693Y808835D02*
G01X5029693Y658594D01*
G01X4652213Y824075D02*
G03X4636973Y808835I0J-15240D01*
G01X4636973Y658594D02*
G03X4652213Y643354I15240J0D01*
G01X5014453Y824075D02*
G02X5029693Y808835I0J-15240D01*
G01X5029693Y658594D02*
G02X5014453Y643354I-15240J0D01*
G01X5485547Y643354D02*
G01X5626547Y643354D01*
G01X5626547Y824075D02*
G01X5485547Y824075D01*
G01X5470307Y808835D02*
G01X5470307Y658594D01*
G01X5847786Y643354D02*
G01X5706786Y643354D01*
G01X5706786Y824075D02*
G01X5847786Y824075D01*
G01X5863026Y808835D02*
G01X5863026Y658594D01*
G01X5485547Y824075D02*
G03X5470307Y808835I0J-15240D01*
G01X5470307Y658594D02*
G03X5485547Y643354I15240J0D01*
G01X5847786Y824075D02*
G02X5863026Y808835I0J-15240D01*
G01X5863026Y658594D02*
G02X5847786Y643354I-15240J0D01*
G01X6318880Y643354D02*
G01X6459881Y643354D01*
G01X6459881Y824075D02*
G01X6318880Y824075D01*
G01X6303640Y808835D02*
G01X6303640Y658594D01*
G01X6681120Y643354D02*
G01X6540119Y643354D01*
G01X6540119Y824075D02*
G01X6681120Y824075D01*
G01X6696360Y808835D02*
G01X6696360Y658594D01*
G01X6318880Y824075D02*
G03X6303640Y808835I0J-15240D01*
G01X6303640Y658594D02*
G03X6318880Y643354I15240J0D01*
G01X6681120Y824075D02*
G02X6696360Y808835I0J-15240D01*
G01X6696360Y658594D02*
G02X6681120Y643354I-15240J0D01*
G01X5789740Y2187720D02*
G01X5789740Y2046719D01*
G01X5970461Y2046719D02*
G01X5970461Y2187720D01*
G01X5955221Y2202960D02*
G01X5804980Y2202960D01*
G01X5789740Y1825480D02*
G01X5789740Y1966481D01*
G01X5970461Y1966481D02*
G01X5970461Y1825480D01*
G01X5955221Y1810240D02*
G01X5804980Y1810240D01*
G01X5970461Y2187720D02*
G03X5955221Y2202960I-15240J0D01*
G01X5804980Y2202960D02*
G03X5789740Y2187720I0J-15240D01*
G01X5970461Y1825480D02*
G02X5955221Y1810240I-15240J0D01*
G01X5804980Y1810240D02*
G02X5789740Y1825480I0J15240D01*
G01X6158040Y2187720D02*
G01X6158040Y2046719D01*
G01X6338761Y2046719D02*
G01X6338761Y2187720D01*
G01X6323521Y2202960D02*
G01X6173280Y2202960D01*
G01X6158040Y1825480D02*
G01X6158040Y1966481D01*
G01X6338761Y1966481D02*
G01X6338761Y1825480D01*
G01X6323521Y1810240D02*
G01X6173280Y1810240D01*
G01X6338761Y2187720D02*
G03X6323521Y2202960I-15240J0D01*
G01X6173280Y2202960D02*
G03X6158040Y2187720I0J-15240D01*
G01X6338761Y1825480D02*
G02X6323521Y1810240I-15240J0D01*
G01X6173280Y1810240D02*
G02X6158040Y1825480I0J15240D01*
G01X6341168Y2893736D02*
G01X6341168Y3034737D01*
G01X6160447Y3034737D02*
G01X6160447Y2893736D01*
G01X6175687Y2878496D02*
G01X6325928Y2878496D01*
G01X6341168Y3255976D02*
G01X6341168Y3114975D01*
G01X6160447Y3114975D02*
G01X6160447Y3255976D01*
G01X6175687Y3271216D02*
G01X6325928Y3271216D01*
G01X6160447Y2893736D02*
G03X6175687Y2878496I15240J0D01*
G01X6325928Y2878496D02*
G03X6341168Y2893736I0J15240D01*
G01X6160447Y3255976D02*
G02X6175687Y3271216I15240J0D01*
G01X6325928Y3271216D02*
G02X6341168Y3255976I0J-15240D01*
G01X5970461Y2893736D02*
G01X5970461Y3034737D01*
G01X5789740Y3034737D02*
G01X5789740Y2893736D01*
G01X5804980Y2878496D02*
G01X5955221Y2878496D01*
G01X5970461Y3255976D02*
G01X5970461Y3114975D01*
G01X5789740Y3114975D02*
G01X5789740Y3255976D01*
G01X5804980Y3271216D02*
G01X5955221Y3271216D01*
G01X5789740Y2893736D02*
G03X5804980Y2878496I15240J0D01*
G01X5955221Y2878496D02*
G03X5970461Y2893736I0J15240D01*
G01X5789740Y3255976D02*
G02X5804980Y3271216I15240J0D01*
G01X5955221Y3271216D02*
G02X5970461Y3255976I0J-15240D01*
G01X1117944Y2349420D02*
G01X1117944Y2208420D01*
G01X1298665Y2208420D02*
G01X1298665Y2349420D01*
G01X1283425Y2364660D02*
G01X1133184Y2364660D01*
G01X1117944Y1987180D02*
G01X1117944Y2128181D01*
G01X1298665Y2128181D02*
G01X1298665Y1987180D01*
G01X1283425Y1971940D02*
G01X1133184Y1971940D01*
G01X1298665Y2349420D02*
G03X1283425Y2364660I-15240J0D01*
G01X1133184Y2364660D02*
G03X1117944Y2349420I0J-15240D01*
G01X1298665Y1987180D02*
G02X1283425Y1971940I-15240J0D01*
G01X1133184Y1971940D02*
G02X1117944Y1987180I0J15240D01*
G01X3465640Y2136920D02*
G01X3465640Y1995919D01*
G01X3646361Y1995919D02*
G01X3646361Y2136920D01*
G01X3631121Y2152160D02*
G01X3480880Y2152160D01*
G01X3465640Y1774680D02*
G01X3465640Y1915681D01*
G01X3646361Y1915681D02*
G01X3646361Y1774680D01*
G01X3631121Y1759440D02*
G01X3480880Y1759440D01*
G01X3646361Y2136920D02*
G03X3631121Y2152160I-15240J0D01*
G01X3480880Y2152160D02*
G03X3465640Y2136920I0J-15240D01*
G01X3646361Y1774680D02*
G02X3631121Y1759440I-15240J0D01*
G01X3480880Y1759440D02*
G02X3465640Y1774680I0J15240D01*
G01X5076680Y1878140D02*
G01X5217681Y1878140D01*
G01X5217681Y2058861D02*
G01X5076680Y2058861D01*
G01X5061440Y2043621D02*
G01X5061440Y1893380D01*
G01X5438920Y1878140D02*
G01X5297919Y1878140D01*
G01X5297919Y2058861D02*
G01X5438920Y2058861D01*
G01X5454160Y2043621D02*
G01X5454160Y1893380D01*
G01X5076680Y2058861D02*
G03X5061440Y2043621I0J-15240D01*
G01X5061440Y1893380D02*
G03X5076680Y1878140I15240J0D01*
G01X5438920Y2058861D02*
G02X5454160Y2043621I0J-15240D01*
G01X5454160Y1893380D02*
G02X5438920Y1878140I-15240J0D01*
G01X4509961Y2968480D02*
G01X4509961Y3109481D01*
G01X4329240Y3109481D02*
G01X4329240Y2968480D01*
G01X4344480Y2953240D02*
G01X4494721Y2953240D01*
G01X4509961Y3330720D02*
G01X4509961Y3189719D01*
G01X4329240Y3189719D02*
G01X4329240Y3330720D01*
G01X4344480Y3345960D02*
G01X4494721Y3345960D01*
G01X4329240Y2968480D02*
G03X4344480Y2953240I15240J0D01*
G01X4494721Y2953240D02*
G03X4509961Y2968480I0J15240D01*
G01X4329240Y3330720D02*
G02X4344480Y3345960I15240J0D01*
G01X4494721Y3345960D02*
G02X4509961Y3330720I0J-15240D01*
G01X3646361Y2955780D02*
G01X3646361Y3096781D01*
G01X3465640Y3096781D02*
G01X3465640Y2955780D01*
G01X3480880Y2940540D02*
G01X3631121Y2940540D01*
G01X3646361Y3318020D02*
G01X3646361Y3177019D01*
G01X3465640Y3177019D02*
G01X3465640Y3318020D01*
G01X3480880Y3333260D02*
G01X3631121Y3333260D01*
G01X3465640Y2955780D02*
G03X3480880Y2940540I15240J0D01*
G01X3631121Y2940540D02*
G03X3646361Y2955780I0J15240D01*
G01X3465640Y3318020D02*
G02X3480880Y3333260I15240J0D01*
G01X3631121Y3333260D02*
G02X3646361Y3318020I0J-15240D01*
G01X7288340Y4384820D02*
G01X7288340Y4243819D01*
G01X7469061Y4243819D02*
G01X7469061Y4384820D01*
G01X7453821Y4400060D02*
G01X7303580Y4400060D01*
G01X7288340Y4022580D02*
G01X7288340Y4163581D01*
G01X7469061Y4163581D02*
G01X7469061Y4022580D01*
G01X7453821Y4007340D02*
G01X7303580Y4007340D01*
G01X7469061Y4384820D02*
G03X7453821Y4400060I-15240J0D01*
G01X7303580Y4400060D02*
G03X7288340Y4384820I0J-15240D01*
G01X7469061Y4022580D02*
G02X7453821Y4007340I-15240J0D01*
G01X7303580Y4007340D02*
G02X7288340Y4022580I0J15240D01*
G01X2905239Y2859220D02*
G01X2905239Y2718219D01*
G01X3085960Y2718219D02*
G01X3085960Y2859220D01*
G01X3070720Y2874460D02*
G01X2920479Y2874460D01*
G01X2905239Y2496980D02*
G01X2905239Y2637981D01*
G01X3085960Y2637981D02*
G01X3085960Y2496980D01*
G01X3070720Y2481740D02*
G01X2920479Y2481740D01*
G01X3085960Y2859220D02*
G03X3070720Y2874460I-15240J0D01*
G01X2920479Y2874460D02*
G03X2905239Y2859220I0J-15240D01*
G01X3085960Y2496980D02*
G02X3070720Y2481740I-15240J0D01*
G01X2920479Y2481740D02*
G02X2905239Y2496980I0J15240D01*
G01X2906840Y2311519D02*
G01X2906840Y2170519D01*
G01X3087561Y2170519D02*
G01X3087561Y2311519D01*
G01X3072321Y2326759D02*
G01X2922080Y2326759D01*
G01X2906840Y1949280D02*
G01X2906840Y2090280D01*
G01X3087561Y2090280D02*
G01X3087561Y1949280D01*
G01X3072321Y1934040D02*
G01X2922080Y1934040D01*
G01X3087561Y2311519D02*
G03X3072321Y2326759I-15240J0D01*
G01X2922080Y2326759D02*
G03X2906840Y2311519I0J-15240D01*
G01X3087561Y1949280D02*
G02X3072321Y1934040I-15240J0D01*
G01X2922080Y1934040D02*
G02X2906840Y1949280I0J15240D01*
G01X3093483Y3130816D02*
G01X3193185Y3230519D01*
G01X3065396Y3358308D02*
G01X2965694Y3258606D01*
G01X2965694Y3237053D02*
G01X3071930Y3130816D01*
G01X3349625Y3386959D02*
G01X3249923Y3287256D01*
G01X3122134Y3415045D02*
G01X3221836Y3514748D01*
G01X3243389Y3514748D02*
G01X3349625Y3408511D01*
G01X2965694Y3258606D02*
G03X2965694Y3237053I10776J-10776D01*
G01X3071930Y3130816D02*
G03X3093483Y3130816I10776J10776D01*
G01X3221836Y3514748D02*
G02X3243389Y3514748I10776J-10776D01*
G01X3349625Y3408511D02*
G02X3349625Y3386959I-10776J-10776D01*
G01X2914402Y3212060D02*
G01X2814700Y3112357D01*
G01X2942489Y2984568D02*
G01X3042191Y3084271D01*
G01X3042191Y3105823D02*
G01X2935955Y3212060D01*
G01X2658260Y2955918D02*
G01X2757963Y3055620D01*
G01X2885752Y2927831D02*
G01X2786049Y2828128D01*
G01X2764497Y2828128D02*
G01X2658260Y2934365D01*
G01X3042191Y3084271D02*
G03X3042191Y3105823I-10776J10776D01*
G01X2935955Y3212060D02*
G03X2914402Y3212060I-10776J-10776D01*
G01X2786049Y2828128D02*
G02X2764497Y2828128I-10776J10776D01*
G01X2658260Y2934365D02*
G02X2658260Y2955918I10776J10776D01*
G01X1298732Y4149486D02*
G01X1298732Y4689719D01*
G01X1571473Y4149486D02*
G01X1571473Y4689719D01*
G01X1298732Y4285706D02*
G01X1571473Y4285706D01*
G01X1298732Y4689719D02*
G01X1333782Y4689719D01*
G01X1571473Y4689719D02*
G01X1536423Y4689719D01*
G36*
G01X1291112Y4157104D02*
G01X1338862Y4157104D01*
G01X1338862Y4111384D01*
G01X1291112Y4111384D01*
G01X1291112Y4157104D01*
G37*
G36*
G01X1579093Y4157104D02*
G01X1579093Y4111384D01*
G01X1531343Y4111384D01*
G01X1531343Y4157104D01*
G01X1579093Y4157104D01*
G37*
G54D13*
G01X5162293Y2483392D02*
G01X5161295Y2631401D01*
G01X5351295Y2497400D02*
G01X5351295Y2631401D01*
G01X5161295Y2631401D02*
G01X5351297Y2631401D01*
G01X5352296Y2258389D02*
G01X5352291Y2258389D01*
G01X5352291Y2258389D02*
G01X5317297Y2223395D01*
G01X5162293Y2258389D02*
G01X5162299Y2258389D01*
G01X5162299Y2258389D02*
G01X5197292Y2223395D01*
G01X5162293Y2383392D02*
G01X5162293Y2258389D01*
G01X5352296Y2383392D02*
G01X5352296Y2258389D01*
G01X5197292Y2223395D02*
G01X5317297Y2223395D01*
G01X5207295Y2463400D02*
G01X5307294Y2463400D01*
G01X5257800Y2463400D02*
G01X5257800Y2413400D01*
G01X6751820Y4324803D02*
G01X6899829Y4325802D01*
G01X6765828Y4135802D02*
G01X6899829Y4135802D01*
G01X6899829Y4325802D02*
G01X6899829Y4135799D01*
G01X6526817Y4134801D02*
G01X6526817Y4134806D01*
G01X6526817Y4134806D02*
G01X6491823Y4169800D01*
G01X6526817Y4324803D02*
G01X6526817Y4324798D01*
G01X6526817Y4324798D02*
G01X6491823Y4289805D01*
G01X6651821Y4324803D02*
G01X6526817Y4324803D01*
G01X6651821Y4134801D02*
G01X6526817Y4134801D01*
G01X6491823Y4289805D02*
G01X6491823Y4169800D01*
G01X6731828Y4279802D02*
G01X6731828Y4179802D01*
G01X6731828Y4229297D02*
G01X6681828Y4229297D01*
G01X1543592Y1179162D02*
G01X1691601Y1180160D01*
G01X1557600Y990161D02*
G01X1691601Y990161D01*
G01X1691601Y1180160D02*
G01X1691601Y990158D01*
G01X1318589Y989160D02*
G01X1318589Y989165D01*
G01X1318589Y989165D02*
G01X1283595Y1024158D01*
G01X1318589Y1179162D02*
G01X1318589Y1179157D01*
G01X1318589Y1179157D02*
G01X1283595Y1144163D01*
G01X1443592Y1179162D02*
G01X1318589Y1179162D01*
G01X1443592Y989160D02*
G01X1318589Y989160D01*
G01X1283595Y1144163D02*
G01X1283595Y1024158D01*
G01X1523600Y1134161D02*
G01X1523600Y1034161D01*
G01X1523600Y1083655D02*
G01X1473600Y1083655D01*
G01X2377559Y1179162D02*
G01X2525567Y1180160D01*
G01X2391567Y990161D02*
G01X2525567Y990161D01*
G01X2525567Y1180160D02*
G01X2525567Y990158D01*
G01X2152556Y989160D02*
G01X2152556Y989165D01*
G01X2152556Y989165D02*
G01X2117562Y1024158D01*
G01X2152556Y1179162D02*
G01X2152556Y1179157D01*
G01X2152556Y1179157D02*
G01X2117562Y1144163D01*
G01X2277559Y1179162D02*
G01X2152556Y1179162D01*
G01X2277559Y989160D02*
G01X2152556Y989160D01*
G01X2117562Y1144163D02*
G01X2117562Y1024158D01*
G01X2357567Y1134161D02*
G01X2357567Y1034161D01*
G01X2357567Y1083655D02*
G01X2307567Y1083655D01*
G01X3211526Y1179162D02*
G01X3359534Y1180160D01*
G01X3225534Y990161D02*
G01X3359534Y990161D01*
G01X3359534Y1180160D02*
G01X3359534Y990158D01*
G01X2986522Y989160D02*
G01X2986522Y989165D01*
G01X2986522Y989165D02*
G01X2951529Y1024158D01*
G01X2986522Y1179162D02*
G01X2986522Y1179157D01*
G01X2986522Y1179157D02*
G01X2951529Y1144163D01*
G01X3111526Y1179162D02*
G01X2986522Y1179162D01*
G01X3111526Y989160D02*
G01X2986522Y989160D01*
G01X2951529Y1144163D02*
G01X2951529Y1024158D01*
G01X3191533Y1134161D02*
G01X3191533Y1034161D01*
G01X3191533Y1083655D02*
G01X3141533Y1083655D01*
G01X4045492Y1179162D02*
G01X4193501Y1180160D01*
G01X4059500Y990161D02*
G01X4193501Y990161D01*
G01X4193501Y1180160D02*
G01X4193501Y990158D01*
G01X3820489Y989160D02*
G01X3820489Y989165D01*
G01X3820489Y989165D02*
G01X3785495Y1024158D01*
G01X3820489Y1179162D02*
G01X3820489Y1179157D01*
G01X3820489Y1179157D02*
G01X3785495Y1144163D01*
G01X3945492Y1179162D02*
G01X3820489Y1179162D01*
G01X3945492Y989160D02*
G01X3820489Y989160D01*
G01X3785495Y1144163D02*
G01X3785495Y1024158D01*
G01X4025500Y1134161D02*
G01X4025500Y1034161D01*
G01X4025500Y1083655D02*
G01X3975500Y1083655D01*
G01X4879459Y1179162D02*
G01X5027467Y1180160D01*
G01X4893467Y990161D02*
G01X5027467Y990161D01*
G01X5027467Y1180160D02*
G01X5027467Y990158D01*
G01X4654456Y989160D02*
G01X4654456Y989165D01*
G01X4654456Y989165D02*
G01X4619462Y1024158D01*
G01X4654456Y1179162D02*
G01X4654456Y1179157D01*
G01X4654456Y1179157D02*
G01X4619462Y1144163D01*
G01X4779459Y1179162D02*
G01X4654456Y1179162D01*
G01X4779459Y989160D02*
G01X4654456Y989160D01*
G01X4619462Y1144163D02*
G01X4619462Y1024158D01*
G01X4859467Y1134161D02*
G01X4859467Y1034161D01*
G01X4859467Y1083655D02*
G01X4809467Y1083655D01*
G01X5713426Y1179162D02*
G01X5861434Y1180160D01*
G01X5727434Y990161D02*
G01X5861434Y990161D01*
G01X5861434Y1180160D02*
G01X5861434Y990158D01*
G01X5488422Y989160D02*
G01X5488422Y989165D01*
G01X5488422Y989165D02*
G01X5453429Y1024158D01*
G01X5488422Y1179162D02*
G01X5488422Y1179157D01*
G01X5488422Y1179157D02*
G01X5453429Y1144163D01*
G01X5613426Y1179162D02*
G01X5488422Y1179162D01*
G01X5613426Y989160D02*
G01X5488422Y989160D01*
G01X5453429Y1144163D02*
G01X5453429Y1024158D01*
G01X5693433Y1134161D02*
G01X5693433Y1034161D01*
G01X5693433Y1083655D02*
G01X5643433Y1083655D01*
G01X6547392Y1179162D02*
G01X6695401Y1180160D01*
G01X6561400Y990161D02*
G01X6695401Y990161D01*
G01X6695401Y1180160D02*
G01X6695401Y990158D01*
G01X6322389Y989160D02*
G01X6322389Y989165D01*
G01X6322389Y989165D02*
G01X6287395Y1024158D01*
G01X6322389Y1179162D02*
G01X6322389Y1179157D01*
G01X6322389Y1179157D02*
G01X6287395Y1144163D01*
G01X6447392Y1179162D02*
G01X6322389Y1179162D01*
G01X6447392Y989160D02*
G01X6322389Y989160D01*
G01X6287395Y1144163D02*
G01X6287395Y1024158D01*
G01X6527400Y1134161D02*
G01X6527400Y1034161D01*
G01X6527400Y1083655D02*
G01X6477400Y1083655D01*
G01X2146399Y4705500D02*
G01X2232800Y4705500D01*
G01X2232800Y4705500D02*
G01X2232800Y4605498D01*
G01X2051403Y4565500D02*
G01X2114197Y4565500D01*
G01X1932800Y4705500D02*
G01X2019201Y4705500D01*
G01X1932800Y4705500D02*
G01X1932800Y4605498D01*
G54D11*
G01X6848480Y2771409D02*
G01X6719987Y2771409D01*
G01X6719987Y2771409D02*
G01X6719987Y2587991D01*
G01X6719987Y2587991D02*
G01X6848480Y2587991D01*
G01X6943720Y2771409D02*
G01X7072213Y2771409D01*
G01X7072213Y2771409D02*
G01X7072213Y2587991D01*
G01X7072213Y2587991D02*
G01X6943720Y2587991D01*
G01X6848480Y2466609D02*
G01X6719987Y2466609D01*
G01X6719987Y2466609D02*
G01X6719987Y2283191D01*
G01X6719987Y2283191D02*
G01X6848480Y2283191D01*
G01X6943720Y2466609D02*
G01X7072213Y2466609D01*
G01X7072213Y2466609D02*
G01X7072213Y2283191D01*
G01X7072213Y2283191D02*
G01X6943720Y2283191D01*
G01X5349509Y2968620D02*
G01X5349509Y3097113D01*
G01X5349509Y3097113D02*
G01X5166091Y3097113D01*
G01X5166091Y3097113D02*
G01X5166091Y2968620D01*
G01X5349509Y2873380D02*
G01X5349509Y2744887D01*
G01X5349509Y2744887D02*
G01X5166091Y2744887D01*
G01X5166091Y2744887D02*
G01X5166091Y2873380D01*
G01X6659580Y3912809D02*
G01X6531087Y3912809D01*
G01X6531087Y3912809D02*
G01X6531087Y3729391D01*
G01X6531087Y3729391D02*
G01X6659580Y3729391D01*
G01X6754820Y3912809D02*
G01X6883314Y3912809D01*
G01X6883314Y3912809D02*
G01X6883314Y3729391D01*
G01X6883314Y3729391D02*
G01X6754820Y3729391D01*
G01X1296814Y2796630D02*
G01X1296814Y2925124D01*
G01X1296814Y2925124D02*
G01X1113395Y2925124D01*
G01X1113395Y2925124D02*
G01X1113395Y2796630D01*
G01X1296814Y2701390D02*
G01X1296814Y2572897D01*
G01X1296814Y2572897D02*
G01X1113395Y2572897D01*
G01X1113395Y2572897D02*
G01X1113395Y2701390D01*
G01X5445120Y4696191D02*
G01X5573613Y4696191D01*
G01X5573613Y4696191D02*
G01X5573613Y4879609D01*
G01X5573613Y4879609D02*
G01X5445120Y4879609D01*
G01X5349880Y4696191D02*
G01X5221387Y4696191D01*
G01X5221387Y4696191D02*
G01X5221387Y4879609D01*
G01X5221387Y4879609D02*
G01X5349880Y4879609D01*
G01X5349880Y3924710D02*
G01X5221387Y3924710D01*
G01X5221387Y3924710D02*
G01X5221387Y3741292D01*
G01X5221387Y3741292D02*
G01X5349880Y3741292D01*
G01X5445120Y3924710D02*
G01X5573613Y3924710D01*
G01X5573613Y3924710D02*
G01X5573613Y3741292D01*
G01X5573613Y3741292D02*
G01X5445120Y3741292D01*
G01X1547820Y1345245D02*
G01X1676314Y1345245D01*
G01X1676314Y1345245D02*
G01X1676314Y1528663D01*
G01X1676314Y1528663D02*
G01X1547820Y1528663D01*
G01X1452580Y1345245D02*
G01X1324087Y1345245D01*
G01X1324087Y1345245D02*
G01X1324087Y1528663D01*
G01X1324087Y1528663D02*
G01X1452580Y1528663D01*
G01X2381520Y1345245D02*
G01X2510014Y1345245D01*
G01X2510014Y1345245D02*
G01X2510014Y1528663D01*
G01X2510014Y1528663D02*
G01X2381520Y1528663D01*
G01X2286280Y1345245D02*
G01X2157787Y1345245D01*
G01X2157787Y1345245D02*
G01X2157787Y1528663D01*
G01X2157787Y1528663D02*
G01X2286280Y1528663D01*
G01X3215220Y1345245D02*
G01X3343714Y1345245D01*
G01X3343714Y1345245D02*
G01X3343714Y1528663D01*
G01X3343714Y1528663D02*
G01X3215220Y1528663D01*
G01X3119980Y1345245D02*
G01X2991487Y1345245D01*
G01X2991487Y1345245D02*
G01X2991487Y1528663D01*
G01X2991487Y1528663D02*
G01X3119980Y1528663D01*
G01X4048920Y1345245D02*
G01X4177414Y1345245D01*
G01X4177414Y1345245D02*
G01X4177414Y1528663D01*
G01X4177414Y1528663D02*
G01X4048920Y1528663D01*
G01X3953680Y1345245D02*
G01X3825187Y1345245D01*
G01X3825187Y1345245D02*
G01X3825187Y1528663D01*
G01X3825187Y1528663D02*
G01X3953680Y1528663D01*
G01X4882620Y1345245D02*
G01X5011113Y1345245D01*
G01X5011113Y1345245D02*
G01X5011113Y1528663D01*
G01X5011113Y1528663D02*
G01X4882620Y1528663D01*
G01X4787380Y1345245D02*
G01X4658887Y1345245D01*
G01X4658887Y1345245D02*
G01X4658887Y1528663D01*
G01X4658887Y1528663D02*
G01X4787380Y1528663D01*
G01X5716320Y1345245D02*
G01X5844814Y1345245D01*
G01X5844814Y1345245D02*
G01X5844814Y1528663D01*
G01X5844814Y1528663D02*
G01X5716320Y1528663D01*
G01X5621080Y1345245D02*
G01X5492587Y1345245D01*
G01X5492587Y1345245D02*
G01X5492587Y1528663D01*
G01X5492587Y1528663D02*
G01X5621080Y1528663D01*
G01X6550020Y1345245D02*
G01X6678513Y1345245D01*
G01X6678513Y1345245D02*
G01X6678513Y1528663D01*
G01X6678513Y1528663D02*
G01X6550020Y1528663D01*
G01X6454780Y1345245D02*
G01X6326287Y1345245D01*
G01X6326287Y1345245D02*
G01X6326287Y1528663D01*
G01X6326287Y1528663D02*
G01X6454780Y1528663D01*
G01X2178842Y4123491D02*
G01X2178842Y4251984D01*
G01X2178842Y4251984D02*
G01X1995424Y4251984D01*
G01X1995424Y4251984D02*
G01X1995424Y4123491D01*
G01X2178842Y4028251D02*
G01X2178842Y3899758D01*
G01X2178842Y3899758D02*
G01X1995424Y3899758D01*
G01X1995424Y3899758D02*
G01X1995424Y4028251D01*
G01X791820Y2799220D02*
G01X376580Y2799220D01*
G01X791820Y2483980D02*
G01X791820Y2553279D01*
G01X791820Y2799220D02*
G01X791820Y2729921D01*
G01X376580Y2799220D02*
G01X376580Y2729921D01*
G01X791820Y2483980D02*
G01X376580Y2483980D01*
G01X376580Y2483980D02*
G01X376580Y2553279D01*
G01X1707620Y483349D02*
G01X1292380Y483349D01*
G01X1707620Y168110D02*
G01X1707620Y237409D01*
G01X1707620Y483349D02*
G01X1707620Y414050D01*
G01X1292380Y483349D02*
G01X1292380Y414050D01*
G01X1707620Y168110D02*
G01X1292380Y168110D01*
G01X1292380Y168110D02*
G01X1292380Y237409D01*
G01X2540953Y483349D02*
G01X2125714Y483349D01*
G01X2540953Y168110D02*
G01X2540953Y237409D01*
G01X2540953Y483349D02*
G01X2540953Y414050D01*
G01X2125714Y483349D02*
G01X2125714Y414050D01*
G01X2540953Y168110D02*
G01X2125714Y168110D01*
G01X2125714Y168110D02*
G01X2125714Y237409D01*
G01X3374286Y483349D02*
G01X2959047Y483349D01*
G01X3374286Y168110D02*
G01X3374286Y237409D01*
G01X3374286Y483349D02*
G01X3374286Y414050D01*
G01X2959047Y483349D02*
G01X2959047Y414050D01*
G01X3374286Y168110D02*
G01X2959047Y168110D01*
G01X2959047Y168110D02*
G01X2959047Y237409D01*
G01X4207619Y483349D02*
G01X3792380Y483349D01*
G01X4207619Y168110D02*
G01X4207619Y237409D01*
G01X4207619Y483349D02*
G01X4207619Y414050D01*
G01X3792380Y483349D02*
G01X3792380Y414050D01*
G01X4207619Y168110D02*
G01X3792380Y168110D01*
G01X3792380Y168110D02*
G01X3792380Y237409D01*
G01X5040953Y483349D02*
G01X4625714Y483349D01*
G01X5040953Y168110D02*
G01X5040953Y237409D01*
G01X5040953Y483349D02*
G01X5040953Y414050D01*
G01X4625714Y483349D02*
G01X4625714Y414050D01*
G01X5040953Y168110D02*
G01X4625714Y168110D01*
G01X4625714Y168110D02*
G01X4625714Y237409D01*
G01X5874286Y483349D02*
G01X5459047Y483349D01*
G01X5874286Y168110D02*
G01X5874286Y237409D01*
G01X5874286Y483349D02*
G01X5874286Y414050D01*
G01X5459047Y483349D02*
G01X5459047Y414050D01*
G01X5874286Y168110D02*
G01X5459047Y168110D01*
G01X5459047Y168110D02*
G01X5459047Y237409D01*
G01X6707620Y483349D02*
G01X6292380Y483349D01*
G01X6707620Y168110D02*
G01X6707620Y237409D01*
G01X6707620Y483349D02*
G01X6707620Y414050D01*
G01X6292380Y483349D02*
G01X6292380Y414050D01*
G01X6707620Y168110D02*
G01X6292380Y168110D01*
G01X6292380Y168110D02*
G01X6292380Y237409D01*

G04 Circle Start*
G54D13*
G01X134188Y4419600D02*
G03X1034212Y4419600I450012J0D01*
G03X134188Y4419600I-450012J0D01*
G01X510134Y4419600D02*
G03X658266Y4419600I74066J0D01*
G03X510134Y4419600I-74066J0D01*
G54D18*
G01X5890489Y2413000D02*
G03X5920511Y2413000I15011J0D01*
G03X5890489Y2413000I-15011J0D01*
G54D13*
G01X3699950Y2762013D02*
G03X3734036Y2762013I17043J0D01*
G03X3699950Y2762013I-17043J0D01*
G01X502869Y2641600D02*
G03X665531Y2641600I81331J0D01*
G03X502869Y2641600I-81331J0D01*
G01X1418669Y325730D02*
G03X1581331Y325730I81331J0D01*
G03X1418669Y325730I-81331J0D01*
G01X2252003Y325730D02*
G03X2414664Y325730I81331J0D01*
G03X2252003Y325730I-81331J0D01*
G01X3085336Y325730D02*
G03X3247998Y325730I81331J0D01*
G03X3085336Y325730I-81331J0D01*
G01X3918669Y325730D02*
G03X4081331Y325730I81331J0D01*
G03X3918669Y325730I-81331J0D01*
G01X4752002Y325730D02*
G03X4914664Y325730I81331J0D01*
G03X4752002Y325730I-81331J0D01*
G01X5585336Y325730D02*
G03X5747997Y325730I81331J0D01*
G03X5585336Y325730I-81331J0D01*
G01X6418669Y325730D02*
G03X6581331Y325730I81331J0D01*
G03X6418669Y325730I-81331J0D01*
G04 Circle End*

M02*

