G04 Layer: TopPasteMaskLayer*
G04 EasyEDA Pro v3.2.149.88089769, 2026-08-13 17:22:21*
G04 Gerber Generator version 0.3*
G04 Scale: 100 percent, Rotated: No, Reflected: No*
G04 Dimensions in millimeters*
G04 Leading zeros omitted, absolute positions, 4 integers and 5 decimals*
G04 Generated by one-click*
G04 Object Configs: Pad,Via,Track,Text,Image,Dimension,BoardOutline,BoardCutout,CopperFilled,SolidRegion,FPCStiffener,Line,PlaneZone,ComponentProperty,ComponentSilkscreen,TearDrop*
G04 Layer Configs: 1,2,3,4,5,6,7,8,9,10,11,13,14,56*
G04 Copper Areas: 0*
%FSLAX45Y45*%
%MOMM*%
%AMRect*21,1,$1,$2,0,0,$3*%
%ADD10R,0.48999X1.157*%
%ADD11R,0.48999X1.175*%
%ADD12R,1.8X0.7*%
%ADD13O,1.5X0.27*%
%ADD14O,0.27X1.5*%
%ADD15R,1.2X1.4*%
%ADD16Rect,0.85001X1.7X45.0*%
%ADD17R,1.62001X2.04638*%
%ADD18R,1.2526X1.0*%
%ADD19R,1.25001X1.0*%
%ADD20R,1.0X1.25001*%
%ADD21R,0.8X1.0*%
%ADD22R,1.52999X1.35999*%
G75*


G04 PolygonModel Start*
G36*
G01X7417496Y2640007D02*
G01X7417496Y2610005D01*
G01X7307496Y2610005D01*
G01X7307496Y2640007D01*
G01X7417496Y2640007D01*
G37*
G36*
G01X7307496Y2660018D02*
G01X7307496Y2690020D01*
G01X7417496Y2690020D01*
G01X7417496Y2660018D01*
G01X7307496Y2660018D01*
G37*
G36*
G01X7307496Y2149998D02*
G01X7307496Y2209998D01*
G01X7417496Y2209998D01*
G01X7417496Y2149998D01*
G01X7307496Y2149998D01*
G37*
G36*
G01X7417496Y2589995D02*
G01X7417496Y2559992D01*
G01X7307496Y2559992D01*
G01X7307496Y2589995D01*
G01X7417496Y2589995D01*
G37*
G36*
G01X7307496Y2710017D02*
G01X7307496Y2770017D01*
G01X7417496Y2770017D01*
G01X7417496Y2710017D01*
G01X7307496Y2710017D01*
G37*
G36*
G01X7417496Y2850002D02*
G01X7417496Y2790002D01*
G01X7307496Y2790002D01*
G01X7307496Y2850002D01*
G01X7417496Y2850002D01*
G37*
G36*
G01X7417496Y2540008D02*
G01X7417496Y2510005D01*
G01X7307496Y2510005D01*
G01X7307496Y2540008D01*
G01X7417496Y2540008D01*
G37*
G36*
G01X7417496Y2489995D02*
G01X7417496Y2459993D01*
G01X7307496Y2459993D01*
G01X7307496Y2489995D01*
G01X7417496Y2489995D01*
G37*
G36*
G01X7307496Y2230008D02*
G01X7307496Y2290008D01*
G01X7417496Y2290008D01*
G01X7417496Y2230008D01*
G01X7307496Y2230008D01*
G37*
G36*
G01X7417496Y2440008D02*
G01X7417496Y2410005D01*
G01X7307496Y2410005D01*
G01X7307496Y2440008D01*
G01X7417496Y2440008D01*
G37*
G36*
G01X7417496Y2390021D02*
G01X7417496Y2360018D01*
G01X7307496Y2360018D01*
G01X7307496Y2390021D01*
G01X7417496Y2390021D01*
G37*
G36*
G01X7417496Y2340008D02*
G01X7417496Y2310006D01*
G01X7307496Y2310006D01*
G01X7307496Y2340008D01*
G01X7417496Y2340008D01*
G37*
G36*
G01X7317656Y2936982D02*
G01X7317953Y2939959D01*
G01X7318400Y2942918D01*
G01X7318992Y2945849D01*
G01X7319731Y2948750D01*
G01X7320613Y2951607D01*
G01X7321636Y2954419D01*
G01X7322797Y2957175D01*
G01X7324095Y2959872D01*
G01X7325528Y2962499D01*
G01X7327087Y2965051D01*
G01X7328771Y2967523D01*
G01X7330580Y2969908D01*
G01X7332502Y2972199D01*
G01X7334537Y2974393D01*
G01X7336678Y2976481D01*
G01X7338921Y2978462D01*
G01X7341260Y2980327D01*
G01X7343689Y2982072D01*
G01X7346203Y2983695D01*
G01X7348794Y2985191D01*
G01X7351456Y2986557D01*
G01X7354181Y2987787D01*
G01X7356968Y2988879D01*
G01X7359802Y2989834D01*
G01X7362683Y2990644D01*
G01X7365599Y2991310D01*
G01X7368545Y2991828D01*
G01X7371514Y2992201D01*
G01X7374499Y2992425D01*
G01X7377488Y2992498D01*
G01X7457488Y2992498D01*
G01X7460478Y2992425D01*
G01X7463462Y2992201D01*
G01X7466432Y2991828D01*
G01X7469378Y2991310D01*
G01X7472294Y2990644D01*
G01X7475174Y2989834D01*
G01X7478009Y2988879D01*
G01X7480795Y2987787D01*
G01X7483521Y2986557D01*
G01X7486183Y2985191D01*
G01X7488773Y2983695D01*
G01X7491288Y2982072D01*
G01X7493716Y2980327D01*
G01X7496056Y2978462D01*
G01X7498298Y2976481D01*
G01X7500440Y2974393D01*
G01X7502474Y2972199D01*
G01X7504397Y2969908D01*
G01X7506205Y2967523D01*
G01X7507889Y2965051D01*
G01X7509449Y2962499D01*
G01X7510882Y2959872D01*
G01X7512180Y2957175D01*
G01X7513340Y2954419D01*
G01X7514364Y2951607D01*
G01X7515245Y2948750D01*
G01X7515984Y2945849D01*
G01X7516576Y2942918D01*
G01X7517023Y2939959D01*
G01X7517321Y2936982D01*
G01X7517470Y2933995D01*
G01X7517470Y2931003D01*
G01X7517321Y2928015D01*
G01X7517023Y2925039D01*
G01X7516576Y2922080D01*
G01X7515984Y2919148D01*
G01X7515245Y2916248D01*
G01X7514364Y2913390D01*
G01X7513340Y2910578D01*
G01X7512180Y2907822D01*
G01X7510882Y2905125D01*
G01X7509449Y2902499D01*
G01X7507889Y2899946D01*
G01X7506205Y2897475D01*
G01X7504397Y2895089D01*
G01X7502474Y2892798D01*
G01X7500440Y2890604D01*
G01X7498298Y2888516D01*
G01X7496056Y2886535D01*
G01X7493716Y2884670D01*
G01X7491288Y2882925D01*
G01X7488773Y2881302D01*
G01X7486183Y2879806D01*
G01X7483521Y2878440D01*
G01X7480795Y2877210D01*
G01X7478009Y2876118D01*
G01X7475174Y2875163D01*
G01X7472294Y2874353D01*
G01X7469378Y2873687D01*
G01X7466432Y2873169D01*
G01X7463462Y2872796D01*
G01X7460478Y2872572D01*
G01X7457488Y2872499D01*
G01X7377488Y2872499D01*
G01X7374499Y2872572D01*
G01X7371514Y2872796D01*
G01X7368545Y2873169D01*
G01X7365599Y2873687D01*
G01X7362683Y2874353D01*
G01X7359802Y2875163D01*
G01X7356968Y2876118D01*
G01X7354181Y2877210D01*
G01X7351456Y2878440D01*
G01X7348794Y2879806D01*
G01X7346203Y2881302D01*
G01X7343689Y2882925D01*
G01X7341260Y2884670D01*
G01X7338921Y2886535D01*
G01X7336678Y2888516D01*
G01X7334537Y2890604D01*
G01X7332502Y2892798D01*
G01X7330580Y2895089D01*
G01X7328771Y2897475D01*
G01X7327087Y2899946D01*
G01X7325528Y2902499D01*
G01X7324095Y2905125D01*
G01X7322797Y2907822D01*
G01X7321636Y2910578D01*
G01X7320613Y2913390D01*
G01X7319731Y2916248D01*
G01X7318992Y2919148D01*
G01X7318400Y2922080D01*
G01X7317953Y2925039D01*
G01X7317656Y2928015D01*
G01X7317506Y2931003D01*
G01X7317506Y2933995D01*
G01X7317656Y2936982D01*
G37*
G36*
G01X7317506Y2066006D02*
G01X7317506Y2068998D01*
G01X7317656Y2071985D01*
G01X7317953Y2074962D01*
G01X7318400Y2077921D01*
G01X7318992Y2080852D01*
G01X7319731Y2083753D01*
G01X7320613Y2086610D01*
G01X7321636Y2089422D01*
G01X7322797Y2092178D01*
G01X7324095Y2094875D01*
G01X7325528Y2097502D01*
G01X7327087Y2100054D01*
G01X7328771Y2102526D01*
G01X7330580Y2104911D01*
G01X7332502Y2107202D01*
G01X7334537Y2109396D01*
G01X7336678Y2111484D01*
G01X7338921Y2113465D01*
G01X7341260Y2115330D01*
G01X7343689Y2117075D01*
G01X7346203Y2118698D01*
G01X7348794Y2120194D01*
G01X7351456Y2121560D01*
G01X7354181Y2122790D01*
G01X7356968Y2123882D01*
G01X7359802Y2124837D01*
G01X7362683Y2125647D01*
G01X7365599Y2126313D01*
G01X7368545Y2126831D01*
G01X7371514Y2127204D01*
G01X7374499Y2127428D01*
G01X7377488Y2127501D01*
G01X7457488Y2127501D01*
G01X7460478Y2127428D01*
G01X7463462Y2127204D01*
G01X7466432Y2126831D01*
G01X7469378Y2126313D01*
G01X7472294Y2125647D01*
G01X7475174Y2124837D01*
G01X7478009Y2123882D01*
G01X7480795Y2122790D01*
G01X7483521Y2121560D01*
G01X7486183Y2120194D01*
G01X7488773Y2118698D01*
G01X7491288Y2117075D01*
G01X7493716Y2115330D01*
G01X7496056Y2113465D01*
G01X7498298Y2111484D01*
G01X7500440Y2109396D01*
G01X7502474Y2107202D01*
G01X7504397Y2104911D01*
G01X7506205Y2102526D01*
G01X7507889Y2100054D01*
G01X7509449Y2097502D01*
G01X7510882Y2094875D01*
G01X7512180Y2092178D01*
G01X7513340Y2089422D01*
G01X7514364Y2086610D01*
G01X7515245Y2083753D01*
G01X7515984Y2080852D01*
G01X7516576Y2077921D01*
G01X7517023Y2074962D01*
G01X7517321Y2071985D01*
G01X7517470Y2068998D01*
G01X7517470Y2066006D01*
G01X7517321Y2063018D01*
G01X7517023Y2060042D01*
G01X7516576Y2057083D01*
G01X7515984Y2054151D01*
G01X7515245Y2051251D01*
G01X7514364Y2048393D01*
G01X7513340Y2045581D01*
G01X7512180Y2042825D01*
G01X7510882Y2040128D01*
G01X7509449Y2037502D01*
G01X7507889Y2034949D01*
G01X7506205Y2032478D01*
G01X7504397Y2030092D01*
G01X7502474Y2027801D01*
G01X7500440Y2025607D01*
G01X7498298Y2023519D01*
G01X7496056Y2021538D01*
G01X7493716Y2019673D01*
G01X7491288Y2017928D01*
G01X7488773Y2016305D01*
G01X7486183Y2014809D01*
G01X7483521Y2013443D01*
G01X7480795Y2012213D01*
G01X7478009Y2011121D01*
G01X7475174Y2010166D01*
G01X7472294Y2009356D01*
G01X7469378Y2008690D01*
G01X7466432Y2008172D01*
G01X7463462Y2007799D01*
G01X7460478Y2007575D01*
G01X7457488Y2007502D01*
G01X7377488Y2007502D01*
G01X7374499Y2007575D01*
G01X7371514Y2007799D01*
G01X7368545Y2008172D01*
G01X7365599Y2008690D01*
G01X7362683Y2009356D01*
G01X7359802Y2010166D01*
G01X7356968Y2011121D01*
G01X7354181Y2012213D01*
G01X7351456Y2013443D01*
G01X7348794Y2014809D01*
G01X7346203Y2016305D01*
G01X7343689Y2017928D01*
G01X7341260Y2019673D01*
G01X7338921Y2021538D01*
G01X7336678Y2023519D01*
G01X7334537Y2025607D01*
G01X7332502Y2027801D01*
G01X7330580Y2030092D01*
G01X7328771Y2032478D01*
G01X7327087Y2034949D01*
G01X7325528Y2037502D01*
G01X7324095Y2040128D01*
G01X7322797Y2042825D01*
G01X7321636Y2045581D01*
G01X7320613Y2048393D01*
G01X7319731Y2051251D01*
G01X7318992Y2054151D01*
G01X7318400Y2057083D01*
G01X7317953Y2060042D01*
G01X7317656Y2063018D01*
G01X7317506Y2066006D01*
G37*
G36*
G01X7762672Y2071985D02*
G01X7762969Y2074962D01*
G01X7763416Y2077921D01*
G01X7764008Y2080852D01*
G01X7764747Y2083753D01*
G01X7765628Y2086610D01*
G01X7766652Y2089422D01*
G01X7767813Y2092178D01*
G01X7769111Y2094875D01*
G01X7770543Y2097502D01*
G01X7772103Y2100054D01*
G01X7773787Y2102526D01*
G01X7775595Y2104911D01*
G01X7777518Y2107202D01*
G01X7779553Y2109396D01*
G01X7781694Y2111484D01*
G01X7783937Y2113465D01*
G01X7786276Y2115330D01*
G01X7788704Y2117075D01*
G01X7791219Y2118698D01*
G01X7793810Y2120194D01*
G01X7796472Y2121560D01*
G01X7799197Y2122790D01*
G01X7801983Y2123882D01*
G01X7804818Y2124837D01*
G01X7807698Y2125647D01*
G01X7810614Y2126313D01*
G01X7813561Y2126831D01*
G01X7816530Y2127204D01*
G01X7819514Y2127428D01*
G01X7822504Y2127501D01*
G01X7852504Y2127501D01*
G01X7855494Y2127428D01*
G01X7858478Y2127204D01*
G01X7861447Y2126831D01*
G01X7864394Y2126313D01*
G01X7867310Y2125647D01*
G01X7870190Y2124837D01*
G01X7873025Y2123882D01*
G01X7875811Y2122790D01*
G01X7878536Y2121560D01*
G01X7881198Y2120194D01*
G01X7883789Y2118698D01*
G01X7886304Y2117075D01*
G01X7888732Y2115330D01*
G01X7891071Y2113465D01*
G01X7893314Y2111484D01*
G01X7895455Y2109396D01*
G01X7897490Y2107202D01*
G01X7899413Y2104911D01*
G01X7901221Y2102526D01*
G01X7902905Y2100054D01*
G01X7904465Y2097502D01*
G01X7905897Y2094875D01*
G01X7907195Y2092178D01*
G01X7908356Y2089422D01*
G01X7909380Y2086610D01*
G01X7910261Y2083753D01*
G01X7911000Y2080852D01*
G01X7911592Y2077921D01*
G01X7912039Y2074962D01*
G01X7912336Y2071985D01*
G01X7912486Y2068998D01*
G01X7912486Y2066006D01*
G01X7912336Y2063018D01*
G01X7912039Y2060042D01*
G01X7911592Y2057083D01*
G01X7911000Y2054151D01*
G01X7910261Y2051251D01*
G01X7909380Y2048393D01*
G01X7908356Y2045581D01*
G01X7907195Y2042825D01*
G01X7905897Y2040128D01*
G01X7904465Y2037502D01*
G01X7902905Y2034949D01*
G01X7901221Y2032478D01*
G01X7899413Y2030092D01*
G01X7897490Y2027801D01*
G01X7895455Y2025607D01*
G01X7893314Y2023519D01*
G01X7891071Y2021538D01*
G01X7888732Y2019673D01*
G01X7886304Y2017928D01*
G01X7883789Y2016305D01*
G01X7881198Y2014809D01*
G01X7878536Y2013443D01*
G01X7875811Y2012213D01*
G01X7873025Y2011121D01*
G01X7870190Y2010166D01*
G01X7867310Y2009356D01*
G01X7864394Y2008690D01*
G01X7861447Y2008172D01*
G01X7858478Y2007799D01*
G01X7855494Y2007575D01*
G01X7852504Y2007502D01*
G01X7822504Y2007502D01*
G01X7819514Y2007575D01*
G01X7816530Y2007799D01*
G01X7813561Y2008172D01*
G01X7810614Y2008690D01*
G01X7807698Y2009356D01*
G01X7804818Y2010166D01*
G01X7801983Y2011121D01*
G01X7799197Y2012213D01*
G01X7796472Y2013443D01*
G01X7793810Y2014809D01*
G01X7791219Y2016305D01*
G01X7788704Y2017928D01*
G01X7786276Y2019673D01*
G01X7783937Y2021538D01*
G01X7781694Y2023519D01*
G01X7779553Y2025607D01*
G01X7777518Y2027801D01*
G01X7775595Y2030092D01*
G01X7773787Y2032478D01*
G01X7772103Y2034949D01*
G01X7770543Y2037502D01*
G01X7769111Y2040128D01*
G01X7767813Y2042825D01*
G01X7766652Y2045581D01*
G01X7765628Y2048393D01*
G01X7764747Y2051251D01*
G01X7764008Y2054151D01*
G01X7763416Y2057083D01*
G01X7762969Y2060042D01*
G01X7762672Y2063018D01*
G01X7762522Y2066006D01*
G01X7762522Y2068998D01*
G01X7762672Y2071985D01*
G37*
G36*
G01X7762522Y2931003D02*
G01X7762522Y2933995D01*
G01X7762672Y2936982D01*
G01X7762969Y2939959D01*
G01X7763416Y2942918D01*
G01X7764008Y2945849D01*
G01X7764747Y2948750D01*
G01X7765628Y2951607D01*
G01X7766652Y2954419D01*
G01X7767813Y2957175D01*
G01X7769111Y2959872D01*
G01X7770543Y2962499D01*
G01X7772103Y2965051D01*
G01X7773787Y2967523D01*
G01X7775595Y2969908D01*
G01X7777518Y2972199D01*
G01X7779553Y2974393D01*
G01X7781694Y2976481D01*
G01X7783937Y2978462D01*
G01X7786276Y2980327D01*
G01X7788704Y2982072D01*
G01X7791219Y2983695D01*
G01X7793810Y2985191D01*
G01X7796472Y2986557D01*
G01X7799197Y2987787D01*
G01X7801983Y2988879D01*
G01X7804818Y2989834D01*
G01X7807698Y2990644D01*
G01X7810614Y2991310D01*
G01X7813561Y2991828D01*
G01X7816530Y2992201D01*
G01X7819514Y2992425D01*
G01X7822504Y2992498D01*
G01X7852504Y2992498D01*
G01X7855494Y2992425D01*
G01X7858478Y2992201D01*
G01X7861447Y2991828D01*
G01X7864394Y2991310D01*
G01X7867310Y2990644D01*
G01X7870190Y2989834D01*
G01X7873025Y2988879D01*
G01X7875811Y2987787D01*
G01X7878536Y2986557D01*
G01X7881198Y2985191D01*
G01X7883789Y2983695D01*
G01X7886304Y2982072D01*
G01X7888732Y2980327D01*
G01X7891071Y2978462D01*
G01X7893314Y2976481D01*
G01X7895455Y2974393D01*
G01X7897490Y2972199D01*
G01X7899413Y2969908D01*
G01X7901221Y2967523D01*
G01X7902905Y2965051D01*
G01X7904465Y2962499D01*
G01X7905897Y2959872D01*
G01X7907195Y2957175D01*
G01X7908356Y2954419D01*
G01X7909380Y2951607D01*
G01X7910261Y2948750D01*
G01X7911000Y2945849D01*
G01X7911592Y2942918D01*
G01X7912039Y2939959D01*
G01X7912336Y2936982D01*
G01X7912486Y2933995D01*
G01X7912486Y2931003D01*
G01X7912336Y2928015D01*
G01X7912039Y2925039D01*
G01X7911592Y2922080D01*
G01X7911000Y2919148D01*
G01X7910261Y2916248D01*
G01X7909380Y2913390D01*
G01X7908356Y2910578D01*
G01X7907195Y2907822D01*
G01X7905897Y2905125D01*
G01X7904465Y2902499D01*
G01X7902905Y2899946D01*
G01X7901221Y2897475D01*
G01X7899413Y2895089D01*
G01X7897490Y2892798D01*
G01X7895455Y2890604D01*
G01X7893314Y2888516D01*
G01X7891071Y2886535D01*
G01X7888732Y2884670D01*
G01X7886304Y2882925D01*
G01X7883789Y2881302D01*
G01X7881198Y2879806D01*
G01X7878536Y2878440D01*
G01X7875811Y2877210D01*
G01X7873025Y2876118D01*
G01X7870190Y2875163D01*
G01X7867310Y2874353D01*
G01X7864394Y2873687D01*
G01X7861447Y2873169D01*
G01X7858478Y2872796D01*
G01X7855494Y2872572D01*
G01X7852504Y2872499D01*
G01X7822504Y2872499D01*
G01X7819514Y2872572D01*
G01X7816530Y2872796D01*
G01X7813561Y2873169D01*
G01X7810614Y2873687D01*
G01X7807698Y2874353D01*
G01X7804818Y2875163D01*
G01X7801983Y2876118D01*
G01X7799197Y2877210D01*
G01X7796472Y2878440D01*
G01X7793810Y2879806D01*
G01X7791219Y2881302D01*
G01X7788704Y2882925D01*
G01X7786276Y2884670D01*
G01X7783937Y2886535D01*
G01X7781694Y2888516D01*
G01X7779553Y2890604D01*
G01X7777518Y2892798D01*
G01X7775595Y2895089D01*
G01X7773787Y2897475D01*
G01X7772103Y2899946D01*
G01X7770543Y2902499D01*
G01X7769111Y2905125D01*
G01X7767813Y2907822D01*
G01X7766652Y2910578D01*
G01X7765628Y2913390D01*
G01X7764747Y2916248D01*
G01X7764008Y2919148D01*
G01X7763416Y2922080D01*
G01X7762969Y2925039D01*
G01X7762672Y2928015D01*
G01X7762522Y2931003D01*
G37*
G36*
G01X1670498Y797715D02*
G01X1670498Y669717D01*
G01X1665496Y664715D01*
G01X1550495Y664715D01*
G01X1545497Y669717D01*
G01X1544994Y710720D01*
G01X1589995Y710720D01*
G01X1589995Y755719D01*
G01X1545994Y755719D01*
G01X1545497Y797715D01*
G01X1550495Y802716D01*
G01X1665496Y802716D01*
G01X1670498Y797715D01*
G37*
G36*
G01X1329503Y669714D02*
G01X1329503Y797712D01*
G01X1334504Y802714D01*
G01X1449505Y802714D01*
G01X1454504Y797712D01*
G01X1455006Y756709D01*
G01X1410005Y756709D01*
G01X1410005Y711711D01*
G01X1454006Y711711D01*
G01X1454504Y669714D01*
G01X1449505Y664713D01*
G01X1334504Y664713D01*
G01X1329503Y669714D01*
G37*
G36*
G01X2503831Y797715D02*
G01X2503831Y669717D01*
G01X2498830Y664715D01*
G01X2383829Y664715D01*
G01X2378830Y669717D01*
G01X2378327Y710720D01*
G01X2423328Y710720D01*
G01X2423328Y755719D01*
G01X2379328Y755719D01*
G01X2378830Y797715D01*
G01X2383829Y802716D01*
G01X2498830Y802716D01*
G01X2503831Y797715D01*
G37*
G36*
G01X2162836Y669714D02*
G01X2162836Y797712D01*
G01X2167837Y802714D01*
G01X2282838Y802714D01*
G01X2287837Y797712D01*
G01X2288340Y756709D01*
G01X2243339Y756709D01*
G01X2243339Y711711D01*
G01X2287339Y711711D01*
G01X2287837Y669714D01*
G01X2282838Y664713D01*
G01X2167837Y664713D01*
G01X2162836Y669714D01*
G37*
G36*
G01X3337164Y797715D02*
G01X3337164Y669717D01*
G01X3332163Y664715D01*
G01X3217162Y664715D01*
G01X3212163Y669717D01*
G01X3211660Y710720D01*
G01X3256662Y710720D01*
G01X3256662Y755719D01*
G01X3212661Y755719D01*
G01X3212163Y797715D01*
G01X3217162Y802716D01*
G01X3332163Y802716D01*
G01X3337164Y797715D01*
G37*
G36*
G01X2996169Y669714D02*
G01X2996169Y797712D01*
G01X3001171Y802714D01*
G01X3116172Y802714D01*
G01X3121170Y797712D01*
G01X3121673Y756709D01*
G01X3076672Y756709D01*
G01X3076672Y711711D01*
G01X3120672Y711711D01*
G01X3121170Y669714D01*
G01X3116172Y664713D01*
G01X3001171Y664713D01*
G01X2996169Y669714D01*
G37*
G36*
G01X4170498Y797715D02*
G01X4170498Y669717D01*
G01X4165496Y664715D01*
G01X4050495Y664715D01*
G01X4045497Y669717D01*
G01X4044994Y710720D01*
G01X4089995Y710720D01*
G01X4089995Y755719D01*
G01X4045994Y755719D01*
G01X4045497Y797715D01*
G01X4050495Y802716D01*
G01X4165496Y802716D01*
G01X4170498Y797715D01*
G37*
G36*
G01X3829503Y669714D02*
G01X3829503Y797712D01*
G01X3834504Y802714D01*
G01X3949505Y802714D01*
G01X3954504Y797712D01*
G01X3955007Y756709D01*
G01X3910005Y756709D01*
G01X3910005Y711711D01*
G01X3954006Y711711D01*
G01X3954504Y669714D01*
G01X3949505Y664713D01*
G01X3834504Y664713D01*
G01X3829503Y669714D01*
G37*
G36*
G01X5003831Y797715D02*
G01X5003831Y669717D01*
G01X4998829Y664715D01*
G01X4883828Y664715D01*
G01X4878830Y669717D01*
G01X4878327Y710720D01*
G01X4923328Y710720D01*
G01X4923328Y755719D01*
G01X4879328Y755719D01*
G01X4878830Y797715D01*
G01X4883828Y802716D01*
G01X4998829Y802716D01*
G01X5003831Y797715D01*
G37*
G36*
G01X4662836Y669714D02*
G01X4662836Y797712D01*
G01X4667837Y802714D01*
G01X4782838Y802714D01*
G01X4787837Y797712D01*
G01X4788340Y756709D01*
G01X4743338Y756709D01*
G01X4743338Y711711D01*
G01X4787339Y711711D01*
G01X4787837Y669714D01*
G01X4782838Y664713D01*
G01X4667837Y664713D01*
G01X4662836Y669714D01*
G37*
G36*
G01X5837164Y797715D02*
G01X5837164Y669717D01*
G01X5832163Y664715D01*
G01X5717162Y664715D01*
G01X5712163Y669717D01*
G01X5711660Y710720D01*
G01X5756661Y710720D01*
G01X5756661Y755719D01*
G01X5712661Y755719D01*
G01X5712163Y797715D01*
G01X5717162Y802716D01*
G01X5832163Y802716D01*
G01X5837164Y797715D01*
G37*
G36*
G01X5496169Y669714D02*
G01X5496169Y797712D01*
G01X5501170Y802714D01*
G01X5616171Y802714D01*
G01X5621170Y797712D01*
G01X5621673Y756709D01*
G01X5576672Y756709D01*
G01X5576672Y711711D01*
G01X5620672Y711711D01*
G01X5621170Y669714D01*
G01X5616171Y664713D01*
G01X5501170Y664713D01*
G01X5496169Y669714D01*
G37*
G36*
G01X6670497Y797715D02*
G01X6670497Y669717D01*
G01X6665496Y664715D01*
G01X6550495Y664715D01*
G01X6545496Y669717D01*
G01X6544994Y710720D01*
G01X6589995Y710720D01*
G01X6589995Y755719D01*
G01X6545994Y755719D01*
G01X6545496Y797715D01*
G01X6550495Y802716D01*
G01X6665496Y802716D01*
G01X6670497Y797715D01*
G37*
G36*
G01X6329502Y669714D02*
G01X6329502Y797712D01*
G01X6334504Y802714D01*
G01X6449505Y802714D01*
G01X6454503Y797712D01*
G01X6455006Y756709D01*
G01X6410005Y756709D01*
G01X6410005Y711711D01*
G01X6454006Y711711D01*
G01X6454503Y669714D01*
G01X6449505Y664713D01*
G01X6334504Y664713D01*
G01X6329502Y669714D01*
G37*
G36*
G01X5944100Y1836103D02*
G01X5816102Y1836103D01*
G01X5811101Y1841104D01*
G01X5811101Y1956105D01*
G01X5816102Y1961104D01*
G01X5857105Y1961606D01*
G01X5857105Y1916605D01*
G01X5902104Y1916605D01*
G01X5902104Y1960606D01*
G01X5944100Y1961104D01*
G01X5949102Y1956105D01*
G01X5949102Y1841104D01*
G01X5944100Y1836103D01*
G37*
G36*
G01X5816100Y2177098D02*
G01X5944098Y2177098D01*
G01X5949099Y2172096D01*
G01X5949099Y2057095D01*
G01X5944098Y2052096D01*
G01X5903095Y2051594D01*
G01X5903095Y2096595D01*
G01X5858096Y2096595D01*
G01X5858096Y2052594D01*
G01X5816100Y2052096D01*
G01X5811098Y2057095D01*
G01X5811098Y2172096D01*
G01X5816100Y2177098D01*
G37*
G36*
G01X6312400Y1836103D02*
G01X6184402Y1836103D01*
G01X6179401Y1841104D01*
G01X6179401Y1956105D01*
G01X6184402Y1961104D01*
G01X6225405Y1961606D01*
G01X6225405Y1916605D01*
G01X6270404Y1916605D01*
G01X6270404Y1960606D01*
G01X6312400Y1961104D01*
G01X6317402Y1956105D01*
G01X6317402Y1841104D01*
G01X6312400Y1836103D01*
G37*
G36*
G01X6184400Y2177098D02*
G01X6312398Y2177098D01*
G01X6317399Y2172096D01*
G01X6317399Y2057095D01*
G01X6312398Y2052096D01*
G01X6271395Y2051594D01*
G01X6271395Y2096595D01*
G01X6226396Y2096595D01*
G01X6226396Y2052594D01*
G01X6184400Y2052096D01*
G01X6179398Y2057095D01*
G01X6179398Y2172096D01*
G01X6184400Y2177098D01*
G37*
G36*
G01X6186808Y3245353D02*
G01X6314806Y3245353D01*
G01X6319807Y3240352D01*
G01X6319807Y3125351D01*
G01X6314806Y3120352D01*
G01X6273803Y3119849D01*
G01X6273803Y3164851D01*
G01X6228804Y3164851D01*
G01X6228804Y3120850D01*
G01X6186808Y3120352D01*
G01X6181806Y3125351D01*
G01X6181806Y3240352D01*
G01X6186808Y3245353D01*
G37*
G36*
G01X6314808Y2904358D02*
G01X6186810Y2904358D01*
G01X6181809Y2909360D01*
G01X6181809Y3024361D01*
G01X6186810Y3029359D01*
G01X6227813Y3029862D01*
G01X6227813Y2984861D01*
G01X6272812Y2984861D01*
G01X6272812Y3028862D01*
G01X6314808Y3029359D01*
G01X6319810Y3024361D01*
G01X6319810Y2909360D01*
G01X6314808Y2904358D01*
G37*
G36*
G01X5816100Y3245354D02*
G01X5944098Y3245354D01*
G01X5949099Y3240352D01*
G01X5949099Y3125351D01*
G01X5944098Y3120353D01*
G01X5903095Y3119850D01*
G01X5903095Y3164851D01*
G01X5858096Y3164851D01*
G01X5858096Y3120851D01*
G01X5816100Y3120353D01*
G01X5811098Y3125351D01*
G01X5811098Y3240352D01*
G01X5816100Y3245354D01*
G37*
G36*
G01X5944100Y2904359D02*
G01X5816102Y2904359D01*
G01X5811101Y2909360D01*
G01X5811101Y3024361D01*
G01X5816102Y3029360D01*
G01X5857105Y3029863D01*
G01X5857105Y2984861D01*
G01X5902104Y2984861D01*
G01X5902104Y3028862D01*
G01X5944100Y3029360D01*
G01X5949102Y3024361D01*
G01X5949102Y2909360D01*
G01X5944100Y2904359D01*
G37*
G36*
G01X1272305Y1997803D02*
G01X1144307Y1997803D01*
G01X1139306Y2002804D01*
G01X1139306Y2117805D01*
G01X1144307Y2122804D01*
G01X1185310Y2123307D01*
G01X1185310Y2078305D01*
G01X1230309Y2078305D01*
G01X1230309Y2122306D01*
G01X1272305Y2122804D01*
G01X1277306Y2117805D01*
G01X1277306Y2002804D01*
G01X1272305Y1997803D01*
G37*
G36*
G01X1144304Y2338798D02*
G01X1272303Y2338798D01*
G01X1277304Y2333796D01*
G01X1277304Y2218795D01*
G01X1272303Y2213797D01*
G01X1231299Y2213294D01*
G01X1231299Y2258295D01*
G01X1186301Y2258295D01*
G01X1186301Y2214295D01*
G01X1144304Y2213797D01*
G01X1139303Y2218795D01*
G01X1139303Y2333796D01*
G01X1144304Y2338798D01*
G37*
G36*
G01X3620000Y1785303D02*
G01X3492002Y1785303D01*
G01X3487001Y1790304D01*
G01X3487001Y1905305D01*
G01X3492002Y1910304D01*
G01X3533005Y1910806D01*
G01X3533005Y1865805D01*
G01X3578004Y1865805D01*
G01X3578004Y1909806D01*
G01X3620000Y1910304D01*
G01X3625002Y1905305D01*
G01X3625002Y1790304D01*
G01X3620000Y1785303D01*
G37*
G36*
G01X3492000Y2126298D02*
G01X3619998Y2126298D01*
G01X3624999Y2121296D01*
G01X3624999Y2006295D01*
G01X3619998Y2001296D01*
G01X3578995Y2000794D01*
G01X3578995Y2045795D01*
G01X3533996Y2045795D01*
G01X3533996Y2001794D01*
G01X3492000Y2001296D01*
G01X3486998Y2006295D01*
G01X3486998Y2121296D01*
G01X3492000Y2126298D01*
G37*
G36*
G01X5428298Y2032500D02*
G01X5428298Y1904502D01*
G01X5423296Y1899501D01*
G01X5308295Y1899501D01*
G01X5303296Y1904502D01*
G01X5302794Y1945505D01*
G01X5347795Y1945505D01*
G01X5347795Y1990504D01*
G01X5303794Y1990504D01*
G01X5303296Y2032500D01*
G01X5308295Y2037502D01*
G01X5423296Y2037502D01*
G01X5428298Y2032500D01*
G37*
G36*
G01X5087303Y1904500D02*
G01X5087303Y2032498D01*
G01X5092304Y2037499D01*
G01X5207305Y2037499D01*
G01X5212304Y2032498D01*
G01X5212806Y1991495D01*
G01X5167805Y1991495D01*
G01X5167805Y1946496D01*
G01X5211806Y1946496D01*
G01X5212304Y1904500D01*
G01X5207305Y1899498D01*
G01X5092304Y1899498D01*
G01X5087303Y1904500D01*
G37*
G36*
G01X4355600Y3320098D02*
G01X4483598Y3320098D01*
G01X4488599Y3315096D01*
G01X4488599Y3200095D01*
G01X4483598Y3195096D01*
G01X4442595Y3194594D01*
G01X4442595Y3239595D01*
G01X4397596Y3239595D01*
G01X4397596Y3195594D01*
G01X4355600Y3195096D01*
G01X4350598Y3200095D01*
G01X4350598Y3315096D01*
G01X4355600Y3320098D01*
G37*
G36*
G01X4483600Y2979103D02*
G01X4355602Y2979103D01*
G01X4350601Y2984104D01*
G01X4350601Y3099105D01*
G01X4355602Y3104104D01*
G01X4396605Y3104606D01*
G01X4396605Y3059605D01*
G01X4441604Y3059605D01*
G01X4441604Y3103606D01*
G01X4483600Y3104104D01*
G01X4488602Y3099105D01*
G01X4488602Y2984104D01*
G01X4483600Y2979103D01*
G37*
G36*
G01X3492000Y3307398D02*
G01X3619998Y3307398D01*
G01X3624999Y3302396D01*
G01X3624999Y3187395D01*
G01X3619998Y3182396D01*
G01X3578995Y3181894D01*
G01X3578995Y3226895D01*
G01X3533996Y3226895D01*
G01X3533996Y3182894D01*
G01X3492000Y3182396D01*
G01X3486998Y3187395D01*
G01X3486998Y3302396D01*
G01X3492000Y3307398D01*
G37*
G36*
G01X3620000Y2966403D02*
G01X3492002Y2966403D01*
G01X3487001Y2971404D01*
G01X3487001Y3086405D01*
G01X3492002Y3091404D01*
G01X3533005Y3091906D01*
G01X3533005Y3046905D01*
G01X3578004Y3046905D01*
G01X3578004Y3090906D01*
G01X3620000Y3091404D01*
G01X3625002Y3086405D01*
G01X3625002Y2971404D01*
G01X3620000Y2966403D01*
G37*
G36*
G01X7442700Y4033203D02*
G01X7314702Y4033203D01*
G01X7309701Y4038204D01*
G01X7309701Y4153205D01*
G01X7314702Y4158204D01*
G01X7355705Y4158706D01*
G01X7355705Y4113705D01*
G01X7400704Y4113705D01*
G01X7400704Y4157706D01*
G01X7442700Y4158204D01*
G01X7447702Y4153205D01*
G01X7447702Y4038204D01*
G01X7442700Y4033203D01*
G37*
G36*
G01X7314700Y4374198D02*
G01X7442698Y4374198D01*
G01X7447699Y4369196D01*
G01X7447699Y4254195D01*
G01X7442698Y4249196D01*
G01X7401695Y4248694D01*
G01X7401695Y4293695D01*
G01X7356696Y4293695D01*
G01X7356696Y4249694D01*
G01X7314700Y4249196D01*
G01X7309698Y4254195D01*
G01X7309698Y4369196D01*
G01X7314700Y4374198D01*
G37*
G36*
G01X3059600Y2507602D02*
G01X2931602Y2507602D01*
G01X2926601Y2512604D01*
G01X2926601Y2627605D01*
G01X2931602Y2632603D01*
G01X2972605Y2633106D01*
G01X2972605Y2588105D01*
G01X3017604Y2588105D01*
G01X3017604Y2632105D01*
G01X3059600Y2632603D01*
G01X3064601Y2627605D01*
G01X3064601Y2512604D01*
G01X3059600Y2507602D01*
G37*
G36*
G01X2931599Y2848597D02*
G01X3059598Y2848597D01*
G01X3064599Y2843596D01*
G01X3064599Y2728595D01*
G01X3059598Y2723596D01*
G01X3018594Y2723093D01*
G01X3018594Y2768095D01*
G01X2973596Y2768095D01*
G01X2973596Y2724094D01*
G01X2931599Y2723596D01*
G01X2926598Y2728595D01*
G01X2926598Y2843596D01*
G01X2931599Y2848597D01*
G37*
G36*
G01X3061200Y1959902D02*
G01X2933202Y1959902D01*
G01X2928201Y1964903D01*
G01X2928201Y2079904D01*
G01X2933202Y2084903D01*
G01X2974205Y2085406D01*
G01X2974205Y2040405D01*
G01X3019204Y2040405D01*
G01X3019204Y2084405D01*
G01X3061200Y2084903D01*
G01X3066202Y2079904D01*
G01X3066202Y1964903D01*
G01X3061200Y1959902D01*
G37*
G36*
G01X2933200Y2300897D02*
G01X3061198Y2300897D01*
G01X3066199Y2295896D01*
G01X3066199Y2180895D01*
G01X3061198Y2175896D01*
G01X3020195Y2175393D01*
G01X3020195Y2220394D01*
G01X2975196Y2220394D01*
G01X2975196Y2176394D01*
G01X2933200Y2175896D01*
G01X2928198Y2180895D01*
G01X2928198Y2295896D01*
G01X2933200Y2300897D01*
G37*
G36*
G01X3232964Y3488597D02*
G01X3323473Y3398089D01*
G01X3323473Y3391016D01*
G01X3242155Y3309698D01*
G01X3235084Y3309700D01*
G01X3205734Y3338338D01*
G01X3237555Y3370158D01*
G01X3205736Y3401977D01*
G01X3174623Y3370864D01*
G01X3144575Y3400208D01*
G01X3144573Y3407279D01*
G01X3225891Y3488597D01*
G01X3232964Y3488597D01*
G37*
G36*
G01X3082355Y3156967D02*
G01X2991846Y3247475D01*
G01X2991846Y3254548D01*
G01X3073164Y3335866D01*
G01X3080235Y3335864D01*
G01X3109585Y3307226D01*
G01X3077764Y3275406D01*
G01X3109583Y3243587D01*
G01X3140696Y3274700D01*
G01X3170744Y3245356D01*
G01X3170745Y3238285D01*
G01X3089427Y3156967D01*
G01X3082355Y3156967D01*
G37*
G36*
G01X2774921Y2854279D02*
G01X2684412Y2944787D01*
G01X2684412Y2951860D01*
G01X2765730Y3033178D01*
G01X2772802Y3033176D01*
G01X2802151Y3004538D01*
G01X2770330Y2972718D01*
G01X2802149Y2940899D01*
G01X2833262Y2972012D01*
G01X2863310Y2942668D01*
G01X2863312Y2935597D01*
G01X2781994Y2854279D01*
G01X2774921Y2854279D01*
G37*
G36*
G01X2925531Y3185909D02*
G01X3016039Y3095401D01*
G01X3016039Y3088328D01*
G01X2934721Y3007010D01*
G01X2927650Y3007012D01*
G01X2898301Y3035650D01*
G01X2930121Y3067470D01*
G01X2898302Y3099289D01*
G01X2867189Y3068176D01*
G01X2837141Y3097520D01*
G01X2837140Y3104591D01*
G01X2918458Y3185909D01*
G01X2925531Y3185909D01*
G37*
G36*
G01X7066102Y2743700D02*
G01X7066102Y2615702D01*
G01X7061101Y2610701D01*
G01X6946100Y2610701D01*
G01X6941101Y2615702D01*
G01X6940598Y2656705D01*
G01X6985599Y2656705D01*
G01X6985599Y2701704D01*
G01X6941599Y2701704D01*
G01X6941101Y2743700D01*
G01X6946100Y2748702D01*
G01X7061101Y2748702D01*
G01X7066102Y2743700D01*
G37*
G36*
G01X6851101Y2743700D02*
G01X6851099Y2701704D01*
G01X6806601Y2701704D01*
G01X6806601Y2656705D01*
G01X6850598Y2656705D01*
G01X6851101Y2615702D01*
G01X6846100Y2610701D01*
G01X6731102Y2610701D01*
G01X6726100Y2615702D01*
G01X6726100Y2743700D01*
G01X6731102Y2748702D01*
G01X6846100Y2748702D01*
G01X6851101Y2743700D01*
G37*
G36*
G01X7066102Y2438900D02*
G01X7066102Y2310902D01*
G01X7061101Y2305901D01*
G01X6946100Y2305901D01*
G01X6941101Y2310902D01*
G01X6940598Y2351905D01*
G01X6985599Y2351905D01*
G01X6985599Y2396904D01*
G01X6941599Y2396904D01*
G01X6941101Y2438900D01*
G01X6946100Y2443902D01*
G01X7061101Y2443902D01*
G01X7066102Y2438900D01*
G37*
G36*
G01X6851101Y2438900D02*
G01X6851099Y2396904D01*
G01X6806601Y2396904D01*
G01X6806601Y2351905D01*
G01X6850598Y2351905D01*
G01X6851101Y2310902D01*
G01X6846100Y2305901D01*
G01X6731102Y2305901D01*
G01X6726100Y2310902D01*
G01X6726100Y2438900D01*
G01X6731102Y2443902D01*
G01X6846100Y2443902D01*
G01X6851101Y2438900D01*
G37*
G36*
G01X5321800Y2750998D02*
G01X5193802Y2750998D01*
G01X5188801Y2755999D01*
G01X5188801Y2871000D01*
G01X5193802Y2875999D01*
G01X5234805Y2876502D01*
G01X5234805Y2831501D01*
G01X5279804Y2831501D01*
G01X5279804Y2875501D01*
G01X5321800Y2875999D01*
G01X5326802Y2871000D01*
G01X5326802Y2755999D01*
G01X5321800Y2750998D01*
G37*
G36*
G01X5321800Y2965999D02*
G01X5279804Y2966001D01*
G01X5279804Y3010499D01*
G01X5234805Y3010499D01*
G01X5234805Y2966502D01*
G01X5193802Y2965999D01*
G01X5188801Y2971000D01*
G01X5188801Y3085998D01*
G01X5193802Y3091000D01*
G01X5321800Y3091000D01*
G01X5326802Y3085998D01*
G01X5326802Y2971000D01*
G01X5321800Y2965999D01*
G37*
G36*
G01X6877202Y3885100D02*
G01X6877202Y3757102D01*
G01X6872201Y3752101D01*
G01X6757200Y3752101D01*
G01X6752201Y3757102D01*
G01X6751698Y3798105D01*
G01X6796700Y3798105D01*
G01X6796700Y3843104D01*
G01X6752699Y3843104D01*
G01X6752201Y3885100D01*
G01X6757200Y3890101D01*
G01X6872201Y3890101D01*
G01X6877202Y3885100D01*
G37*
G36*
G01X6662202Y3885100D02*
G01X6662199Y3843104D01*
G01X6617701Y3843104D01*
G01X6617701Y3798105D01*
G01X6661699Y3798105D01*
G01X6662202Y3757102D01*
G01X6657200Y3752101D01*
G01X6542202Y3752101D01*
G01X6537201Y3757102D01*
G01X6537201Y3885100D01*
G01X6542202Y3890101D01*
G01X6657200Y3890101D01*
G01X6662202Y3885100D01*
G37*
G36*
G01X1269105Y2579008D02*
G01X1141106Y2579008D01*
G01X1136105Y2584009D01*
G01X1136105Y2699010D01*
G01X1141106Y2704009D01*
G01X1182110Y2704512D01*
G01X1182110Y2659511D01*
G01X1227108Y2659511D01*
G01X1227108Y2703511D01*
G01X1269105Y2704009D01*
G01X1274106Y2699010D01*
G01X1274106Y2584009D01*
G01X1269105Y2579008D01*
G37*
G36*
G01X1269105Y2794009D02*
G01X1227108Y2794011D01*
G01X1227108Y2838510D01*
G01X1182110Y2838510D01*
G01X1182110Y2794512D01*
G01X1141106Y2794009D01*
G01X1136105Y2799010D01*
G01X1136105Y2914009D01*
G01X1141106Y2919010D01*
G01X1269105Y2919010D01*
G01X1274106Y2914009D01*
G01X1274106Y2799010D01*
G01X1269105Y2794009D01*
G37*
G36*
G01X5227498Y4723900D02*
G01X5227498Y4851898D01*
G01X5232499Y4856899D01*
G01X5347500Y4856899D01*
G01X5352499Y4851898D01*
G01X5353002Y4810895D01*
G01X5308001Y4810895D01*
G01X5308001Y4765896D01*
G01X5352001Y4765896D01*
G01X5352499Y4723900D01*
G01X5347500Y4718898D01*
G01X5232499Y4718898D01*
G01X5227498Y4723900D01*
G37*
G36*
G01X5442499Y4723900D02*
G01X5442501Y4765896D01*
G01X5486999Y4765896D01*
G01X5486999Y4810895D01*
G01X5443002Y4810895D01*
G01X5442499Y4851898D01*
G01X5447500Y4856899D01*
G01X5562498Y4856899D01*
G01X5567500Y4851898D01*
G01X5567500Y4723900D01*
G01X5562498Y4718898D01*
G01X5447500Y4718898D01*
G01X5442499Y4723900D01*
G37*
G36*
G01X5567502Y3897001D02*
G01X5567502Y3769003D01*
G01X5562501Y3764002D01*
G01X5447500Y3764002D01*
G01X5442501Y3769003D01*
G01X5441998Y3810006D01*
G01X5486999Y3810006D01*
G01X5486999Y3855005D01*
G01X5442999Y3855005D01*
G01X5442501Y3897001D01*
G01X5447500Y3902003D01*
G01X5562501Y3902003D01*
G01X5567502Y3897001D01*
G37*
G36*
G01X5352501Y3897001D02*
G01X5352499Y3855005D01*
G01X5308001Y3855005D01*
G01X5308001Y3810006D01*
G01X5351998Y3810006D01*
G01X5352501Y3769003D01*
G01X5347500Y3764002D01*
G01X5232502Y3764002D01*
G01X5227500Y3769003D01*
G01X5227500Y3897001D01*
G01X5232502Y3902003D01*
G01X5347500Y3902003D01*
G01X5352501Y3897001D01*
G37*
G36*
G01X1330198Y1372954D02*
G01X1330198Y1500952D01*
G01X1335199Y1505953D01*
G01X1450200Y1505953D01*
G01X1455199Y1500952D01*
G01X1455702Y1459949D01*
G01X1410701Y1459949D01*
G01X1410701Y1414950D01*
G01X1454701Y1414950D01*
G01X1455199Y1372954D01*
G01X1450200Y1367953D01*
G01X1335199Y1367953D01*
G01X1330198Y1372954D01*
G37*
G36*
G01X1545199Y1372954D02*
G01X1545201Y1414950D01*
G01X1589700Y1414950D01*
G01X1589700Y1459949D01*
G01X1545702Y1459949D01*
G01X1545199Y1500952D01*
G01X1550200Y1505953D01*
G01X1665199Y1505953D01*
G01X1670200Y1500952D01*
G01X1670200Y1372954D01*
G01X1665199Y1367953D01*
G01X1550200Y1367953D01*
G01X1545199Y1372954D01*
G37*
G36*
G01X2163898Y1372954D02*
G01X2163898Y1500952D01*
G01X2168899Y1505953D01*
G01X2283900Y1505953D01*
G01X2288899Y1500952D01*
G01X2289402Y1459949D01*
G01X2244401Y1459949D01*
G01X2244401Y1414950D01*
G01X2288401Y1414950D01*
G01X2288899Y1372954D01*
G01X2283900Y1367953D01*
G01X2168899Y1367953D01*
G01X2163898Y1372954D01*
G37*
G36*
G01X2378899Y1372954D02*
G01X2378901Y1414950D01*
G01X2423400Y1414950D01*
G01X2423400Y1459949D01*
G01X2379402Y1459949D01*
G01X2378899Y1500952D01*
G01X2383900Y1505953D01*
G01X2498898Y1505953D01*
G01X2503900Y1500952D01*
G01X2503900Y1372954D01*
G01X2498898Y1367953D01*
G01X2383900Y1367953D01*
G01X2378899Y1372954D01*
G37*
G36*
G01X2997598Y1372954D02*
G01X2997598Y1500952D01*
G01X3002599Y1505953D01*
G01X3117600Y1505953D01*
G01X3122599Y1500952D01*
G01X3123102Y1459949D01*
G01X3078101Y1459949D01*
G01X3078101Y1414950D01*
G01X3122101Y1414950D01*
G01X3122599Y1372954D01*
G01X3117600Y1367953D01*
G01X3002599Y1367953D01*
G01X2997598Y1372954D01*
G37*
G36*
G01X3212599Y1372954D02*
G01X3212601Y1414950D01*
G01X3257100Y1414950D01*
G01X3257100Y1459949D01*
G01X3213102Y1459949D01*
G01X3212599Y1500952D01*
G01X3217600Y1505953D01*
G01X3332599Y1505953D01*
G01X3337600Y1500952D01*
G01X3337600Y1372954D01*
G01X3332599Y1367953D01*
G01X3217600Y1367953D01*
G01X3212599Y1372954D01*
G37*
G36*
G01X3831298Y1372954D02*
G01X3831298Y1500952D01*
G01X3836299Y1505953D01*
G01X3951300Y1505953D01*
G01X3956299Y1500952D01*
G01X3956802Y1459949D01*
G01X3911801Y1459949D01*
G01X3911801Y1414950D01*
G01X3955801Y1414950D01*
G01X3956299Y1372954D01*
G01X3951300Y1367953D01*
G01X3836299Y1367953D01*
G01X3831298Y1372954D01*
G37*
G36*
G01X4046299Y1372954D02*
G01X4046301Y1414950D01*
G01X4090800Y1414950D01*
G01X4090800Y1459949D01*
G01X4046802Y1459949D01*
G01X4046299Y1500952D01*
G01X4051300Y1505953D01*
G01X4166299Y1505953D01*
G01X4171300Y1500952D01*
G01X4171300Y1372954D01*
G01X4166299Y1367953D01*
G01X4051300Y1367953D01*
G01X4046299Y1372954D01*
G37*
G36*
G01X4664998Y1372954D02*
G01X4664998Y1500952D01*
G01X4669999Y1505953D01*
G01X4785000Y1505953D01*
G01X4789999Y1500952D01*
G01X4790502Y1459949D01*
G01X4745501Y1459949D01*
G01X4745501Y1414950D01*
G01X4789501Y1414950D01*
G01X4789999Y1372954D01*
G01X4785000Y1367953D01*
G01X4669999Y1367953D01*
G01X4664998Y1372954D01*
G37*
G36*
G01X4879999Y1372954D02*
G01X4880001Y1414950D01*
G01X4924499Y1414950D01*
G01X4924499Y1459949D01*
G01X4880502Y1459949D01*
G01X4879999Y1500952D01*
G01X4885000Y1505953D01*
G01X4999998Y1505953D01*
G01X5005000Y1500952D01*
G01X5005000Y1372954D01*
G01X4999998Y1367953D01*
G01X4885000Y1367953D01*
G01X4879999Y1372954D01*
G37*
G36*
G01X5498698Y1372954D02*
G01X5498698Y1500952D01*
G01X5503699Y1505953D01*
G01X5618700Y1505953D01*
G01X5623699Y1500952D01*
G01X5624202Y1459949D01*
G01X5579201Y1459949D01*
G01X5579201Y1414950D01*
G01X5623201Y1414950D01*
G01X5623699Y1372954D01*
G01X5618700Y1367953D01*
G01X5503699Y1367953D01*
G01X5498698Y1372954D01*
G37*
G36*
G01X5713699Y1372954D02*
G01X5713701Y1414950D01*
G01X5758200Y1414950D01*
G01X5758200Y1459949D01*
G01X5714202Y1459949D01*
G01X5713699Y1500952D01*
G01X5718700Y1505953D01*
G01X5833699Y1505953D01*
G01X5838700Y1500952D01*
G01X5838700Y1372954D01*
G01X5833699Y1367953D01*
G01X5718700Y1367953D01*
G01X5713699Y1372954D01*
G37*
G36*
G01X6332398Y1372954D02*
G01X6332398Y1500952D01*
G01X6337399Y1505953D01*
G01X6452400Y1505953D01*
G01X6457399Y1500952D01*
G01X6457902Y1459949D01*
G01X6412901Y1459949D01*
G01X6412901Y1414950D01*
G01X6456901Y1414950D01*
G01X6457399Y1372954D01*
G01X6452400Y1367953D01*
G01X6337399Y1367953D01*
G01X6332398Y1372954D01*
G37*
G36*
G01X6547399Y1372954D02*
G01X6547401Y1414950D01*
G01X6591899Y1414950D01*
G01X6591899Y1459949D01*
G01X6547902Y1459949D01*
G01X6547399Y1500952D01*
G01X6552400Y1505953D01*
G01X6667398Y1505953D01*
G01X6672400Y1500952D01*
G01X6672400Y1372954D01*
G01X6667398Y1367953D01*
G01X6552400Y1367953D01*
G01X6547399Y1372954D01*
G37*
G36*
G01X2151134Y3905869D02*
G01X2023135Y3905869D01*
G01X2018134Y3910870D01*
G01X2018134Y4025871D01*
G01X2023135Y4030870D01*
G01X2064139Y4031373D01*
G01X2064139Y3986372D01*
G01X2109137Y3986372D01*
G01X2109137Y4030372D01*
G01X2151134Y4030870D01*
G01X2156135Y4025871D01*
G01X2156135Y3910870D01*
G01X2151134Y3905869D01*
G37*
G36*
G01X2151134Y4120870D02*
G01X2109137Y4120872D01*
G01X2109137Y4165370D01*
G01X2064139Y4165370D01*
G01X2064139Y4121373D01*
G01X2023135Y4120870D01*
G01X2018134Y4125871D01*
G01X2018134Y4240869D01*
G01X2023135Y4245871D01*
G01X2151134Y4245871D01*
G01X2156135Y4240869D01*
G01X2156135Y4125871D01*
G01X2151134Y4120870D01*
G37*

G04 Pad Start*
G54D10*
G01X5975604Y2411933D03*
G01X6070600Y2411933D03*
G01X6165596Y2411933D03*
G54D11*
G01X6165596Y2642667D03*
G01X5975604Y2642667D03*
G54D12*
G01X7798006Y1126300D03*
G01X7798006Y876287D03*
G01X7798006Y626301D03*
G01X7187994Y1126300D03*
G01X7187994Y876287D03*
G01X7187994Y626301D03*
G54D13*
G01X3575007Y2775018D03*
G01X3575007Y2725005D03*
G01X3575007Y2675018D03*
G01X3575007Y2625005D03*
G01X3575007Y2575018D03*
G01X3575007Y2525006D03*
G01X3575007Y2475018D03*
G01X3575007Y2425006D03*
G01X3575007Y2375019D03*
G01X3575007Y2325006D03*
G01X3575007Y2275019D03*
G01X3575007Y2225006D03*
G54D14*
G01X3724994Y2075019D03*
G01X3775007Y2075019D03*
G01X3824994Y2075019D03*
G01X3875006Y2075019D03*
G01X3924994Y2075019D03*
G01X3975006Y2075019D03*
G01X4024993Y2075019D03*
G01X4075006Y2075019D03*
G01X4124993Y2075019D03*
G01X4175006Y2075019D03*
G01X4224993Y2075019D03*
G01X4275006Y2075019D03*
G54D13*
G01X4424993Y2225006D03*
G01X4424993Y2275019D03*
G01X4424993Y2325006D03*
G01X4424993Y2375019D03*
G01X4424993Y2425006D03*
G01X4424993Y2475018D03*
G01X4424993Y2525006D03*
G01X4424993Y2575018D03*
G01X4424993Y2625005D03*
G01X4424993Y2675018D03*
G01X4424993Y2725005D03*
G01X4424993Y2775018D03*
G54D14*
G01X4275006Y2925005D03*
G01X4224993Y2925005D03*
G01X4175006Y2925005D03*
G01X4124993Y2925005D03*
G01X4075006Y2925005D03*
G01X4024993Y2925005D03*
G01X3975006Y2925005D03*
G01X3924994Y2925005D03*
G01X3875006Y2925005D03*
G01X3824994Y2925005D03*
G01X3775007Y2925005D03*
G01X3724994Y2925005D03*
G54D15*
G01X2465197Y2510295D03*
G01X2465197Y2290305D03*
G01X2640203Y2290305D03*
G01X2640203Y2510295D03*
G54D16*
G01X2860054Y3478935D03*
G01X2696714Y3315595D03*
G54D17*
G01X1435100Y4676140D03*
G01X1435100Y4163060D03*
G54D19*
G01X5257284Y2543402D03*
G01X5257284Y2323388D03*
G54D20*
G01X6811830Y4229812D03*
G01X6591816Y4229812D03*
G01X1603602Y1084171D03*
G01X1383588Y1084171D03*
G01X2437569Y1084171D03*
G01X2217554Y1084171D03*
G01X3271536Y1084171D03*
G01X3051521Y1084171D03*
G01X4105502Y1084171D03*
G01X3885488Y1084171D03*
G01X4939469Y1084171D03*
G01X4719454Y1084171D03*
G01X5773436Y1084171D03*
G01X5553421Y1084171D03*
G01X6607402Y1084171D03*
G01X6387388Y1084171D03*
G54D21*
G01X2177801Y4520499D03*
G01X2082805Y4750501D03*
G01X1987799Y4520499D03*
G54D22*
G01X380695Y2641600D03*
G01X787705Y2641600D03*
G01X1296495Y325730D03*
G01X1703505Y325730D03*
G01X2129829Y325730D03*
G01X2536838Y325730D03*
G01X2963162Y325730D03*
G01X3370172Y325730D03*
G01X3796495Y325730D03*
G01X4203505Y325730D03*
G01X4629828Y325730D03*
G01X5036838Y325730D03*
G01X5463162Y325730D03*
G01X5870171Y325730D03*
G01X6296495Y325730D03*
G01X6703505Y325730D03*
G04 Pad End*

M02*

